<?xml version="1.0" encoding="utf-8"?>
<!-- Generator: Adobe Illustrator 17.0.0, SVG Export Plug-In . SVG Version: 6.00 Build 0)  -->
<!DOCTYPE svg PUBLIC "-//W3C//DTD SVG 1.1//EN" "http://www.w3.org/Graphics/SVG/1.1/DTD/svg11.dtd">
<svg version="1.1" id="Livello_1" xmlns="http://www.w3.org/2000/svg" xmlns:xlink="http://www.w3.org/1999/xlink" x="0px" y="0px"
	 width="512px" height="125px" viewBox="0 206.5 512 125" enable-background="new 0 206.5 512 125" xml:space="preserve">
<g id="Layer_5">
	<path fill="#FFFFFF" d="M219.749,256.252l0.001-0.005l-3.251,11.519L219.749,256.252L219.749,256.252z"/>
	<path fill="#FFFFFF" d="M236.465,281.259l-3.582-0.022L236.465,281.259z"/>
	<path fill="#FFFFFF" d="M235.544,298.461h0.003l-21.457,0.078L235.544,298.461L235.544,298.461z"/>
	<path fill="#FFFFFF" d="M240.042,281.28l-3.583-0.021L240.042,281.28z"/>
	<path fill="#FFFFFF" d="M237.425,296.999l3.737-14.255l-3.737,14.258V296.999L237.425,296.999z"/>
	<path fill="#FFFFFF" d="M316.427,231.352l-6.962,32.733L316.427,231.352z"/>
	<path fill="#FFFFFF" d="M298.529,231.352l-5.287,24.453l5.287-24.455V231.352z"/>
	<path fill="#FFFFFF" d="M315.234,229.879h-14.89c-0.826,0-1.646,0.663-1.821,1.47l-5.287,24.455l-5.286,24.456
		c-0.174,0.807-0.993,1.469-1.82,1.469h-9.033h-1.505c-10.426,0-9.221-7.213-7.084-17.093c0.021-0.099,0.042-0.196,0.062-0.298
		l0.234-1.246c0.016-0.08,0.031-0.16,0.044-0.233l0.477-2.536l0.51-2.717c0.155-0.819,0.39-2.017,0.545-2.77l2.401-11.741
		l2.406-11.741c0.166-0.81-0.376-1.475-1.204-1.475h-15.282c-0.824,0-1.644,0.665-1.812,1.473l-3.287,15.59l-3.286,15.587
		c-0.003,0.008-0.005,0.018-0.005,0.024l-0.305,1.449c-3.786,17.279-2.782,33.758,17.789,34.273c0.337,0.01,0.597,0.013,0.597,0.013
		h32.289c0.827,0,1.644-0.664,1.816-1.472l6.965-32.731l6.962-32.734C316.597,230.542,316.062,229.879,315.234,229.879
		L315.234,229.879z"/>
	<path fill="#FFFFFF" d="M374.633,281.898c0.826,0,1.368,0.662,1.202,1.472l-1.447,7.066"/>
	<path fill="#FFFFFF" d="M372.945,297.507l1.444-7.07l-1.446,7.072C372.943,297.507,372.945,297.507,372.945,297.507
		L372.945,297.507z"/>
	<path fill="#FFFFFF" d="M371.132,298.993c0.003,0,0.006-0.002,0.008-0.002c-4.383,0.035-17.551,0.136-27.447,0.136
		c12.044,0,27.439-0.132,27.439-0.132V298.993z"/>
	<path fill="#FFFFFF" d="M334.811,272.797c-0.012-0.774,0.869-2.108,1.695-2.108l-1.859-0.03
		C333.81,279.086,334.811,272.797,334.811,272.797L334.811,272.797z"/>
	<path fill="#FFFFFF" d="M345.05,299.123c-0.095,0-0.192,0-0.287,0.002C344.857,299.123,344.955,299.123,345.05,299.123z"/>
	<path fill="#FFFFFF" d="M374.633,281.898c0.826,0,1.368,0.662,1.202,1.472l-1.447,7.066l-0.235,1.152"/>
	<path fill="#FFFFFF" d="M352.099,299.108h-0.061H352.099z"/>
	<path fill="#FFFFFF" d="M348.443,299.119h-0.212H348.443z"/>
	<path fill="#FFFFFF" d="M347.328,299.121c-0.118,0-0.233,0-0.351,0.002C347.095,299.121,347.21,299.121,347.328,299.121z"/>
	<path fill="#FFFFFF" d="M346.194,299.123h-0.309H346.194z"/>
	<path fill="#FFFFFF" d="M348.229,299.119c-0.302,0-0.604,0.002-0.901,0.002C347.626,299.121,347.928,299.119,348.229,299.119z"/>
	<path fill="#FFFFFF" d="M352.04,299.108c-1.204,0.004-2.406,0.009-3.593,0.011C349.634,299.117,350.837,299.112,352.04,299.108z"/>
	<path fill="#FFFFFF" d="M371.143,298.991L371.143,298.991c-3.212,0.025-11.142,0.085-19.05,0.115
		C359.997,299.078,367.929,299.017,371.143,298.991z"/>
	<path fill="#FFFFFF" d="M372.945,297.511l1.21-5.922l-1.212,5.925c0-0.002,0.002-0.002,0.002-0.005V297.511z"/>
	<path fill="#FFFFFF" d="M346.979,299.123h-0.785H346.979z"/>
	<path fill="#FFFFFF" d="M344.759,299.125h-1.062H344.759z"/>
	<path fill="#FFFFFF" d="M345.884,299.123h-0.838H345.884z"/>
	<path fill="#FFFFFF" d="M128.083,272.974l2.312-10.253l-2.644,11.72l-2.537,11.938l2.224-10.465
		C127.61,275.104,127.901,273.781,128.083,272.974L128.083,272.974z"/>
	<path fill="#FFFFFF" d="M155.765,229.707h-16.352c-0.827,0-1.652,0.661-1.837,1.465l-1.55,6.843l-1.551,6.846
		c-0.182,0.805,0.345,1.465,1.172,1.465h16.478c0.826,0,1.648-0.661,1.825-1.468l1.499-6.844l1.499-6.838v-0.002
		C157.124,230.368,156.592,229.707,155.765,229.707L155.765,229.707z"/>
	<path fill="#FFFFFF" d="M152.207,252.472v-0.002l-4.795,22.187L152.207,252.472z"/>
	<path fill="#FFFFFF" d="M104.706,325.984c0,0,8.243,0.105,13.482,0.105c-3.979,0-10.554-0.072-13.489-0.106
		C104.702,325.983,104.704,325.984,104.706,325.984L104.706,325.984z"/>
	<path fill="#FFFFFF" d="M132.708,252.469l-2.315,10.252L132.708,252.469z"/>
	<path fill="#FFFFFF" d="M151.024,251.001h-16.48c-0.826,0-1.652,0.661-1.834,1.468l-2.315,10.253l-2.312,10.253
		c-0.182,0.806-0.474,2.129-0.646,2.938l-2.224,10.466l-2.223,10.465c-0.173,0.806-0.528,2.111-0.792,2.895
		c0,0-3.079,9.161-8.255,9.057c-0.22-0.005-0.434-0.007-0.646-0.012c-2.507-0.049-4.479-0.084-4.479-0.084h-0.004
		c-0.824-0.012-1.655,0.633-1.847,1.435l-1.71,7.187l-1.707,7.181c-0.192,0.803,0.327,1.466,1.147,1.479
		c2.936,0.034,9.51,0.108,13.489,0.108c12.929,0,19.745-7.163,24.113-27.774l5.113-23.657l4.795-22.188
		C152.383,251.662,151.849,251.002,151.024,251.001L151.024,251.001z"/>
	<path fill="#FFFFFF" d="M385.134,298.288c-0.827,0-1.364-0.663-1.189-1.473l12.397-58.069"/>
	<path fill="#FFFFFF" d="M402.362,296.813l5.015-24.786L402.362,296.813z"/>
	<path fill="#FFFFFF" d="M384.124,297.552c-0.1-0.404-0.042-1.396,0.134-2.206l5.885-27.564l-6.199,29.035
		c-0.174,0.809,0.362,1.472,1.188,1.472h1.506C385.81,298.288,384.226,297.957,384.124,297.552L384.124,297.552z"/>
	<path fill="#FFFFFF" d="M401.384,297.957c-0.451,0.182-1.496,0.331-2.324,0.331h1.506c0.826,0,1.638-0.663,1.8-1.475l0.301-1.473
		C402.501,296.15,401.834,297.774,401.384,297.957L401.384,297.957z"/>
	<path fill="#FFFFFF" d="M404.874,284.421l2.214-10.938c-0.002,0.007-0.002,0.016-0.004,0.021L404.874,284.421L404.874,284.421z"/>
	<path fill="#FFFFFF" d="M453.79,242.636l0.683,2.822c0.188,0.808-0.334,1.463-1.158,1.465"/>
	<path fill="#FFFFFF" d="M402.663,295.342l2.207-10.919L402.663,295.342z"/>
	<path fill="#FFFFFF" d="M453.111,239.746l0.676,2.89L453.111,239.746z"/>
	<path fill="#FFFFFF" d="M407.084,273.482c0.164-0.809,0.438-2.122,0.608-2.922l2.364-11.075l-2.677,12.544L407.084,273.482
		L407.084,273.482z"/>
	<path fill="#FFFFFF" d="M396.546,237.794c-0.165,0.781-0.375,1.769-0.517,2.422l-5.883,27.564l6.198-29.035L396.546,237.794
		L396.546,237.794z"/>
	<path fill="#FFFFFF" d="M454.469,245.458l-0.684-2.822l-0.676-2.89l-0.343-1.463c-1.337-5.2-5.267-8.202-13.799-8.202
		l-13.283-0.014l-12.234-0.014h-1.05h-12.716c-0.825,0-1.643,0.66-1.812,1.47l0,0l-0.61,2.876l-0.718,3.397l-0.2,0.952
		l-6.199,29.035l-5.884,27.564c-0.175,0.811-0.232,1.802-0.133,2.206c0.1,0.405,1.686,0.736,2.514,0.736h12.416
		c0.828,0,1.875-0.149,2.324-0.331c0.45-0.182,1.117-1.807,1.282-2.616l2.208-10.92l2.209-10.917
		c0.001-0.004,0.002-0.014,0.004-0.021l0.295-1.453l2.677-12.544l2.365-11.079c0.175-0.805,0.988-1.463,1.814-1.465l39.074-0.02
		C454.135,246.92,454.657,246.265,454.469,245.458L454.469,245.458z"/>
	<path fill="#FFFFFF" d="M504.772,219.944c-0.829,0.006-2.181,0.011-3.009,0.011h-12.506c-0.829,0-1.888,0.559-2.354,1.241
		l-27.656,40.518c-0.467,0.684-1.001,0.581-1.185-0.224l-2.034-8.926c-0.183-0.807-1.012-1.465-1.837-1.465h-17.78
		c-0.828,0-1.317,0.649-1.091,1.444l7.966,27.909c0.228,0.795,0.245,2.103,0.04,2.903l-3.473,13.508
		c-0.206,0.801,0.303,1.457,1.131,1.457h17.571c0.825,0,1.671-0.656,1.875-1.457l3.476-13.508c0.204-0.801,0.78-1.998,1.277-2.659
		l44.897-59.59c0.499-0.661,0.229-1.197-0.597-1.192L504.772,219.944L504.772,219.944z"/>
	<path fill="#FFFFFF" d="M363.521,254.897v-0.017c-0.104,0.897-0.932,1.555-1.759,1.555h-22.541c-0.779,0-1.175-0.53-1.061-1.184
		c0.007-0.019,0.009-0.036,0.021-0.052c0,0-0.008,0.002-0.015,0.006c0.005-0.026,0.005-0.049,0.013-0.075
		c0,0,0.042-0.159,0.103-0.384c2.152-5.724,6.538-9.48,14.78-9.48C362.341,245.268,364.15,249.801,363.521,254.897L363.521,254.897z
		 M356.907,228.88c-28.933,0-35.79,17.562-39.637,35.287c-3.846,18.066-3.514,34.958,26.426,34.958h1.062
		c0.096-0.002,0.191-0.002,0.286-0.002h0.839h0.307h0.785c0.118-0.002,0.234-0.002,0.351-0.002c0.3,0,0.601-0.002,0.902-0.002h0.213
		c1.185-0.002,2.388-0.007,3.591-0.011h0.061c7.908-0.031,15.838-0.092,19.052-0.117c0.819-0.012,1.623-0.674,1.793-1.477
		l1.212-5.924l0.235-1.154l1.446-7.065c0.167-0.811-0.375-1.473-1.202-1.473h-26.917c-10.705,0-13.885-2.845-12.714-11.208h43.028
		l-0.004,0.004c0.012,0,0.021-0.004,0.031-0.004c0.683-0.013,1.316-0.484,1.565-1.111c0.047-0.121,0.088-0.246,0.104-0.375
		l-0.005,0.004c6.388-24.098,4.557-40.327-22.813-40.327L356.907,228.88z"/>
	<path fill="#FFFFFF" d="M220.156,254.806l-0.407,1.441c0,0.005-0.001,0.005-0.001,0.005l-3.249,11.514l-3.248,11.513
		c-0.225,0.795-1.085,1.445-1.913,1.445h-17.197c-13.043,0-16.22-10.201-13.043-25.25c3.175-15.391,9.402-24.959,22.24-25.929
		C220.883,228.223,224.392,240.562,220.156,254.806L220.156,254.806z M231.949,279.839c0,0,8.108-19.687,9.95-31.058
		c2.511-15.222-5.11-37.296-34.547-37.296c-29.27,0-41.979,21.076-46.829,43.988c-4.849,23.077,1.505,43.316,30.607,43.151
		l22.96-0.085l21.457-0.078c0.827-0.008,1.672-0.662,1.882-1.461l3.738-14.258c0.208-0.801-0.297-1.459-1.123-1.463l-3.583-0.021
		l-3.581-0.021c-0.704-0.006-1.105-0.459-1.021-1.063C231.875,280.065,231.899,279.953,231.949,279.839L231.949,279.839z"/>
	<path fill="#FFFFFF" d="M376.843,266.662c0,0.545-0.441,0.987-0.987,0.987c-0.545,0-0.986-0.442-0.986-0.987
		c0-0.544,0.441-0.984,0.986-0.984C376.401,265.678,376.843,266.118,376.843,266.662z"/>
	<path fill="#FFFFFF" d="M8.453,241.066c-8.082,11.616-7.075,26.728-0.902,39.071c0.147,0.296,0.301,0.587,0.453,0.879
		c0.097,0.184,0.188,0.373,0.289,0.555c0.057,0.109,0.121,0.216,0.18,0.32c0.105,0.197,0.213,0.384,0.322,0.576
		c0.192,0.338,0.389,0.674,0.589,1.01c0.111,0.185,0.221,0.369,0.336,0.554c0.223,0.359,0.451,0.716,0.684,1.07
		c0.097,0.151,0.192,0.303,0.292,0.449c0.322,0.48,0.651,0.96,0.99,1.431c0.009,0.012,0.019,0.024,0.028,0.036
		c0.054,0.076,0.113,0.15,0.167,0.226c0.293,0.405,0.597,0.805,0.902,1.201c0.113,0.144,0.227,0.288,0.34,0.433
		c0.273,0.344,0.551,0.685,0.834,1.025c0.106,0.127,0.212,0.255,0.319,0.38c0.379,0.446,0.767,0.892,1.163,1.328
		c0.007,0.008,0.016,0.017,0.023,0.024c0.016,0.019,0.03,0.03,0.044,0.048c0.386,0.422,0.781,0.835,1.182,1.247
		c0.124,0.127,0.251,0.255,0.378,0.382c0.31,0.312,0.625,0.617,0.943,0.925c0.129,0.122,0.257,0.248,0.386,0.366
		c0.425,0.4,0.854,0.793,1.292,1.176c0.008,0.008,0.013,0.014,0.021,0.017c0.074,0.066,0.151,0.13,0.225,0.191
		c0.386,0.335,0.779,0.667,1.174,0.993c0.161,0.13,0.324,0.259,0.486,0.388c0.323,0.259,0.65,0.514,0.979,0.765
		c0.174,0.133,0.348,0.266,0.523,0.398c0.363,0.266,0.729,0.53,1.098,0.787c0.135,0.098,0.265,0.191,0.4,0.284
		c0.037,0.026,0.071,0.054,0.109,0.079c0.351,0.24,0.708,0.474,1.066,0.705c0.154,0.103,0.307,0.208,0.462,0.308
		c0.549,0.347,1.106,0.69,1.67,1.023c0.153,0.087,0.308,0.173,0.461,0.26c0.414,0.239,0.831,0.474,1.253,0.703
		c0.228,0.123,0.463,0.239,0.693,0.356c0.299,0.157,0.595,0.315,0.897,0.466c0.069,0.035,0.14,0.068,0.208,0.101
		c0.121,0.059,0.244,0.116,0.367,0.178c0.47,0.225,0.943,0.444,1.421,0.658c0.102,0.045,0.2,0.09,0.301,0.134
		c0.547,0.239,1.1,0.471,1.658,0.69c0.134,0.054,0.269,0.105,0.404,0.159c0.516,0.198,1.039,0.395,1.564,0.579
		c0.067,0.023,0.131,0.045,0.197,0.067c0.577,0.202,1.159,0.389,1.745,0.571c0.14,0.041,0.28,0.086,0.421,0.127
		c0.597,0.18,1.186,0.394,1.802,0.508c39.084,7.127,50.437-23.487,50.437-23.487c-9.535,12.422-26.46,15.699-42.496,12.051
		c-0.608-0.137-1.197-0.326-1.79-0.502c-0.151-0.045-0.298-0.09-0.447-0.136c-0.579-0.178-1.152-0.364-1.723-0.561
		c-0.078-0.027-0.157-0.057-0.237-0.085c-0.511-0.18-1.016-0.369-1.52-0.563c-0.142-0.057-0.284-0.11-0.426-0.167
		c-0.552-0.218-1.1-0.445-1.641-0.683c-0.112-0.047-0.218-0.097-0.328-0.146c-0.465-0.21-0.925-0.422-1.385-0.643
		c-0.132-0.064-0.265-0.127-0.399-0.192c-0.359-0.175-0.716-0.361-1.07-0.544c-0.238-0.125-0.479-0.244-0.714-0.374
		c-0.434-0.232-0.859-0.474-1.283-0.72c-0.144-0.081-0.289-0.158-0.434-0.241c-0.563-0.332-1.12-0.676-1.671-1.024
		c-0.152-0.097-0.301-0.2-0.451-0.3c-0.399-0.258-0.797-0.52-1.188-0.791c-0.13-0.086-0.256-0.182-0.383-0.269
		c-0.378-0.267-0.752-0.538-1.124-0.812c-0.168-0.124-0.334-0.253-0.498-0.377c-0.34-0.261-0.679-0.522-1.014-0.793
		c-0.151-0.12-0.303-0.241-0.452-0.362c-0.426-0.351-0.847-0.702-1.263-1.063c-0.043-0.039-0.091-0.076-0.138-0.116
		c-0.449-0.396-0.892-0.801-1.328-1.208c-0.127-0.121-0.25-0.238-0.374-0.36c-0.324-0.307-0.642-0.617-0.954-0.935
		c-0.125-0.125-0.251-0.249-0.374-0.373c-0.398-0.408-0.788-0.82-1.171-1.239c-0.019-0.021-0.039-0.039-0.058-0.062
		c-0.405-0.442-0.8-0.895-1.188-1.352c-0.105-0.125-0.207-0.246-0.311-0.369c-0.289-0.348-0.575-0.7-0.854-1.057
		c-0.105-0.127-0.21-0.259-0.314-0.39c-0.336-0.437-0.665-0.871-0.987-1.314c-8.903-12.144-12.102-28.894-4.986-42.649"/>
	<path fill="#FFFFFF" d="M33.54,231.28c-5.845,8.411-5.527,19.669-0.968,28.564c0.765,1.491,1.624,2.938,2.585,4.315
		c0.875,1.255,1.846,2.748,3.008,3.756c0.422,0.464,0.862,0.917,1.312,1.361c0.114,0.117,0.23,0.228,0.346,0.343
		c0.436,0.422,0.88,0.839,1.339,1.243c0.019,0.016,0.036,0.034,0.055,0.047c0.005,0.006,0.01,0.008,0.013,0.014
		c0.508,0.444,1.032,0.873,1.565,1.294c0.118,0.09,0.235,0.185,0.355,0.277c0.534,0.409,1.078,0.812,1.637,1.195
		c0.017,0.012,0.031,0.023,0.047,0.037c0.246,0.169,0.498,0.328,0.747,0.491c0.12,0.078,0.234,0.161,0.354,0.234
		c0.398,0.255,0.802,0.504,1.213,0.743c0.058,0.036,0.115,0.065,0.171,0.099c0.354,0.204,0.713,0.405,1.073,0.6
		c0.125,0.071,0.253,0.133,0.381,0.199c0.249,0.13,0.497,0.262,0.75,0.389c0.037,0.018,0.076,0.035,0.113,0.051
		c0.515,0.254,1.035,0.498,1.565,0.729c0.113,0.05,0.23,0.095,0.346,0.143c0.423,0.18,0.852,0.355,1.282,0.521
		c0.183,0.069,0.367,0.135,0.55,0.202c0.39,0.145,0.783,0.277,1.178,0.41c0.179,0.057,0.354,0.115,0.533,0.17
		c0.562,0.174,1.117,0.395,1.703,0.492c30.176,5,37.144-18.234,37.144-18.234c-6.281,9.043-18.442,13.36-31.42,9.991
		c-0.576-0.151-1.144-0.316-1.708-0.494c-0.173-0.053-0.343-0.109-0.514-0.166c-0.401-0.13-0.8-0.269-1.196-0.412
		c-0.181-0.065-0.362-0.132-0.54-0.2c-0.434-0.167-0.862-0.339-1.287-0.52c-0.116-0.05-0.233-0.094-0.347-0.146
		c-0.533-0.231-1.057-0.477-1.575-0.73c-0.266-0.131-0.527-0.269-0.789-0.402c-0.151-0.079-0.304-0.157-0.456-0.235
		c-0.336-0.183-0.67-0.371-1-0.563c-0.078-0.045-0.159-0.087-0.238-0.135c-0.409-0.239-0.812-0.485-1.21-0.738
		c-0.123-0.079-0.241-0.164-0.364-0.244c-0.263-0.171-0.526-0.344-0.784-0.519c-0.556-0.383-1.098-0.785-1.631-1.193
		c-0.123-0.097-0.247-0.191-0.367-0.288c-5.681-4.485-10.183-10.615-12.324-17.564c-2.244-7.208-1.761-15.299,2.126-21.865"/>
	<path fill="#FFFFFF" d="M54.639,223.968c-3.445,5.07-3.784,11.368-1.393,16.968c2.521,5.944,7.687,10.607,13.717,12.817
		c0.249,0.093,0.497,0.175,0.749,0.261c0.11,0.034,0.219,0.071,0.33,0.104c0.355,0.112,0.708,0.242,1.075,0.311
		c16.662,3.22,21.182-8.551,22.385-10.283c-3.959,5.7-10.612,7.068-18.775,5.087c-0.645-0.158-1.354-0.39-1.975-0.61
		c-0.797-0.284-1.582-0.608-2.346-0.974c-1.449-0.697-2.831-1.542-4.112-2.509c-7.304-5.542-11.843-16.116-7.076-24.727"/>
</g>
</svg>
