<?xml version="1.0" encoding="utf-8"?>
<!-- Generator: Adobe Illustrator 17.0.0, SVG Export Plug-In . SVG Version: 6.00 Build 0)  -->
<!DOCTYPE svg PUBLIC "-//W3C//DTD SVG 1.1//EN" "http://www.w3.org/Graphics/SVG/1.1/DTD/svg11.dtd">
<svg version="1.1" id="Layer_1" xmlns="http://www.w3.org/2000/svg" xmlns:xlink="http://www.w3.org/1999/xlink" x="0px" y="0px"
	 width="512px" height="512px" viewBox="0 0 512 512" enable-background="new 0 0 512 512" xml:space="preserve">
<path fill="#FFFFFF" d="M251.166,60.999c-9.062,0-17.992,0.559-26.768,1.619c-0.583-2.171-1.571-4.17-2.885-5.918
	c4.643-4.746,7.47-11.011,7.47-17.882c0-14.811-13.119-26.818-29.301-26.818s-29.301,12.007-29.301,26.818
	c0,11.874,8.435,21.939,20.117,25.467c-0.153,0.926-0.252,1.871-0.252,2.841c0,0.794,0.072,1.571,0.175,2.337
	C97.996,95.85,30.332,180.938,30.332,281.833c0,121.963,98.871,220.834,220.834,220.834S472,403.796,472,281.833
	S373.129,60.999,251.166,60.999z M177.333,38.818c0-11.296,10.006-20.455,22.348-20.455c12.343,0,22.348,9.158,22.348,20.455
	c0,5.132-2.07,9.819-5.481,13.41c-2.61-1.566-5.655-2.484-8.921-2.484c-6.353,0-11.893,3.418-14.925,8.506
	C183.779,55.566,177.333,47.883,177.333,38.818z M251.166,467.903c-102.764,0-186.07-83.308-186.07-186.07
	c0-102.764,83.307-186.07,186.07-186.07s186.07,83.306,186.07,186.07C437.236,384.596,353.929,467.903,251.166,467.903z"/>
<g>
	<g>
		<path fill="#FFFFFF" d="M101.846,304.513c0-14.262,11.562-25.824,25.825-25.824c11.946,0,21.993,8.113,24.943,19.128
			l47.972-22.332c0.809-6.506,2.832-12.635,5.854-18.142l-22.154-22.155l30.366,11.074c4.37-4.485,9.558-8.163,15.324-10.802
			v-54.847c-1.138,0.153-2.297,0.24-3.477,0.24c-14.262,0-25.825-11.563-25.825-25.825c0-10.811,6.646-20.066,16.074-23.914
			l-2.529-11.358c-41.693,9.464-77.431,34.599-100.692,68.889l13.628,8.664c1.43,0.909,1.873,2.772,0.99,4.161
			c-0.882,1.387-2.759,1.777-4.187,0.867l-13.681-8.698c-16.036,25.563-25.317,55.792-25.317,88.194
			c0,11.076,1.093,21.896,3.16,32.365l14.537-3.236C102.128,308.9,101.846,306.739,101.846,304.513z M250.648,267.586
			c-7.855,0.352-13.938,7.004-13.587,14.858s7.003,13.938,14.859,13.587c7.854-0.35,13.939-7.003,13.587-14.857
			C265.156,273.318,258.503,267.235,250.648,267.586z M281.499,428.795c-1.413,0.239-2.862,0.371-4.344,0.371
			c-14.263,0-25.824-11.562-25.824-25.824c0-12.26,8.545-22.516,20.001-25.157l-20.265-45.366
			c-4.386-0.009-8.639-0.577-12.698-1.627l4.389-4.116c2.728,0.503,5.535,0.779,8.408,0.779c25.416,0,46.021-20.605,46.021-46.021
			c0-7.098-1.61-13.819-4.479-19.822l2.998-4.983c0.055,0.096,0.114,0.188,0.168,0.284l54.649,0.853
			c-0.235-1.401-0.364-2.838-0.364-4.307c0-14.263,11.563-25.825,25.825-25.825c11.58,0,21.379,7.622,24.656,18.123l12.262-2.729
			c-9.728-41.119-34.723-76.334-68.678-99.322l-8.575,13.485c-0.896,1.412-2.75,1.842-4.14,0.959s-1.787-2.744-0.889-4.158
			l8.604-13.53c-25.533-15.983-55.714-25.233-88.059-25.233c-10.634,0-21.031,1.011-31.11,2.92l2.442,10.966
			c1.304-0.203,2.64-0.31,4.001-0.31c14.263,0,25.825,11.563,25.825,25.825c0,12.072-8.285,22.208-19.479,25.037l23.776,51.075
			c2.091,0.223,4.144,0.574,6.152,1.041l-4.463,4.186c-2.329-0.363-4.714-0.555-7.145-0.555c-25.417,0-46.021,20.604-46.021,46.021
			c0,5.248,0.891,10.285,2.508,14.983l-3.235,5.378c-0.023-0.056-0.05-0.109-0.074-0.164h-50.969
			c0.078,0.817,0.121,1.645,0.121,2.482c0,14.263-11.562,25.825-25.825,25.825c-9.903,0-18.499-5.576-22.832-13.758l-15.462,3.443
			c9.833,41.816,35.458,77.535,70.238,100.534l9.728-15.301c0.898-1.413,2.753-1.842,4.142-0.961
			c1.387,0.883,1.786,2.746,0.886,4.157l-9.733,15.309c25.205,15.399,54.829,24.276,86.527,24.276
			c11.595,0,22.912-1.191,33.838-3.451l-3.49-15.675C281.505,428.873,281.507,428.834,281.499,428.795z M151.509,403.342
			l81.3-135.13l0.656-1.089l0.583-0.548l114.245-107.152l-81.297,135.128l-0.658,1.091l-0.581,0.547L151.509,403.342z
			 M381.036,360.505l12.142,7.721c15.35-25.176,24.193-54.751,24.193-86.393c0-11.153-1.107-22.047-3.202-32.584l-12.433,2.768
			c0.043,0.609,0.072,1.221,0.072,1.841c0,14.263-11.562,25.824-25.824,25.824c-11.66,0-21.513-7.729-24.721-18.344l-49.146,21.954
			c-0.184,6.496-1.566,12.693-3.96,18.361l22.624,23.342l-29.759-11.381c-3.983,4.988-8.881,9.209-14.442,12.414l0.77-0.129
			l-0.806,51.634c0.204-0.005,0.406-0.016,0.611-0.016c14.263,0,25.825,11.562,25.825,25.824c0,10.709-6.519,19.895-15.804,23.807
			c0.06,0.151,0.117,0.305,0.153,0.469l3.484,15.648c41.239-10.094,76.436-35.573,99.164-70.014l-12.141-7.719
			c-1.43-0.909-1.873-2.771-0.99-4.16C377.731,359.983,379.605,359.595,381.036,360.505z"/>
	</g>
</g>
<g>
	<path fill="#FFFFFF" d="M240.607,160.669c0.634,3.008,1.25,5.923,1.664,7.43c-0.207,0.624-1.396,1.405-2.505,1.64
		c-0.047,0.01-2.072-2.027-4.811-4.252l-13.478-10.981c-3.376-2.719-5.313-4.34-6.291-4.859c-0.135,0.511,0.031,1.297,0.392,3.009
		l1.893,8.977c0.79,3.747,1.706,7.18,2.479,8.321c0.621,0.884,1.754,0.984,2.996,0.916l1.334-0.088
		c0.448,0.292,0.561,1.283,0.341,1.619c-2.518,0.435-4.379,0.778-6.23,1.168c-1.711,0.361-3.414,0.769-5.152,1.231
		c-0.336-0.219-0.634-1.171-0.342-1.619l0.758-0.305c1.201-0.495,2.057-1.014,2.223-2.064c0.246-1.355-0.347-4.857-1.137-8.604
		l-2.478-11.753c-0.536-2.544-0.739-3.274-1.153-3.864c-0.535-0.708-1.301-1.127-2.969-1.017l-1.334,0.087
		c-0.402-0.301-0.591-1.422-0.157-1.658c2.194-0.366,4.518-0.808,6.415-1.207c1.573-0.332,2.906-0.661,3.857-0.958
		c0.902,1.984,4.651,4.867,9.858,8.94l4.853,3.761c2.542,1.978,4.226,3.313,5.514,4.153c0.087-0.501-0.079-1.288-0.254-2.12
		l-1.347-6.385c-0.79-3.748-1.705-7.18-2.477-8.321c-0.622-0.884-1.707-0.993-2.997-0.915l-1.288,0.078
		c-0.448-0.292-0.56-1.283-0.341-1.619c2.518-0.435,4.333-0.769,6.23-1.168c1.711-0.361,3.367-0.759,5.153-1.231
		c0.335,0.219,0.633,1.171,0.341,1.619l-0.804,0.314c-1.163,0.439-1.965,0.995-2.177,2.054c-0.245,1.356,0.301,4.866,1.091,8.614
		L240.607,160.669z"/>
</g>
<g>
	<path fill="#FFFFFF" d="M273.823,387.431c4.258-0.897,7.148-0.251,8.236,0.099c1.095,0.834,2.397,4.038,3.062,7.185
		c-0.198,0.669-1.252,0.94-1.729,0.51c-1.559-2.813-5.558-6.416-9.489-5.588c-3.424,0.722-4.5,3.414-4.012,5.728
		c0.789,3.747,4.774,5.227,7.843,6.031c3.683,0.962,7.923,2.968,8.888,7.55c1.148,5.217-2.162,9.685-8.871,11.099
		c-1.527,0.322-3.464,0.537-5.431,0.371c-0.641-0.058-1.077-0.063-1.652-0.037c-0.584-0.941-1.573-3.342-2.227-6.442
		c0.113-0.603,1.261-0.893,1.776-0.518c1.283,2.193,3.984,5.151,7.316,4.449c3.053-0.644,4.3-2.983,3.812-5.298
		c-0.448-2.128-2.756-3.673-5.322-4.388l-3.395-0.976c-3.19-0.922-7.412-2.835-8.484-7.926
		C262.943,393.59,266.837,388.902,273.823,387.431z"/>
</g>
<g>
	<path fill="#FFFFFF" d="M112.922,283.91c0.457,1.016,0.972,1.63,1.458,1.867c0.847,0.353,2.494,0.827,5.672,1.463
		c5.892,1.126,18.475,3.74,24.969,4.74c0.289,0.229,0.564,0.847,0.691,1.449c0.106,0.508,0.056,0.954-0.107,1.326
		c-1.003,0.743-2.522,1.789-3.701,2.617l-3.986,2.869c-1.344,0.96-2.605,1.854-3.211,2.416c0.875,0.253,2.102,0.572,3.525,0.901
		l5.177,1.181c1.626,0.381,3.076,0.607,4.759,1.026c0.281,0.182,0.546,0.754,0.692,1.448c0.107,0.509,0.027,0.816-0.117,1.281
		c-1.788,1.149-5.561,3.879-8.701,6.183l-14.964,11.08c-2.467,1.824-2.639,2.151-2.641,3.746l0.012,1.205
		c-0.384,0.468-1.32,0.617-1.658,0.156c-0.269-1.731-0.632-3.684-1.129-6.044c-0.429-2.036-0.856-3.83-1.319-5.569
		c0.107-0.409,1.225-0.838,1.599-0.435l0.314,0.804c0.315,0.805,0.615,1.079,0.938,1.011c0.325-0.068,2.295-1.498,5.231-3.615
		l9.259-6.736c2.597-1.899,3.745-2.867,4.739-3.656c-1.042-0.36-3.441-0.967-5.263-1.355l-1.468-0.319
		c-0.81-0.167-1.44-0.179-1.717-0.121c-0.277,0.06-1.181,0.588-1.605,0.87l-8.827,6.5c-2.089,1.552-2.344,1.943-2.159,3.741
		l0.051,0.473c-0.272,0.54-1.356,0.673-1.649,0.202c-0.327-2.009-0.66-3.822-1.089-5.858c-0.498-2.36-0.915-4.108-1.261-5.292
		c0.022-0.585,1.28-0.803,1.58-0.527l0.351,0.748c0.256,0.526,0.587,1.181,0.91,1.113c0.37-0.078,0.841-0.371,1.301-0.71l2.9-2.061
		c0.883-0.621,2.006-1.486,2.75-2.078c-1.069-0.258-2.333-0.523-3.448-0.771l-1.014-0.222c-1.924-0.417-3.429-0.68-3.707-0.62
		c-0.323,0.067-0.424,0.282-0.453,1.062l0.026,1.733c-0.254,0.393-1.329,0.571-1.648,0.203c-0.19-1.361-0.495-3.036-0.817-4.563
		c-0.38-1.805-0.788-3.507-1.134-4.69c0.153-0.419,1.244-0.745,1.656-0.397l0.551,1.237c0.657,1.506,0.725,1.828,3.841,2.863
		c2.132,0.71,4.689,1.38,6.019,1.728c0.92,0.241,2.39,0.559,2.621,0.511c0.139-0.029,0.407-0.134,1.078-0.614l4.215-3.159
		c2.292-1.74,3.635-2.699,4.226-3.113c-5.837-1.09-12.25-2.396-18.362-3.428c-0.854-0.157-3.492-0.52-4.001-0.413
		c-0.462,0.098-0.492,0.877-0.55,1.518l-0.064,1.076c-0.338,0.458-1.329,0.57-1.648,0.203c-0.22-1.5-0.573-3.406-0.866-4.795
		c-0.341-1.62-0.671-2.951-1.036-4.228c0.143-0.465,1.151-0.727,1.589-0.48L112.922,283.91z"/>
</g>
<g>
	<path fill="#FFFFFF" d="M377.222,251.606c-1.296,0.272-1.379,0.338-1.115,1.588l0.673,3.193c0.508,2.405,0.949,2.893,3.268,2.888
		l1.204-0.014c0.438,0.247,0.683,1.403,0.314,1.723c-1.5,0.22-3.175,0.525-4.935,0.896c-1.757,0.37-3.413,0.768-4.874,1.172
		c-0.466-0.144-0.757-1.29-0.407-1.702l1.107-0.475c2.125-0.932,2.378-1.564,1.87-3.97l-0.673-3.193
		c-0.264-1.25-0.32-1.286-1.709-0.994l-5.506,1.16c-2.128,0.449-3.568,0.946-4.238,1.667c-0.707,0.777-0.892,1.734-0.18,5.111
		c0.849,4.025,1.32,5.57,7.085,7.014c0.587,0.262,0.645,1.458,0.129,1.76c-2.444,0.322-6.427,0.002-7.813-0.383
		c-0.425-2.472-1.315-6.924-2.114-10.718l-1.268-6.014c-0.469-2.221-0.992-4.479-1.817-7.93c0.2-0.429,1.311-0.662,1.62-0.341
		l0.782,2.107c0.762,2.013,1.099,2.233,5.355,1.335l17.259-3.638c4.211-0.888,4.428-1.223,4.407-3.393l-0.012-1.206
		c0.188-0.476,1.263-0.653,1.638-0.249c0.366,2.194,0.798,4.471,1.266,6.691l2.067,9.811c0.624,2.96,1.228,5.587,1.446,6.17
		c-0.731,0.202-3.994,1.229-7.045,2.113c-0.548-0.078-0.865-1.122-0.546-1.674c1.511-0.85,2.765-1.79,3.284-2.528
		c0.694-1.064,0.956-2.568,0.479-4.836l-0.781-3.701c-0.322-1.528-0.413-1.508-2.126-1.147L377.222,251.606z"/>
</g>
</svg>
