<svg xmlns="http://www.w3.org/2000/svg" width="44" height="44" viewBox="0 0 44 44">
  <defs>
    <style>
      .cls-1 {
        fill: #3a3a3a;
      }

      .cls-2 {
        fill: #fff;
      }
    </style>
  </defs>
  <g id="Group_2873" data-name="Group 2873" transform="translate(-2048 -103)">
    <g id="Group_2823" data-name="Group 2823" transform="translate(672 38)">
      <circle id="Ellipse_96" data-name="Ellipse 96" class="cls-1" cx="22" cy="22" r="22" transform="translate(1376 65)"/>
    </g>
    <g id="group" transform="translate(2055 106.666)">
      <path id="Path_2671" data-name="Path 2671" class="cls-2" d="M124.28,4.342c-2.7-.205-2.911,4-1.438,5.526a1.848,1.848,0,0,0,.588.5.293.293,0,0,0,.108.088C126.626,11.949,127.783,4.609,124.28,4.342Z" transform="translate(-113.919 0)"/>
      <path id="Path_2672" data-name="Path 2672" class="cls-2" d="M74.934,101.628a4.23,4.23,0,0,0-2.773-2.612.246.246,0,0,0-.155.028.269.269,0,0,0-.314.095,22.394,22.394,0,0,0-1.494,2.116c-.077-.137-.155-.272-.232-.4a.166.166,0,0,0,.09-.081,1.694,1.694,0,0,0,.162-.867s0-.007,0-.011a.123.123,0,0,0-.092-.136,3.239,3.239,0,0,0-1.251.08.084.084,0,0,0-.07.076.076.076,0,0,0-.025.09,2.449,2.449,0,0,0,.4.742c.014.016.031.015.047.024a3.288,3.288,0,0,0-.257.423A14.4,14.4,0,0,0,67.3,99.25a.2.2,0,0,0-.221-.027c-1.522-.071-2.416,1.2-2.933,2.635a.4.4,0,0,0-.062.173,12.44,12.44,0,0,0-.548,2.653.228.228,0,0,0,.154.255.18.18,0,0,0,.117.19,16.9,16.9,0,0,0,11.462,0,.283.283,0,0,0,.316-.051C76.2,104.445,75.22,102.233,74.934,101.628Z" transform="translate(-59.36 -88.453)"/>
      <path id="Path_2673" data-name="Path 2673" class="cls-2" d="M279.12,170.809c-2.7-.205-2.911,4-1.438,5.526a1.849,1.849,0,0,0,.588.5.293.293,0,0,0,.108.088C281.466,178.416,282.624,171.076,279.12,170.809Z" transform="translate(-258.579 -155.523)"/>
      <path id="Path_2674" data-name="Path 2674" class="cls-2" d="M229.771,268.095A4.23,4.23,0,0,0,227,265.483a.246.246,0,0,0-.155.028.269.269,0,0,0-.314.095,22.39,22.39,0,0,0-1.494,2.116c-.077-.137-.155-.272-.232-.4a.167.167,0,0,0,.09-.081,1.694,1.694,0,0,0,.162-.867s0-.007,0-.011a.123.123,0,0,0-.092-.136,3.238,3.238,0,0,0-1.25.08.084.084,0,0,0-.07.076.076.076,0,0,0-.025.09,2.448,2.448,0,0,0,.4.742c.015.016.031.015.047.024a3.286,3.286,0,0,0-.257.423,14.405,14.405,0,0,0-1.664-1.946.2.2,0,0,0-.221-.027c-1.522-.071-2.416,1.2-2.934,2.635a.4.4,0,0,0-.062.173,12.437,12.437,0,0,0-.548,2.653.228.228,0,0,0,.154.255.18.18,0,0,0,.117.19,16.9,16.9,0,0,0,11.462,0,.283.283,0,0,0,.316-.052C231.039,270.912,230.058,268.7,229.771,268.095Z" transform="translate(-204.017 -243.976)"/>
      <path id="Path_2675" data-name="Path 2675" class="cls-2" d="M232.739,16.836a.424.424,0,0,0-.472-.356c-.589.062-1.184.077-1.779.09-.444-4.988-5.2-10.275-10.562-9.36-.5.086-.385.909.12.888a9.4,9.4,0,0,1,9.417,8.5,15.166,15.166,0,0,0-1.517.109.46.46,0,0,0-.268.138.442.442,0,0,0-.238.587,27.965,27.965,0,0,0,2.543,3.884c.2.275.71.387.886,0a16.8,16.8,0,0,1,1.851-3.819A.514.514,0,0,0,232.739,16.836Z" transform="translate(-205.164 -2.589)"/>
      <path id="Path_2676" data-name="Path 2676" class="cls-2" d="M.117,204.181a.424.424,0,0,0,.479.347c.588-.073,1.182-.1,1.777-.122.535,4.979,5.387,10.178,10.731,9.166.5-.095.368-.916-.136-.886a9.4,9.4,0,0,1-9.57-8.329,15.156,15.156,0,0,0,1.515-.137.459.459,0,0,0,.265-.143.442.442,0,0,0,.227-.591,27.965,27.965,0,0,0-2.613-3.837c-.207-.271-.717-.375-.886.016a16.8,16.8,0,0,1-1.781,3.852A.514.514,0,0,0,.117,204.181Z" transform="translate(0 -182.249)"/>
    </g>
  </g>
</svg>
