<svg xmlns="http://www.w3.org/2000/svg" width="20.059" height="16.04" viewBox="0 0 20.059 16.04">
  <g id="karaoke_1_" data-name="karaoke (1)" transform="translate(0.001 -11.227)">
    <g id="Group_2059" data-name="Group 2059" transform="translate(-0.001 11.227)">
      <g id="Group_2058" data-name="Group 2058">
        <path id="Path_2650" data-name="Path 2650" d="M19.724,104.4h-1V102.4a.334.334,0,0,0-.334-.334H17.05V98.388a1.337,1.337,0,1,0-2.673,0v.9a1.646,1.646,0,0,0-2.131.1,2.3,2.3,0,0,0-3.171.073l-.028.028-.017.018V97.386a1.337,1.337,0,1,0-2.673,0v4.678H5.508a3.008,3.008,0,1,0,0,3.342h.859a.32.32,0,0,0-.01.05,5.4,5.4,0,0,0,1.3,3.514l.332.386a5.388,5.388,0,0,0,1.1.978l1.276.85v.571a.334.334,0,0,0,.668,0v-.75a.334.334,0,0,0-.149-.278l-1.424-.949a4.712,4.712,0,0,1-.967-.857l-.332-.387a4.735,4.735,0,0,1-1.139-3.079.32.32,0,0,0-.01-.05H8.027v.535a6.829,6.829,0,0,0,.352,2.165.335.335,0,1,0,.635-.211,6.173,6.173,0,0,1-.318-1.954v-.535a.673.673,0,0,1,.2-.473.684.684,0,0,1,.945,0,.673.673,0,0,1,.2.473v1.255a.334.334,0,0,0,.167.29l1.61.92a2.44,2.44,0,0,1,1.23,2.118v.682a.334.334,0,1,0,.668,0v-.682a3.1,3.1,0,0,0-1.566-2.7l-1.442-.824v-1.062h5.681v2.12a4.2,4.2,0,0,1-1.239,2.991.334.334,0,0,0-.1.236v1a.334.334,0,0,0,.668,0v-.867a4.863,4.863,0,0,0,1.337-3.363v-2.12h1.337a.334.334,0,0,0,.334-.334h1a.334.334,0,0,0,0-.668ZM2.681,106.048a2.336,2.336,0,0,1,0-4.625ZM5,104.979a2.348,2.348,0,0,1-1.647,1.069v-4.626A2.348,2.348,0,0,1,5,102.492Zm10.049-6.591a.673.673,0,0,1,.2-.473.684.684,0,0,1,.945,0,.673.673,0,0,1,.2.473v3.676H15.045V98.388ZM14.083,99.9a1.008,1.008,0,0,1,.294.709v2.12a.673.673,0,0,1-.2.473.684.684,0,0,1-.945,0,.673.673,0,0,1-.2-.473v-1.59a2.321,2.321,0,0,0-.363-1.249A1.026,1.026,0,0,1,14.083,99.9ZM9.03,101.143a1.66,1.66,0,0,1,.489-1.181l.028-.028a1.634,1.634,0,0,1,2.306,0l.028.029a1.659,1.659,0,0,1,.491,1.18v1.59a.673.673,0,0,1-.2.473.684.684,0,0,1-.945,0,.673.673,0,0,1-.2-.473V100.98a.334.334,0,1,0-.668,0v1.084H9.03v-.921ZM7.025,97.386a.673.673,0,0,1,.2-.473.684.684,0,0,1,.945,0,.673.673,0,0,1,.2.473v4.678H7.025V97.386Zm11.028,7.352H10.516a1.32,1.32,0,0,0-2.3,0H5.688v-2.005h4.678a1.337,1.337,0,0,0,2.282.945c.022-.022.037-.047.057-.07.02.023.036.048.057.07a1.337,1.337,0,0,0,2.282-.945h3.008v2.005Z" transform="translate(0.001 -96.049)" fill="#444"/>
      </g>
    </g>
  </g>
</svg>
