<svg xmlns="http://www.w3.org/2000/svg" xmlns:xlink="http://www.w3.org/1999/xlink" width="40" height="40" viewBox="0 0 40 40">
  <defs>
    <style>
      .cls-1 {
        fill: #fff;
      }

      .cls-2 {
        clip-path: url(#clip-path);
      }

      .cls-3 {
        fill: #444;
      }
    </style>
    <clipPath id="clip-path">
      <path id="Path_2907" data-name="Path 2907" class="cls-1" d="M0,0H40V40H0Z" transform="translate(43 524)"/>
    </clipPath>
  </defs>
  <g id="Mask_Group_47" data-name="Mask Group 47" class="cls-2" transform="translate(-43 -524)">
    <g id="karaoke_1_" data-name="karaoke (1)" transform="translate(49.217 532.876)">
      <g id="Group_2059" data-name="Group 2059">
        <g id="Group_2058" data-name="Group 2058">
          <path id="Path_2650" data-name="Path 2650" class="cls-3" d="M27.207,107.573H25.824v-2.766a.461.461,0,0,0-.461-.461H23.52V99.276a1.844,1.844,0,1,0-3.688,0v1.236a2.27,2.27,0,0,0-2.939.142,3.174,3.174,0,0,0-4.375.1l-.039.039-.023.025V97.893a1.844,1.844,0,1,0-3.688,0v6.453H7.6a4.149,4.149,0,1,0,0,4.61H8.782a.441.441,0,0,0-.014.069,7.454,7.454,0,0,0,1.793,4.847l.457.533a7.433,7.433,0,0,0,1.521,1.349l1.76,1.173v.787a.461.461,0,1,0,.922,0V116.68a.461.461,0,0,0-.205-.383l-1.965-1.31a6.5,6.5,0,0,1-1.334-1.182l-.457-.533a6.531,6.531,0,0,1-1.571-4.247.441.441,0,0,0-.014-.069h1.4v.738a9.42,9.42,0,0,0,.485,2.986.462.462,0,1,0,.876-.291A8.515,8.515,0,0,1,12,109.694v-.738a.929.929,0,0,1,.27-.652.944.944,0,0,1,1.3,0,.929.929,0,0,1,.27.652v1.732a.461.461,0,0,0,.23.4l2.221,1.269a3.365,3.365,0,0,1,1.7,2.922v.94a.461.461,0,0,0,.922,0v-.94a4.282,4.282,0,0,0-2.16-3.722l-1.989-1.137v-1.464H22.6v2.924a5.794,5.794,0,0,1-1.709,4.126.461.461,0,0,0-.135.326v1.383a.461.461,0,1,0,.922,0v-1.2a6.708,6.708,0,0,0,1.844-4.639v-2.924h1.844a.461.461,0,0,0,.461-.461h1.383a.461.461,0,1,0,0-.922ZM3.7,109.841a3.222,3.222,0,0,1,0-6.38Zm3.194-1.474a3.238,3.238,0,0,1-2.273,1.475v-6.381a3.238,3.238,0,0,1,2.273,1.475Zm13.861-9.091a.929.929,0,0,1,.27-.652.944.944,0,0,1,1.3,0,.929.929,0,0,1,.27.652v5.071H20.754Zm-1.327,2.091a1.39,1.39,0,0,1,.405.978v2.924a.929.929,0,0,1-.27.652.944.944,0,0,1-1.3,0,.929.929,0,0,1-.27-.652v-2.193a3.2,3.2,0,0,0-.5-1.723A1.415,1.415,0,0,1,19.427,101.367Zm-6.97,1.709a2.289,2.289,0,0,1,.674-1.629l.039-.039a2.254,2.254,0,0,1,3.181,0l.039.04a2.289,2.289,0,0,1,.677,1.628v2.193a.929.929,0,0,1-.27.652.944.944,0,0,1-1.3,0,.929.929,0,0,1-.27-.652v-2.417a.461.461,0,1,0-.922,0v1.495H12.456v-1.271ZM9.691,97.893a.929.929,0,0,1,.27-.652.944.944,0,0,1,1.3,0,.929.929,0,0,1,.27.652v6.453H9.691V97.893ZM24.9,108.034h-10.4a1.821,1.821,0,0,0-3.178,0H7.847v-2.766H14.3a1.844,1.844,0,0,0,3.147,1.3c.03-.03.052-.065.079-.1.028.031.049.066.079.1a1.844,1.844,0,0,0,3.147-1.3H24.9Z" transform="translate(0.001 -96.049)"/>
        </g>
      </g>
    </g>
  </g>
</svg>
