<svg xmlns="http://www.w3.org/2000/svg" width="36.699" height="31.092" viewBox="0 0 36.699 31.092">
  <g id="Group_2800" data-name="Group 2800" transform="translate(-425 -1145.883)">
    <g id="Group_2344" data-name="Group 2344" transform="translate(452.454 1166.889)">
      <g id="Group_2070" data-name="Group 2070" transform="translate(0 0)">
        <path id="Path_2669" data-name="Path 2669" d="M362.175,323.547a.905.905,0,1,1,1.088-.887h1.088a1.883,1.883,0,0,0-1.631-1.71V320h-1.088v.95A1.883,1.883,0,0,0,360,322.66a2.008,2.008,0,0,0,2.175,1.773.905.905,0,1,1-1.088.887H360a1.883,1.883,0,0,0,1.631,1.71v.95h1.088v-.95a1.882,1.882,0,0,0,1.631-1.71A2.007,2.007,0,0,0,362.175,323.547Z" transform="translate(-360 -320)" fill="#444"/>
      </g>
    </g>
    <g id="noun_portfolio_2565963" transform="translate(425 1145.883)">
      <g id="Group_2062" data-name="Group 2062" transform="translate(0 0)">
        <g id="Group_2059" data-name="Group 2059">
          <path id="Path_2666" data-name="Path 2666" d="M39.7,10.7a1.646,1.646,0,0,0-1.72-1.555H28.77A5.006,5.006,0,0,0,23.643,5H19.056a5.006,5.006,0,0,0-5.127,4.147H4.72A1.646,1.646,0,0,0,3,10.7V29.355a1.646,1.646,0,0,0,1.72,1.555h21.32a6.721,6.721,0,0,0,6.777,5.182c3.794,0,6.881-2.789,6.881-6.218,0-.114-.014-.227-.021-.34a1.1,1.1,0,0,0,.021-.178ZM19.056,6.035h4.587a3.912,3.912,0,0,1,3.973,3.109H15.083A3.912,3.912,0,0,1,19.056,6.035Zm19.5,7.17-3.346-3.024h2.773C38.952,10.182,38.41,11.528,38.552,13.206ZM7.35,10.182l-3.2,2.895V10.7C4.147,9.825,5.621,10.307,7.35,10.182ZM4.72,29.873c-.945,0-.444-1.288-.573-2.592h6.56a.521.521,0,1,0,0-1.036H4.147V24.69h6.56a.521.521,0,1,0,0-1.036H4.147V14.506c.2-.108-.3.286,4.825-4.324H33.585c4.959,4.434,4.65,4.3,4.968,4.379v11.87c-3.7-5.059-12.615-2.767-12.615,3.442H4.72Zm28.1,5.182c-3.44,0-6.1-2.746-5.7-5.759.69-5.734,9.745-6.254,11.262-.666l.016.067a4.552,4.552,0,0,1,.152,1.177A5.485,5.485,0,0,1,32.818,35.055Z" transform="translate(-3 -4.999)" fill="#444"/>
        </g>
      </g>
    </g>
  </g>
</svg>
