<svg xmlns="http://www.w3.org/2000/svg" width="58.138" height="54.51" viewBox="0 0 58.138 54.51">
  <g id="Group_2795" data-name="Group 2795" transform="translate(-24 -440)">
    <g id="noun_portfolio_2565963" transform="translate(24 440)">
      <g id="Group_2062" data-name="Group 2062" transform="translate(0 0)">
        <g id="Group_2059" data-name="Group 2059">
          <path id="Path_2666" data-name="Path 2666" d="M61.138,14.994a2.728,2.728,0,0,0-2.725-2.725H43.825A8.185,8.185,0,0,0,35.7,5H28.435a8.185,8.185,0,0,0-8.122,7.27H5.725A2.728,2.728,0,0,0,3,14.994V47.7a2.728,2.728,0,0,0,2.725,2.725H39.5a10.894,10.894,0,0,0,21.638-1.817c0-.2-.022-.4-.033-.6a2.123,2.123,0,0,0,.033-.312Zm-32.7-8.178H35.7A6.369,6.369,0,0,1,42,12.267H22.141A6.369,6.369,0,0,1,28.435,6.816ZM59.321,19.387l-5.3-5.3h4.392C59.954,14.085,59.095,16.445,59.321,19.387Zm-49.43-5.3L4.817,19.161V14.994C4.817,13.46,7.153,14.305,9.891,14.085ZM5.725,48.607c-1.5,0-.7-2.258-.908-4.544H15.209a.908.908,0,0,0,0-1.817H4.817V39.521H15.209a.908.908,0,0,0,0-1.817H4.817V21.666c.322-.189-.478.5,7.643-7.581H51.452c7.856,7.774,7.367,7.547,7.87,7.677v20.81c-5.858-8.868-19.985-4.85-19.985,6.034H5.725Zm44.512,9.085a9.088,9.088,0,0,1-9.022-10.1c1.094-10.052,15.438-10.965,17.84-1.168l.025.117a8.785,8.785,0,0,1,.241,2.063A9.1,9.1,0,0,1,50.237,57.692Z" transform="translate(-3 -4.999)" fill="#444"/>
        </g>
      </g>
    </g>
    <g id="Group_2344" data-name="Group 2344" transform="translate(67.492 476.826)">
      <g id="Group_2070" data-name="Group 2070">
        <path id="Path_2669" data-name="Path 2669" d="M363.446,326.218a1.563,1.563,0,1,1,1.723-1.555h1.723a3.184,3.184,0,0,0-2.584-3V320h-1.723v1.665a3.184,3.184,0,0,0-2.584,3,3.294,3.294,0,0,0,3.446,3.109,1.563,1.563,0,1,1-1.723,1.555H360a3.184,3.184,0,0,0,2.584,3v1.665h1.723v-1.665a3.184,3.184,0,0,0,2.584-3A3.294,3.294,0,0,0,363.446,326.218Z" transform="translate(-360 -320)" fill="#444"/>
      </g>
    </g>
  </g>
</svg>
