<svg xmlns="http://www.w3.org/2000/svg" width="51.879" height="51.34" viewBox="0 0 51.879 51.34">
  <defs>
    <style>
      .cls-1 {
        fill: #1cea2c;
      }

      .cls-2 {
        fill: #fff;
      }
    </style>
  </defs>
  <g id="Group_2777" data-name="Group 2777" transform="translate(-631.15 -541.9)">
    <path id="Path_2719" data-name="Path 2719" class="cls-1" d="M25.67,0A25.806,25.806,0,0,1,51.34,25.939,25.806,25.806,0,0,1,25.67,51.879,25.806,25.806,0,0,1,0,25.939,25.806,25.806,0,0,1,25.67,0Z" transform="translate(631.15 593.24) rotate(-90)"/>
    <g id="upper-right-arrow-black-symbol" transform="translate(644.449 616.453) rotate(-45)">
      <g id="Group_26" data-name="Group 26" transform="translate(31.887 -31.584)">
        <path id="Path_34" data-name="Path 34" class="cls-2" d="M17.486.253.266,4.918c-.261.071-.265.2-.01.3l8.924,3.3a1.19,1.19,0,0,1,.625.634l3.068,8.673c.091.256.221.252.292-.008L17.83.6C17.9.336,17.747.182,17.486.253Z" transform="translate(-0.067 -0.236)"/>
      </g>
    </g>
  </g>
</svg>
