<svg xmlns="http://www.w3.org/2000/svg" width="32.928" height="23.795" viewBox="0 0 32.928 23.795">
  <defs>
    <style>
      .cls-1 {
        fill: #444;
      }
    </style>
  </defs>
  <g id="karaoke_1_" data-name="karaoke (1)" transform="translate(-1 6.881)">
    <g id="Group_2059" data-name="Group 2059" transform="translate(1 -6.881)">
      <g id="Group_2058" data-name="Group 2058">
        <path id="Path_2650" data-name="Path 2650" class="cls-1" d="M32.378,108.442H30.733v-2.974a.524.524,0,0,0-.549-.5H27.99V99.519a2.206,2.206,0,0,0-4.389,0v1.329a2.923,2.923,0,0,0-3.5.153,4.074,4.074,0,0,0-5.206.109l-.046.042-.027.027V98.032a2.1,2.1,0,0,0-2.194-1.983,2.1,2.1,0,0,0-2.194,1.983v6.94H9.042a5.27,5.27,0,0,0-6.848-1.231,4.2,4.2,0,0,0-1.362,6.188,5.27,5.27,0,0,0,6.848,1.231,4.729,4.729,0,0,0,1.362-1.231h1.41a.435.435,0,0,0-.016.074,7.576,7.576,0,0,0,2.133,5.213l.544.573a8.627,8.627,0,0,0,1.81,1.451l2.095,1.261v.847a.551.551,0,0,0,1.1,0v-1.112a.485.485,0,0,0-.244-.412l-2.338-1.408a7.543,7.543,0,0,1-1.587-1.271l-.544-.574A6.639,6.639,0,0,1,11.533,110a.435.435,0,0,0-.016-.074h1.662v.793a9.247,9.247,0,0,0,.577,3.211.564.564,0,0,0,.694.314.487.487,0,0,0,.348-.628,8.359,8.359,0,0,1-.522-2.9v-.793a.953.953,0,0,1,.321-.7,1.211,1.211,0,0,1,1.551,0,.953.953,0,0,1,.321.7v1.862a.489.489,0,0,0,.274.43l2.643,1.365a3.574,3.574,0,0,1,2.02,3.142v1.011a.551.551,0,0,0,1.1,0v-1.011a4.547,4.547,0,0,0-2.571-4L17.567,111.5v-1.575h9.326v3.144a5.944,5.944,0,0,1-2.034,4.437.473.473,0,0,0-.161.35v1.487a.551.551,0,0,0,1.1,0v-1.286a6.856,6.856,0,0,0,2.194-4.989v-3.144h2.194a.524.524,0,0,0,.549-.5h1.646a.5.5,0,1,0,0-.991ZM4.4,110.881a3.433,3.433,0,0,1,0-6.861ZM8.2,109.3a3.9,3.9,0,0,1-2.7,1.586V104.02a3.9,3.9,0,0,1,2.7,1.586Zm16.5-9.777a.952.952,0,0,1,.321-.7,1.211,1.211,0,0,1,1.551,0,.952.952,0,0,1,.321.7v5.453H24.7Zm-1.579,2.249a1.426,1.426,0,0,1,.482,1.051v3.144a.953.953,0,0,1-.321.7,1.211,1.211,0,0,1-1.551,0,.953.953,0,0,1-.321-.7v-2.358a3.2,3.2,0,0,0-.6-1.853A1.817,1.817,0,0,1,23.119,101.768Zm-8.295,1.838a2.348,2.348,0,0,1,.8-1.752l.046-.042a2.889,2.889,0,0,1,3.785,0l.047.043a2.348,2.348,0,0,1,.806,1.75v2.358a.953.953,0,0,1-.321.7,1.211,1.211,0,0,1-1.551,0,.953.953,0,0,1-.321-.7v-2.6a.551.551,0,0,0-1.1,0v1.608H14.824v-1.367Zm-3.291-5.574a.953.953,0,0,1,.321-.7,1.211,1.211,0,0,1,1.551,0,.953.953,0,0,1,.321.7v6.94H11.533v-6.94Zm18.1,10.906H17.263a2.024,2.024,0,0,0-.34-.41,2.363,2.363,0,0,0-3.1,0,2.024,2.024,0,0,0-.34.41H9.338v-2.974h7.68a2.1,2.1,0,0,0,2.195,1.983,2.319,2.319,0,0,0,1.551-.581c.036-.032.061-.07.094-.1.033.034.059.071.094.1a2.363,2.363,0,0,0,3.1,0,1.891,1.891,0,0,0,.642-1.4h4.937v2.974Z" transform="translate(0.001 -96.049)"/>
      </g>
    </g>
  </g>
</svg>
