<svg id="envelope" xmlns="http://www.w3.org/2000/svg" width="59.858" height="45.553" viewBox="0 0 59.858 45.553">
  <g id="Group_1707" data-name="Group 1707">
    <path id="Path_1719" data-name="Path 1719" d="M52.55,57.75H7.32A7.326,7.326,0,0,0,0,65.07V95.983a7.326,7.326,0,0,0,7.32,7.32H52.538a7.326,7.326,0,0,0,7.32-7.32v-30.9A7.318,7.318,0,0,0,52.55,57.75Zm3.976,38.233a3.98,3.98,0,0,1-3.976,3.976H7.32a3.98,3.98,0,0,1-3.976-3.976v-30.9A3.98,3.98,0,0,1,7.32,61.106H52.538a3.98,3.98,0,0,1,3.976,3.976v30.9Z" transform="translate(0 -57.75)"/>
    <path id="Path_1720" data-name="Path 1720" d="M86.6,124.959l14.639-13.128a1.675,1.675,0,1,0-2.242-2.489l-20.188,18.12-3.939-3.517c-.012-.012-.025-.025-.025-.037a2.476,2.476,0,0,0-.272-.235L58.545,109.329a1.675,1.675,0,1,0-2.229,2.5l14.813,13.24L56.378,138.88a1.679,1.679,0,0,0-.074,2.366,1.711,1.711,0,0,0,1.226.533,1.676,1.676,0,0,0,1.139-.446l14.974-14.008,4.062,3.629a1.668,1.668,0,0,0,2.229-.012l4.174-3.74,14.887,14.144a1.676,1.676,0,0,0,2.366-.062,1.679,1.679,0,0,0-.062-2.366Z" transform="translate(-48.847 -102.567)"/>
  </g>
</svg>
