<svg xmlns="http://www.w3.org/2000/svg" width="55.359" height="40.474" viewBox="0 0 55.359 40.474">
  <g id="add" transform="translate(-7 -74)">
    <path id="Path_2564" data-name="Path 2564" d="M176.868,153.334a4.8,4.8,0,1,0-4.8-4.8,4.8,4.8,0,0,0,4.8,4.8Zm0-7.816a3.02,3.02,0,1,1-3.02,3.02A3.02,3.02,0,0,1,176.868,145.517Z" transform="translate(-146.735 -61.994)" fill="#b8b8b8"/>
    <path id="Path_2565" data-name="Path 2565" d="M371.33,299.776h-3.888v-3.888a.889.889,0,0,0-1.777,0v3.888h-3.777a.889.889,0,0,0,0,1.777h3.777v3.777a.889.889,0,1,0,1.777,0v-3.777h3.888a.889.889,0,0,0,0-1.777Z" transform="translate(-314.678 -196.452)" fill="#b8b8b8"/>
    <path id="Path_2566" data-name="Path 2566" d="M58.652,96.119V79.3A5.336,5.336,0,0,0,53.291,74H12.3A5.288,5.288,0,0,0,7,79.3v26.782a5.33,5.33,0,0,0,5.3,5.351H44.616a10.4,10.4,0,0,0,17.743-7.351A10.537,10.537,0,0,0,58.652,96.119ZM12.3,75.777H53.291A3.557,3.557,0,0,1,56.874,79.3V94.916a10.339,10.339,0,0,0-4.9-1.224,10.562,10.562,0,0,0-1.162.065l-7.445-5.271a.891.891,0,0,0-1.138.091L32.2,98.437,20.535,92.754a.862.862,0,0,0-.822.03L8.777,99.135V79.3A3.509,3.509,0,0,1,12.3,75.777ZM8.777,106.083V101.19L20.2,94.559l10.662,5.209L20.8,109.656H12.3a3.552,3.552,0,0,1-3.527-3.574Zm14.558,3.574L42.943,90.375,48.484,94.3a10.394,10.394,0,0,0-5.293,15.36Zm28.624,3.03a8.609,8.609,0,1,1,8.609-8.608A8.609,8.609,0,0,1,51.959,112.686Z" transform="translate(0 0)" fill="#b8b8b8"/>
  </g>
</svg>
