<svg xmlns="http://www.w3.org/2000/svg" xmlns:xlink="http://www.w3.org/1999/xlink" width="66.643" height="66.642" viewBox="0 0 66.643 66.642">
  <defs>
    <style>
      .cls-1 {
        fill: url(#linear-gradient);
      }
    </style>
    <linearGradient id="linear-gradient" x1="0.5" x2="0.5" y2="1" gradientUnits="objectBoundingBox">
      <stop offset="0" stop-color="#00ffed"/>
      <stop offset="1" stop-color="#00b8ba"/>
    </linearGradient>
  </defs>
  <g id="Group_2876" data-name="Group 2876" transform="translate(-1032 -428.358)">
    <g id="check_x5F_alt" transform="translate(1032 428.358)">
      <path id="Path_907" data-name="Path 907" class="cls-1" d="M33.323,0A33.321,33.321,0,1,0,66.642,33.32,33.322,33.322,0,0,0,33.323,0ZM20.538,41.368l-7.711-8.006,7.711,8.006h2.894L48.184,16.876,23.432,41.368Z" transform="translate(0.001 0)"/>
    </g>
    <g id="Group_2827" data-name="Group 2827" transform="translate(1053.062 436.028)">
      <g id="Group_90" data-name="Group 90">
        <g id="Group_89" data-name="Group 89" transform="translate(12.181 46.954)">
          <path id="Path_83" data-name="Path 83" d="M26.709,364.672" transform="translate(-26.709 -364.672)"/>
        </g>
        <path id="Path_84" data-name="Path 84" d="M42.622,355.508v-.752a1.414,1.414,0,0,0-.193-.713,7.663,7.663,0,0,0-1.97-3.54,10,10,0,0,0-7.085-2.943H31.1a3.437,3.437,0,0,1-3.445-2.747,3.31,3.31,0,0,1,3.259-3.864,3.259,3.259,0,0,1,.336.016,3.291,3.291,0,0,1,2.951,3.27,1.44,1.44,0,1,0,2.88.018,6.172,6.172,0,0,0-5.85-6.158,6.451,6.451,0,0,0-.966.024,6.168,6.168,0,0,0,.65,12.3h2.464a7.188,7.188,0,0,1,5.026,2.069,4.629,4.629,0,0,1,1.36,3.03v12.6H37.72a1.432,1.432,0,0,0-1.432,1.432v10.2a3.424,3.424,0,0,1-3.423,3.424H29.338a3.424,3.424,0,0,1-3.423-3.424v-10.2a1.431,1.431,0,0,0-1.432-1.432H22.058V354.574a1.473,1.473,0,0,1,1.626-1.433,1.431,1.431,0,0,0-.011-2.862,4.48,4.48,0,0,0-4.477,4.477v14.8a1.43,1.43,0,0,0,1.43,1.43h2.427v10.2a4.854,4.854,0,0,0,4.854,4.854H34.3a4.855,4.855,0,0,0,4.854-4.854v-10.2H41.19a1.431,1.431,0,0,0,1.432-1.43V355.834Q42.624,355.671,42.622,355.508Z" transform="translate(-19.196 -334.237)"/>
        <path id="Path_85" data-name="Path 85" d="M39.686,343.337a9.034,9.034,0,0,0-8.922-7.624l-.052,0-.053,0a9.034,9.034,0,0,0-8.922,7.624,2.779,2.779,0,0,0-2.02,2.461c0,1.509,1.592,2.734,3.557,2.734v-5.466h0a7.579,7.579,0,0,1,7.387-5.9l.053,0,.052,0a7.579,7.579,0,0,1,7.387,5.9h0v5.466c1.965,0,3.557-1.224,3.557-2.734A2.779,2.779,0,0,0,39.686,343.337Z" transform="translate(-18.873 -335.713)"/>
      </g>
      <g id="Group_91" data-name="Group 91" transform="translate(7.726 19.179)">
        <path id="Path_86" data-name="Path 86" d="M31.711,356.014a2.992,2.992,0,0,1,.169.579,3.748,3.748,0,0,1,.055.675c0,.086,0,.175-.008.266s-.013.18-.023.264a3.075,3.075,0,0,1-1.127,2.01,3.8,3.8,0,0,1-1.719.772,1.407,1.407,0,0,0-.146.169.291.291,0,0,0-.063.169v.563a.88.88,0,0,1-.258.636.841.841,0,0,1-.627.264.889.889,0,0,1-.642-.264.852.852,0,0,1-.274-.636V360.9a.432.432,0,0,0-.144-.337,5.285,5.285,0,0,1-.965-.354,3.86,3.86,0,0,1-.867-.579,3.3,3.3,0,0,1-.82-1.077,2.806,2.806,0,0,1-.29-1.206v-.274a1.022,1.022,0,0,1,.315-.747,1,1,0,0,1,.731-.313.986.986,0,0,1,.747.313,1.051,1.051,0,0,1,.3.747v.146a1.228,1.228,0,0,0,.162.449v-.016c.054.1.107.185.161.266a.759.759,0,0,0,.193.2,2.94,2.94,0,0,0,.538.329,1.9,1.9,0,0,0,.827.152,3.066,3.066,0,0,0,.973-.128,1.608,1.608,0,0,0,.579-.313,1.125,1.125,0,0,0,.282-.37,1.267,1.267,0,0,0,.1-.282,1.161,1.161,0,0,0-.417-1.069,2.728,2.728,0,0,0-.7-.434,9.515,9.515,0,0,0-1.117-.41,6.713,6.713,0,0,1-1.929-.932,3.473,3.473,0,0,1-.965-1.109,2.829,2.829,0,0,1-.289-1.655,3.373,3.373,0,0,1,.345-1.013,2.594,2.594,0,0,1,.7-.82h.032a3.881,3.881,0,0,1,1.351-.611.422.422,0,0,0,.177-.337v-.658a.933.933,0,0,1,.916-.916.831.831,0,0,1,.627.272.909.909,0,0,1,.258.644v.691a.307.307,0,0,0,.071.177,1.637,1.637,0,0,0,.152.177,5.871,5.871,0,0,1,.692.29,2.856,2.856,0,0,1,.626.433h-.031l.079.049a3.309,3.309,0,0,1,.715.948,2.335,2.335,0,0,1,.266,1.062,1,1,0,0,1-.313.739,1.041,1.041,0,0,1-1.777-.739.522.522,0,0,0-.079-.242,1.064,1.064,0,0,0-.258-.29,1.668,1.668,0,0,0-1.062-.353,1.925,1.925,0,0,0-1.156.337.844.844,0,0,0-.2.242.768.768,0,0,0-.073.193.63.63,0,0,0,.1.483,1.588,1.588,0,0,0,.41.4,3.272,3.272,0,0,0,.587.313c.221.091.431.169.636.234q.627.192,1.31.457a4.436,4.436,0,0,1,1.214.7,3.2,3.2,0,0,1,.563.577A3.137,3.137,0,0,1,31.711,356.014Z" transform="translate(-23.961 -347.542)"/>
      </g>
    </g>
  </g>
</svg>
