<?xml version="1.0" standalone="no"?>
<!DOCTYPE svg PUBLIC "-//W3C//DTD SVG 20010904//EN"
 "http://www.w3.org/TR/2001/REC-SVG-20010904/DTD/svg10.dtd">
<svg version="1.0" xmlns="http://www.w3.org/2000/svg"
 width="167.000000pt" height="167.000000pt" viewBox="0 0 167.000000 167.000000"
 preserveAspectRatio="xMidYMid meet">

<g transform="translate(0.000000,167.000000) scale(0.100000,-0.100000)"
fill="#000000" stroke="none">
<path d="M725 1630 c-319 -46 -580 -280 -666 -595 -26 -95 -31 -278 -10 -365
79 -334 299 -554 631 -632 80 -18 261 -15 344 6 295 76 506 276 592 561 23 79
27 107 27 225 0 118 -4 146 -27 225 -83 274 -281 471 -552 550 -97 28 -243 39
-339 25z m308 -69 c94 -24 97 -45 7 -49 -35 -2 -70 -8 -76 -13 -22 -18 -65
-110 -62 -132 5 -35 78 -53 155 -37 45 9 71 9 91 2 31 -12 102 -29 152 -36 25
-4 44 0 65 14 17 11 33 20 37 20 14 0 78 -94 70 -102 -4 -4 -33 -17 -63 -28
-49 -17 -64 -18 -128 -8 -68 10 -75 13 -93 45 -28 46 -45 53 -138 53 l-81 0
-52 -49 -51 -48 13 -89 c18 -135 15 -128 73 -153 29 -13 73 -32 98 -43 43 -20
89 -20 145 -3 13 4 30 -1 48 -15 22 -18 27 -29 27 -68 0 -37 12 -71 55 -156
47 -94 55 -118 55 -166 0 -49 4 -60 30 -85 17 -16 30 -34 30 -39 -1 -16 -76
-94 -137 -142 -67 -53 -181 -109 -274 -135 -103 -29 -275 -29 -379 0 -217 60
-387 200 -485 399 -57 116 -79 210 -78 342 1 100 15 190 31 190 4 0 13 -13 19
-29 6 -18 35 -45 77 -73 61 -42 65 -46 51 -64 -8 -11 -14 -41 -14 -74 0 -72
50 -173 89 -178 14 -2 42 -8 62 -13 l37 -9 3 -143 c2 -105 7 -151 19 -177 9
-19 20 -43 23 -53 6 -20 79 -56 114 -57 21 0 22 4 22 69 l0 69 48 38 c59 48
62 52 62 93 0 28 10 45 54 91 40 42 56 67 61 96 4 21 11 54 15 72 14 53 5 62
-59 62 l-57 0 -37 65 -38 65 -87 0 c-48 0 -92 4 -98 8 -6 4 -21 26 -33 50 -26
50 -45 61 -70 38 -24 -22 -31 -20 -31 7 0 13 -11 34 -25 47 -24 23 -34 64 -17
74 5 3 43 9 84 14 61 8 90 18 148 52 60 35 79 53 115 110 35 53 53 71 85 84
42 17 56 39 67 102 6 37 2 39 -92 50 -97 11 -126 35 -57 49 140 28 253 27 375
-4z m-454 -58 c13 -9 53 -22 90 -30 36 -7 70 -18 75 -23 13 -13 -6 -32 -47
-46 -21 -7 -43 -27 -64 -60 -55 -86 -62 -93 -131 -133 -51 -30 -82 -41 -132
-46 -125 -13 -120 -10 -120 -74 0 -45 5 -62 25 -85 24 -28 34 -66 18 -66 -5 0
-30 17 -58 38 -40 30 -53 48 -68 94 l-19 57 28 57 c24 49 98 150 139 189 58
56 196 145 225 145 9 0 26 -7 39 -17z m650 -25 c20 -12 56 -38 81 -57 25 -19
47 -36 49 -38 2 -1 -2 -10 -10 -19 -17 -20 -95 -14 -182 14 -53 18 -62 18
-105 5 -55 -16 -92 -10 -92 15 1 34 25 52 71 52 25 1 65 11 94 25 28 13 52 24
54 24 2 1 20 -9 40 -21z m-79 -282 c16 -28 30 -37 68 -45 112 -24 144 -23 220
3 l73 25 24 -53 c62 -141 78 -339 37 -483 -22 -76 -76 -198 -93 -209 -6 -3
-19 2 -30 12 -14 13 -19 30 -19 72 0 47 -8 71 -55 164 -47 93 -55 116 -55 166
-1 57 -1 57 -46 85 -50 30 -69 32 -124 16 -40 -12 -59 -7 -165 46 -39 20 -40
22 -52 95 l-12 75 31 32 c30 31 36 33 104 33 72 0 73 0 94 -34z m-726 -320
c19 -41 36 -48 119 -46 34 1 69 1 79 1 9 -1 33 -29 54 -66 37 -63 39 -65 79
-65 23 0 44 -2 47 -5 3 -3 2 -24 -2 -46 -6 -31 -21 -55 -64 -98 -50 -50 -56
-61 -56 -98 0 -38 -4 -44 -54 -82 -52 -39 -55 -43 -58 -91 -2 -28 -7 -51 -13
-53 -5 -1 -21 21 -35 48 -23 45 -25 65 -30 204 l-5 155 -68 16 c-64 14 -69 18
-92 59 -38 66 -33 97 22 153 26 26 50 48 54 48 4 0 14 -15 23 -34z"/>
</g>
</svg>
