<?xml version="1.0" standalone="no"?>
<!DOCTYPE svg PUBLIC "-//W3C//DTD SVG 1.0//EN" "http://www.w3.org/TR/2001/REC-SVG-20010904/DTD/svg10.dtd">
<svg xmlns="http://www.w3.org/2000/svg" xmlns:xlink="http://www.w3.org/1999/xlink" id="body_1" width="223" height="223">

<g transform="matrix(1.3353293 0 0 1.3353293 -0 2.0375508E-05)">
	<g transform="matrix(0.1 0 -0 -0.1 0 167)">
        <path d="M725 1630C 406 1584 145 1350 59 1035C 33 940 28 757 49 670C 128 336 348 116 680 38C 760 20 941 23 1024 44C 1319 120 1530 320 1616 605C 1639 684 1643 712 1643 830C 1643 948 1639 976 1616 1055C 1533 1329 1335 1526 1064 1605C 967 1633 821 1644 725 1630zM1033 1561C 1127 1537 1130 1516 1040 1512C 1005 1510 970 1504 964 1499C 942 1481 899 1389 902 1367C 907 1332 980 1314 1057 1330C 1102 1339 1128 1339 1148 1332C 1179 1320 1250 1303 1300 1296C 1325 1292 1344 1296 1365 1310C 1382 1321 1398 1330 1402 1330C 1416 1330 1480 1236 1472 1228C 1468 1224 1439 1211 1409 1200C 1360 1183 1345 1182 1281 1192C 1213 1202 1206 1205 1188 1237C 1160 1283 1143 1290 1050 1290L1050 1290L969 1290L917 1241L866 1193L879 1104C 897 969 894 976 952 951C 981 938 1025 919 1050 908C 1093 888 1139 888 1195 905C 1208 909 1225 904 1243 890C 1265 872 1270 861 1270 822C 1270 785 1282 751 1325 666C 1372 572 1380 548 1380 500C 1380 451 1384 440 1410 415C 1427 399 1440 381 1440 376C 1439 360 1364 282 1303 234C 1236 181 1122 125 1029 99C 926 70 754 70 650 99C 433 159 263 299 165 498C 108 614 86 708 87 840C 88 940 102 1030 118 1030C 122 1030 131 1017 137 1001C 143 983 172 956 214 928C 275 886 279 882 265 864C 257 853 251 823 251 790C 251 718 301 617 340 612C 354 610 382 604 402 599L402 599L439 590L442 447C 444 342 449 296 461 270C 470 251 481 227 484 217C 490 197 563 161 598 160C 619 160 620 164 620 229L620 229L620 298L668 336C 727 384 730 388 730 429C 730 457 740 474 784 520C 824 562 840 587 845 616C 849 637 856 670 860 688C 874 741 865 750 801 750L801 750L744 750L707 815L669 880L582 880C 534 880 490 884 484 888C 478 892 463 914 451 938C 425 988 406 999 381 976C 357 954 350 956 350 983C 350 996 339 1017 325 1030C 301 1053 291 1094 308 1104C 313 1107 351 1113 392 1118C 453 1126 482 1136 540 1170C 600 1205 619 1223 655 1280C 690 1333 708 1351 740 1364C 782 1381 796 1403 807 1466C 813 1503 809 1505 715 1516C 618 1527 589 1551 658 1565C 798 1593 911 1592 1033 1561zM579 1503C 592 1494 632 1481 669 1473C 705 1466 739 1455 744 1450C 757 1437 738 1418 697 1404C 676 1397 654 1377 633 1344C 578 1258 571 1251 502 1211C 451 1181 420 1170 370 1165C 245 1152 250 1155 250 1091C 250 1046 255 1029 275 1006C 299 978 309 940 293 940C 288 940 263 957 235 978C 195 1008 182 1026 167 1072L167 1072L148 1129L176 1186C 200 1235 274 1336 315 1375C 373 1431 511 1520 540 1520C 549 1520 566 1513 579 1503zM1229 1478C 1249 1466 1285 1440 1310 1421C 1335 1402 1357 1385 1359 1383C 1361 1382 1357 1373 1349 1364C 1332 1344 1254 1350 1167 1378C 1114 1396 1105 1396 1062 1383C 1007 1367 970 1373 970 1398C 971 1432 995 1450 1041 1450C 1066 1451 1106 1461 1135 1475C 1163 1488 1187 1499 1189 1499C 1191 1500 1209 1490 1229 1478zM1150 1196C 1166 1168 1180 1159 1218 1151C 1330 1127 1362 1128 1438 1154L1438 1154L1511 1179L1535 1126C 1597 985 1613 787 1572 643C 1550 567 1496 445 1479 434C 1473 431 1460 436 1449 446C 1435 459 1430 476 1430 518C 1430 565 1422 589 1375 682C 1328 775 1320 798 1320 848C 1319 905 1319 905 1274 933C 1224 963 1205 965 1150 949C 1110 937 1091 942 985 995C 946 1015 945 1017 933 1090L933 1090L921 1165L952 1197C 982 1228 988 1230 1056 1230C 1128 1230 1129 1230 1150 1196zM424 876C 443 835 460 828 543 830C 577 831 612 831 622 831C 631 830 655 802 676 765C 713 702 715 700 755 700C 778 700 799 698 802 695C 805 692 804 671 800 649C 794 618 779 594 736 551C 686 501 680 490 680 453C 680 415 676 409 626 371C 574 332 571 328 568 280C 566 252 561 229 555 227C 550 226 534 248 520 275C 497 320 495 340 490 479L490 479L485 634L417 650C 353 664 348 668 325 709C 287 775 292 806 347 862C 373 888 397 910 401 910C 405 910 415 895 424 876z" stroke="none" fill="#000000" fill-rule="nonzero" />
	</g>
</g>
</svg>