<svg xmlns="http://www.w3.org/2000/svg" xmlns:xlink="http://www.w3.org/1999/xlink" width="40" height="40" viewBox="0 0 40 40">
  <defs>
    <style>
      .cls-1 {
        fill: #fff;
        stroke: #707070;
      }

      .cls-2 {
        clip-path: url(#clip-path);
      }

      .cls-3 {
        fill: #444;
      }
    </style>
    <clipPath id="clip-path">
      <rect id="Rectangle_965" data-name="Rectangle 965" class="cls-1" width="40" height="40" transform="translate(104 600)"/>
    </clipPath>
  </defs>
  <g id="Mask_Group_49" data-name="Mask Group 49" class="cls-2" transform="translate(-104 -600)">
    <g id="Group_2786" data-name="Group 2786" transform="translate(113.01 609)">
      <path id="Path_1708" data-name="Path 1708" class="cls-3" d="M11,.05A10.993,10.993,0,0,0,.892,6.716l-.137.045.053.159A10.992,10.992,0,1,0,11,.05Zm8.622,16.534-.564-.564V14.706a.366.366,0,0,0-.037-.164l-1.429-2.854V10.309a.366.366,0,0,0-.163-.3l-1.1-.733a.367.367,0,0,0-.293-.051l-1.346.336-2.261-.97-.311-2.179.862-.862H14.83l.623.936a.366.366,0,0,0,.245.158l2.2.366a.363.363,0,0,0,.176-.014L20.1,6.318A10.222,10.222,0,0,1,19.621,16.584ZM18.11,3.661l-.6.4-1.661-.332-1.078-.359a.36.36,0,0,0-.2-.008l-1.362.34-.6-.2.443-.885h1.239a.366.366,0,0,0,.164-.038l1.268-.634A10.3,10.3,0,0,1,18.11,3.661ZM6.982,1.6l.879.586A.366.366,0,0,0,8,2.244l1.776.3-.173.518-.925.309a.366.366,0,0,0-.2.159L7.431,5.279,5.741,6.294l-2.492.356a.366.366,0,0,0-.315.362v1.1a.366.366,0,0,0,.107.259L3.667,9v.629L2.143,8.609,1.59,6.95A10.319,10.319,0,0,1,6.982,1.6ZM5.939,13.614l-1.656-.332-.616-1.228v-.861L5.032,9.829l.505,1.011a.366.366,0,0,0,.328.2H8.223L9.216,12.7a.366.366,0,0,0,.314.178h1.019l-.256,1.285L8.9,15.546a.367.367,0,0,0-.108.259v.916l-1.319.989A.366.366,0,0,0,7.331,18v1.323l-.456-.151-.643-1.609V13.973A.366.366,0,0,0,5.939,13.614Zm-1.1,5.633a10.257,10.257,0,0,1-3.654-11.2l.3.913a.366.366,0,0,0,.144.189l1.827,1.218-.417.417a.366.366,0,0,0-.107.259v1.1a.366.366,0,0,0,.038.164l.733,1.466a.367.367,0,0,0,.256.2l1.539.307v3.364a.367.367,0,0,0,.026.136l.733,1.832a.366.366,0,0,0,.225.211l1.1.366A.36.36,0,0,0,7.7,20.2a.366.366,0,0,0,.366-.366V18.187L9.383,17.2A.366.366,0,0,0,9.53,16.9v-.948L10.888,14.6a.367.367,0,0,0,.1-.187l.366-1.832A.366.366,0,0,0,11,12.141H9.737l-.993-1.654a.366.366,0,0,0-.314-.178H6.092l-.63-1.263a.366.366,0,0,0-.269-.2.359.359,0,0,0-.318.1L4.4,9.425V8.844a.366.366,0,0,0-.107-.259l-.625-.625v-.63l2.251-.321a.368.368,0,0,0,.137-.049l1.832-1.1a.366.366,0,0,0,.125-.125l1.03-1.716.971-.324a.363.363,0,0,0,.232-.232l.366-1.1a.367.367,0,0,0-.287-.476L8.2,1.534l-.373-.248a10.232,10.232,0,0,1,7.047.262l-.669.334H12.828a.366.366,0,0,0-.33.2L11.765,3.55a.366.366,0,0,0,.212.511l1.1.366a.36.36,0,0,0,.2.008l1.362-.34,1,.332a.269.269,0,0,0,.044.012l1.832.366a.364.364,0,0,0,.275-.054l.834-.556a10.337,10.337,0,0,1,1.1,1.473l-1.8.6-1.952-.325-.645-.967a.366.366,0,0,0-.3-.163h-2.2a.366.366,0,0,0-.259.107l-1.1,1.1a.366.366,0,0,0-.1.311L11.732,8.9a.366.366,0,0,0,.22.285l2.565,1.1a.362.362,0,0,0,.233.019l1.308-.327.8.534v1.27a.366.366,0,0,0,.037.164l1.429,2.854v1.379a.366.366,0,0,0,.107.259l.767.767A10.257,10.257,0,0,1,4.837,19.247Z" transform="translate(0 -0.05)"/>
    </g>
  </g>
</svg>
