<svg xmlns="http://www.w3.org/2000/svg" width="11.526" height="25.485" viewBox="0 0 11.526 25.485">
  <defs>
    <style>
      .cls-1 {
        fill: #fff;
      }
    </style>
  </defs>
  <g id="Group_92" data-name="Group 92" transform="translate(0 0)">
    <g id="Group_90" data-name="Group 90">
      <g id="Group_89" data-name="Group 89" transform="translate(5.993 23.101)">
        <path id="Path_83" data-name="Path 83" class="cls-1" d="M26.709,364.672" transform="translate(-26.709 -364.672)"/>
      </g>
      <path id="Path_84" data-name="Path 84" class="cls-1" d="M30.721,346.659v-.37a.7.7,0,0,0-.095-.351,3.77,3.77,0,0,0-.969-1.741,4.921,4.921,0,0,0-3.486-1.448H25.05a1.691,1.691,0,0,1-1.7-1.351,1.628,1.628,0,0,1,1.6-1.9,1.6,1.6,0,0,1,.165.008,1.619,1.619,0,0,1,1.452,1.609.708.708,0,1,0,1.417.009,3.037,3.037,0,0,0-2.878-3.03,3.183,3.183,0,0,0-.475.012,3.034,3.034,0,0,0,.32,6.052h1.213a3.537,3.537,0,0,1,2.473,1.018,2.278,2.278,0,0,1,.669,1.491v6.2h-1a.7.7,0,0,0-.7.7v5.017a1.685,1.685,0,0,1-1.684,1.685H24.186a1.685,1.685,0,0,1-1.684-1.685v-5.017a.7.7,0,0,0-.7-.7H20.6V346.2a.725.725,0,0,1,.8-.705.7.7,0,0,0-.006-1.408,2.2,2.2,0,0,0-2.2,2.2v7.28a.7.7,0,0,0,.7.7h1.194v5.018a2.388,2.388,0,0,0,2.388,2.388h3.144a2.389,2.389,0,0,0,2.388-2.388v-5.018h1a.7.7,0,0,0,.7-.7v-6.749Q30.723,346.739,30.721,346.659Z" transform="translate(-19.196 -336.193)"/>
      <path id="Path_85" data-name="Path 85" class="cls-1" d="M29.54,339.464a4.445,4.445,0,0,0-4.39-3.751H25.1a4.445,4.445,0,0,0-4.39,3.751,1.367,1.367,0,0,0-.994,1.211,1.588,1.588,0,0,0,1.75,1.345v-2.689h0a3.729,3.729,0,0,1,3.634-2.9h.052a3.729,3.729,0,0,1,3.634,2.9h0v2.689a1.588,1.588,0,0,0,1.75-1.345A1.367,1.367,0,0,0,29.54,339.464Z" transform="translate(-19.301 -335.713)"/>
    </g>
    <g id="Group_91" data-name="Group 91" transform="translate(3.801 9.436)">
      <path id="Path_86" data-name="Path 86" class="cls-1" d="M27.774,351.71a1.471,1.471,0,0,1,.083.285,1.844,1.844,0,0,1,.027.332c0,.042,0,.086,0,.131s-.006.089-.011.13a1.513,1.513,0,0,1-.554.989,1.87,1.87,0,0,1-.846.38.7.7,0,0,0-.072.083.143.143,0,0,0-.031.083v.277a.433.433,0,0,1-.127.313.414.414,0,0,1-.309.13.438.438,0,0,1-.316-.13.419.419,0,0,1-.135-.313v-.285a.212.212,0,0,0-.071-.166,2.6,2.6,0,0,1-.475-.174,1.9,1.9,0,0,1-.427-.285,1.624,1.624,0,0,1-.4-.53,1.381,1.381,0,0,1-.143-.593v-.135a.5.5,0,0,1,.155-.368.492.492,0,0,1,.36-.154.485.485,0,0,1,.368.154.517.517,0,0,1,.146.368v.072a.6.6,0,0,0,.08.221v-.008c.026.048.053.091.079.131a.374.374,0,0,0,.095.1,1.448,1.448,0,0,0,.265.162.934.934,0,0,0,.407.075,1.508,1.508,0,0,0,.479-.063.791.791,0,0,0,.285-.154.554.554,0,0,0,.139-.182.624.624,0,0,0,.047-.139.571.571,0,0,0-.205-.526,1.343,1.343,0,0,0-.345-.214,4.693,4.693,0,0,0-.55-.2,3.3,3.3,0,0,1-.949-.459,1.71,1.71,0,0,1-.475-.546,1.392,1.392,0,0,1-.142-.814,1.66,1.66,0,0,1,.17-.5,1.276,1.276,0,0,1,.344-.4h.016a1.909,1.909,0,0,1,.664-.3.208.208,0,0,0,.087-.166v-.324a.459.459,0,0,1,.451-.451.409.409,0,0,1,.309.134.448.448,0,0,1,.127.317v.34a.151.151,0,0,0,.035.087.805.805,0,0,0,.075.087,2.891,2.891,0,0,1,.341.143,1.4,1.4,0,0,1,.308.213H27.11l.039.024a1.628,1.628,0,0,1,.352.467,1.148,1.148,0,0,1,.131.522.49.49,0,0,1-.154.364.512.512,0,0,1-.874-.364.257.257,0,0,0-.039-.119.523.523,0,0,0-.127-.143.821.821,0,0,0-.523-.174.947.947,0,0,0-.569.166.415.415,0,0,0-.1.119.378.378,0,0,0-.036.095.31.31,0,0,0,.051.238.783.783,0,0,0,.2.2,1.613,1.613,0,0,0,.289.154c.108.045.212.083.313.115q.309.095.645.225a2.181,2.181,0,0,1,.6.345,1.578,1.578,0,0,1,.277.284A1.545,1.545,0,0,1,27.774,351.71Z" transform="translate(-23.961 -347.542)"/>
    </g>
  </g>
</svg>
