<svg width="372" height="372" viewBox="0 0 372 372" fill="none" xmlns="http://www.w3.org/2000/svg">
<g id="Group 2982" clip-path="url(#clip0_193_195562)">
<g id="Ellipse 203" filter="url(#filter0_d_193_195562)">
<circle cx="186" cy="186" r="186" fill="black"/>
</g>
<g id="Group 2981">
<g id="Group 92">
<g id="Group 91">
<path id="Path 86" d="M203.597 192.069C203.917 192.848 204.154 193.676 204.321 194.553C204.481 195.423 204.557 196.39 204.557 197.448C204.557 197.817 204.55 198.199 204.523 198.59C204.502 198.979 204.467 199.362 204.425 199.724C203.959 203.175 202.351 206.05 199.588 208.353C197.661 209.961 195.197 211.067 192.212 211.666C191.975 211.895 191.773 212.139 191.585 212.389C191.404 212.64 191.314 212.883 191.314 213.113V215.528C191.314 216.586 190.945 217.498 190.207 218.256C189.47 219.015 188.572 219.39 187.514 219.39C186.456 219.39 185.538 219.015 184.758 218.256C183.972 217.498 183.582 216.586 183.582 215.528V213.043C183.582 212.445 183.374 211.965 182.963 211.596C181.536 211.227 180.158 210.719 178.822 210.079C177.486 209.432 176.247 208.603 175.099 207.594C173.575 206.258 172.406 204.72 171.578 202.973C170.75 201.22 170.332 199.501 170.332 197.796V196.62C170.332 195.381 170.784 194.309 171.682 193.412C172.58 192.514 173.624 192.069 174.821 192.069C176.108 192.069 177.18 192.514 178.029 193.412C178.878 194.309 179.302 195.381 179.302 196.62V197.246C179.302 197.615 179.532 198.255 179.998 199.174V199.104C180.228 199.522 180.458 199.898 180.687 200.245C180.917 200.587 181.188 200.879 181.515 201.109C182.156 201.617 182.928 202.083 183.826 202.521C184.724 202.96 185.907 203.175 187.375 203.175C189.08 203.175 190.472 202.995 191.551 202.626C192.636 202.257 193.464 201.812 194.035 201.283C194.613 200.754 195.016 200.225 195.246 199.696C195.476 199.167 195.615 198.763 195.657 198.485C195.747 197.567 195.657 196.738 195.385 196C195.107 195.263 194.599 194.567 193.868 193.899C193.13 193.231 192.128 192.611 190.862 192.034C189.595 191.456 188.001 190.872 186.067 190.273C182.845 189.264 180.089 187.928 177.785 186.271C175.948 184.845 174.57 183.258 173.645 181.511C172.545 179.438 172.128 177.071 172.406 174.406C172.684 172.84 173.171 171.393 173.888 170.057C174.598 168.72 175.6 167.551 176.888 166.535H177.027C178.774 165.296 180.708 164.42 182.824 163.912C183.332 163.501 183.582 163.021 183.582 162.464V159.639C183.582 158.581 183.972 157.662 184.758 156.876C185.538 156.097 186.456 155.707 187.514 155.707C188.572 155.707 189.47 156.097 190.207 156.876C190.945 157.662 191.314 158.581 191.314 159.639V162.603C191.314 162.833 191.418 163.091 191.62 163.362C191.829 163.64 192.045 163.891 192.274 164.12C193.332 164.489 194.327 164.907 195.246 165.366C196.165 165.825 197.062 166.445 197.932 167.224H197.8L198.141 167.433C199.428 168.63 200.451 169.987 201.21 171.504C201.975 173.021 202.351 174.538 202.351 176.062C202.351 177.301 201.906 178.359 201.008 179.236C200.11 180.106 199.06 180.544 197.87 180.544C196.624 180.544 195.566 180.106 194.689 179.236C193.819 178.359 193.381 177.301 193.381 176.062C193.381 175.784 193.27 175.436 193.04 175.025C192.803 174.608 192.441 174.197 191.933 173.78C191.425 173.369 190.792 173.015 190.034 172.715C189.275 172.416 188.391 172.263 187.375 172.263C185.399 172.263 183.742 172.75 182.413 173.71C181.996 174.079 181.71 174.427 181.55 174.747C181.383 175.067 181.286 175.346 181.237 175.575C181.098 176.313 181.251 177.002 181.683 177.649C182.121 178.289 182.712 178.867 183.443 179.375C184.181 179.876 185.023 180.328 185.962 180.718C186.909 181.108 187.814 181.442 188.69 181.72C190.486 182.27 192.358 182.924 194.313 183.683C196.269 184.441 198.002 185.443 199.526 186.689C200.444 187.42 201.245 188.248 201.941 189.167C202.63 190.092 203.179 191.06 203.597 192.069L203.597 192.069Z" fill="#FD1792"/>
</g>
<g id="Group 92_2">
<g id="Group 90">
<path id="Path 84" d="M236.478 164.172V160.996C236.478 159.893 236.177 158.867 235.664 157.983C234.363 152.514 231.529 147.379 227.346 143.039C219.836 135.255 208.65 130.614 197.43 130.614H187.812C180.856 130.614 174.394 125.877 173.264 119.017C171.827 110.282 178.556 102.704 187.024 102.704C187.503 102.704 187.976 102.724 188.441 102.772C195.431 103.484 200.901 109.406 200.901 116.58C200.901 118.265 201.592 119.791 202.708 120.886C203.803 122.002 205.33 122.7 207.021 122.7C210.355 122.7 213.059 119.996 213.059 116.655C213.059 102.745 202.099 91.3465 188.359 90.6552C187.024 90.5869 185.662 90.6212 184.279 90.7577C173.257 91.8807 163.742 100.369 161.537 111.227C158.135 127.951 170.889 142.697 187.024 142.697H197.43C205.323 142.697 213.449 146.045 218.652 151.432C221.205 154.081 224.176 158.394 224.395 164.227V217.425H215.783C212.45 217.425 209.739 220.13 209.739 223.47V266.523C209.739 274.506 203.269 280.982 195.287 280.982H180.391C172.408 280.982 165.939 274.506 165.939 266.523V223.47C165.939 220.13 163.235 217.425 159.894 217.425H149.653V160.229C149.653 156.416 152.713 154.211 156.519 154.177C159.833 154.15 162.51 151.46 162.51 148.139C162.51 144.799 159.805 142.094 156.472 142.094C146.045 142.094 137.57 150.569 137.57 160.996V223.47C137.57 226.804 140.274 229.508 143.608 229.508H153.856V272.568C153.856 283.885 163.03 293.064 174.353 293.064H201.332C212.648 293.064 221.828 283.885 221.828 272.568V229.508H230.433C233.774 229.508 236.478 226.804 236.478 223.47V165.548C236.485 165.089 236.485 164.631 236.478 164.172V164.172Z" fill="url(#paint0_linear_193_195562)"/>
<path id="Path 85" d="M225.296 106.551C222.393 88.3135 206.343 74.3623 186.98 74.3623L186.757 74.3689L186.527 74.3623C167.164 74.3623 151.114 88.3135 148.211 106.551C143.079 108.413 139.535 112.363 139.535 116.943C139.535 123.316 146.373 128.485 154.812 128.485V105.408H154.805C158.091 91.1618 171.042 80.5164 186.527 80.5164L186.757 80.5234L186.98 80.5164C202.465 80.5164 215.416 91.1618 218.702 105.408H218.695V128.485C227.134 128.485 233.972 123.316 233.972 116.943C233.972 112.363 230.428 108.413 225.296 106.551Z" fill="url(#paint1_linear_193_195562)"/>
</g>
<g id="Group 91_2">
<path id="Path 86_2" d="M202.914 191.11C203.229 191.877 203.462 192.691 203.626 193.554C203.784 194.409 203.859 195.361 203.859 196.402C203.859 196.764 203.852 197.141 203.825 197.524C203.804 197.908 203.77 198.284 203.729 198.64C203.27 202.035 201.689 204.863 198.971 207.129C197.075 208.71 194.651 209.799 191.715 210.388C191.482 210.614 191.283 210.853 191.098 211.1C190.92 211.346 190.831 211.585 190.831 211.811V214.187C190.831 215.228 190.469 216.124 189.743 216.87C189.017 217.617 188.134 217.986 187.094 217.986C186.053 217.986 185.149 217.617 184.383 216.87C183.609 216.124 183.226 215.228 183.226 214.187V211.743C183.226 211.154 183.02 210.682 182.617 210.319C181.213 209.956 179.858 209.457 178.543 208.827C177.229 208.19 176.01 207.375 174.881 206.383C173.382 205.068 172.231 203.555 171.417 201.837C170.602 200.112 170.191 198.421 170.191 196.744V195.587C170.191 194.369 170.636 193.314 171.519 192.431C172.403 191.548 173.429 191.11 174.607 191.11C175.873 191.11 176.928 191.548 177.763 192.431C178.598 193.314 179.016 194.369 179.016 195.587V196.203C179.016 196.566 179.242 197.196 179.7 198.099V198.031C179.926 198.442 180.152 198.811 180.378 199.153C180.604 199.489 180.871 199.777 181.193 200.003C181.822 200.503 182.582 200.961 183.465 201.392C184.348 201.824 185.512 202.035 186.957 202.035C188.634 202.035 190.003 201.858 191.064 201.495C192.132 201.132 192.947 200.694 193.508 200.174C194.076 199.653 194.473 199.133 194.699 198.613C194.925 198.092 195.062 197.696 195.103 197.422C195.192 196.518 195.103 195.703 194.836 194.978C194.562 194.252 194.063 193.567 193.344 192.91C192.618 192.253 191.632 191.644 190.386 191.076C189.141 190.507 187.573 189.932 185.67 189.344C182.5 188.351 179.789 187.037 177.523 185.407C175.716 184.004 174.36 182.443 173.45 180.724C172.368 178.685 171.958 176.357 172.231 173.735C172.505 172.195 172.984 170.771 173.69 169.457C174.388 168.142 175.374 166.992 176.64 165.993H176.777C178.495 164.774 180.398 163.911 182.48 163.412C182.979 163.008 183.226 162.535 183.226 161.988V159.209C183.226 158.168 183.609 157.264 184.383 156.491C185.149 155.724 186.053 155.341 187.094 155.341C188.134 155.341 189.017 155.724 189.743 156.491C190.469 157.264 190.831 158.168 190.831 159.209V162.124C190.831 162.351 190.934 162.604 191.133 162.871C191.338 163.145 191.55 163.391 191.776 163.617C192.817 163.98 193.796 164.391 194.699 164.843C195.603 165.294 196.486 165.904 197.342 166.67H197.212L197.547 166.876C198.814 168.053 199.82 169.388 200.566 170.881C201.319 172.373 201.689 173.865 201.689 175.364C201.689 176.583 201.251 177.624 200.368 178.486C199.485 179.342 198.451 179.773 197.28 179.773C196.055 179.773 195.014 179.342 194.152 178.486C193.296 177.624 192.865 176.583 192.865 175.364C192.865 175.091 192.755 174.749 192.529 174.344C192.296 173.934 191.94 173.53 191.441 173.119C190.941 172.715 190.318 172.366 189.572 172.072C188.826 171.777 187.956 171.627 186.957 171.627C185.013 171.627 183.383 172.106 182.076 173.051C181.665 173.413 181.384 173.756 181.227 174.071C181.063 174.385 180.967 174.66 180.919 174.885C180.782 175.611 180.932 176.289 181.357 176.925C181.788 177.555 182.37 178.123 183.089 178.623C183.815 179.116 184.643 179.561 185.567 179.944C186.498 180.327 187.388 180.656 188.251 180.93C190.017 181.471 191.858 182.114 193.782 182.861C195.706 183.607 197.41 184.593 198.909 185.818C199.813 186.537 200.6 187.351 201.285 188.255C201.963 189.166 202.504 190.117 202.914 191.11H202.914Z" fill="url(#paint2_linear_193_195562)"/>
</g>
</g>
</g>
<path id="Path 88" fill-rule="evenodd" clip-rule="evenodd" d="M185.997 31C100.53 31 31 100.529 31 185.997C31 271.464 100.53 341 185.997 341C271.464 341 340.994 271.464 340.994 185.997C340.994 100.529 271.464 31 185.997 31ZM185.997 330.686C106.222 330.686 41.3146 265.778 41.3146 185.996C41.3146 106.222 106.222 41.3143 185.997 41.3143C265.778 41.3143 330.679 106.222 330.679 185.996C330.679 265.778 265.778 330.686 185.997 330.686Z" fill="url(#paint3_linear_193_195562)"/>
</g>
</g>
<defs>
<filter id="filter0_d_193_195562" x="-37.2" y="-32.24" width="446.4" height="446.4" filterUnits="userSpaceOnUse" color-interpolation-filters="sRGB">
<feFlood flood-opacity="0" result="BackgroundImageFix"/>
<feColorMatrix in="SourceAlpha" type="matrix" values="0 0 0 0 0 0 0 0 0 0 0 0 0 0 0 0 0 0 127 0" result="hardAlpha"/>
<feOffset dy="4.96"/>
<feGaussianBlur stdDeviation="18.6"/>
<feColorMatrix type="matrix" values="0 0 0 0 1 0 0 0 0 1 0 0 0 0 1 0 0 0 0.74902 0"/>
<feBlend mode="normal" in2="BackgroundImageFix" result="effect1_dropShadow_193_195562"/>
<feBlend mode="normal" in="SourceGraphic" in2="effect1_dropShadow_193_195562" result="shape"/>
</filter>
<linearGradient id="paint0_linear_193_195562" x1="120.466" y1="52.1578" x2="120.466" y2="324.617" gradientUnits="userSpaceOnUse">
<stop stop-color="#FA9C74"/>
<stop offset="1" stop-color="#FF0093"/>
</linearGradient>
<linearGradient id="paint1_linear_193_195562" x1="-50.949" y1="52.1577" x2="-50.949" y2="324.617" gradientUnits="userSpaceOnUse">
<stop stop-color="#FFA85B"/>
<stop offset="0.334975" stop-color="#FF706E"/>
<stop offset="1" stop-color="#FF0093"/>
</linearGradient>
<linearGradient id="paint2_linear_193_195562" x1="113.814" y1="52.1583" x2="113.814" y2="324.616" gradientUnits="userSpaceOnUse">
<stop stop-color="#FA9C74"/>
<stop offset="1" stop-color="#FF0093"/>
</linearGradient>
<linearGradient id="paint3_linear_193_195562" x1="31" y1="31" x2="31" y2="341" gradientUnits="userSpaceOnUse">
<stop stop-color="#FFA85B"/>
<stop offset="1" stop-color="#FF0093"/>
</linearGradient>
<clipPath id="clip0_193_195562">
<rect width="372" height="372" fill="white"/>
</clipPath>
</defs>
</svg>
