<svg id="id-card" xmlns="http://www.w3.org/2000/svg" width="19.978" height="14.949" viewBox="0 0 19.978 14.949">
  <path id="Path_2605" data-name="Path 2605" d="M18.574,8H1.4A1.42,1.42,0,0,0,0,9.433V21.516a1.42,1.42,0,0,0,1.4,1.433h17.17a1.42,1.42,0,0,0,1.4-1.433V9.433A1.42,1.42,0,0,0,18.574,8Zm.738,13.516a.746.746,0,0,1-.738.753H1.4a.746.746,0,0,1-.738-.753V9.433A.746.746,0,0,1,1.4,8.68h17.17a.746.746,0,0,1,.738.753Z" transform="translate(0 -8)" fill="#f42677"/>
  <path id="Path_2606" data-name="Path 2606" d="M10.873,23.516l-1.211-.691v-.144A2.657,2.657,0,0,0,10.8,21.059a1.13,1.13,0,0,0,.529-.98v-.372a1.159,1.159,0,0,0-.383-.873A2.321,2.321,0,0,0,8.33,16.715q-.108,0-.212.009a1.544,1.544,0,0,1-1.073-.275,1.424,1.424,0,0,1-.3-.295.372.372,0,0,0-.467-.139.45.45,0,0,0-.244.464c.014.139.035.3.067.478.064.363.064.363-.026.579-.034.082-.076.182-.125.317a4.543,4.543,0,0,0-.233.984,1.162,1.162,0,0,0-.378.869v.372a1.13,1.13,0,0,0,.529.98A2.655,2.655,0,0,0,7,22.681v.14l-1.255.691A1.627,1.627,0,0,0,5,24.909V25.4c0,.3,0,1,3.33,1s3.33-.7,3.33-1v-.463A1.611,1.611,0,0,0,10.873,23.516Zm.121,1.8a6.552,6.552,0,0,1-2.664.338,6.552,6.552,0,0,1-2.664-.338v-.409a.862.862,0,0,1,.384-.737l1.284-.707a.672.672,0,0,0,.33-.59V22.2l-.2-.1a1.942,1.942,0,0,1-1-1.418l-.048-.2-.175-.061A.372.372,0,0,1,6,20.078v-.372a.378.378,0,0,1,.18-.326l.156-.093.018-.2a3.83,3.83,0,0,1,.207-.956c.044-.121.082-.211.113-.285a1.206,1.206,0,0,0,.126-.7,2.171,2.171,0,0,0,1.372.313c.052,0,.1-.007.159-.007,1.247,0,1.855.5,1.974,1.635l.021.194.155.091a.38.38,0,0,1,.181.327v.372a.371.371,0,0,1-.237.352l-.175.061-.048.2a1.942,1.942,0,0,1-1,1.418l-.2.1v.673a.667.667,0,0,0,.321.586l1.257.717a.857.857,0,0,1,.42.758Z" transform="translate(-3.335 -13.718)" fill="#f42677"/>
  <path id="Path_2607" data-name="Path 2607" d="M29.333,21.567h3.33a.287.287,0,1,0,0-.567h-3.33a.287.287,0,1,0,0,.567Z" transform="translate(-19.344 -16.548)" fill="#f42677"/>
  <path id="Path_2608" data-name="Path 2608" d="M43.333,21.567h.333a.287.287,0,1,0,0-.567h-.333a.287.287,0,1,0,0,.567Z" transform="translate(-28.683 -16.548)" fill="#f42677"/>
  <path id="Path_2609" data-name="Path 2609" d="M29.666,38h-.333a.287.287,0,1,0,0,.567h.333a.287.287,0,1,0,0-.567Z" transform="translate(-19.344 -27.727)" fill="#f42677"/>
  <path id="Path_2610" data-name="Path 2610" d="M35,38h-.666a.287.287,0,1,0,0,.567H35A.287.287,0,1,0,35,38Z" transform="translate(-22.679 -27.727)" fill="#f42677"/>
  <path id="Path_2611" data-name="Path 2611" d="M40.666,38h-.333a.287.287,0,1,0,0,.567h.333a.287.287,0,1,0,0-.567Z" transform="translate(-26.682 -27.727)" fill="#f42677"/>
  <path id="Path_2612" data-name="Path 2612" d="M46,38h-.666a.287.287,0,1,0,0,.567H46A.287.287,0,1,0,46,38Z" transform="translate(-30.017 -27.727)" fill="#f42677"/>
  <path id="Path_2613" data-name="Path 2613" d="M51.1,38.091a.258.258,0,0,0,0,.4.381.381,0,0,0,.473,0,.258.258,0,0,0,0-.4A.394.394,0,0,0,51.1,38.091Z" transform="translate(-34.019 -27.736)" fill="#f42677"/>
  <path id="Path_2614" data-name="Path 2614" d="M36.658,27H29.333a.287.287,0,1,0,0,.567h7.325a.287.287,0,1,0,0-.567Z" transform="translate(-19.344 -20.494)" fill="#f42677"/>
  <path id="Path_2615" data-name="Path 2615" d="M36.658,33H29.333a.287.287,0,1,0,0,.567h7.325a.287.287,0,1,0,0-.567Z" transform="translate(-19.344 -24.439)" fill="#f42677"/>
</svg>
