<svg xmlns="http://www.w3.org/2000/svg" width="51.498" height="40.844" viewBox="0 0 51.498 40.844">
  <path id="video-player" d="M50.61,6H.888A.888.888,0,0,0,0,6.888V45.956a.888.888,0,0,0,.888.888H50.61a.888.888,0,0,0,.888-.888V6.888A.888.888,0,0,0,50.61,6Zm-.888,19.534h-7.1V17.543h7.1Zm-8.879-8.879v8.879H10.655V7.776H40.844ZM8.879,25.534h-7.1V17.543h7.1Zm-7.1,1.776h7.1V35.3h-7.1Zm8.879,8.879V27.31H40.844V45.068H10.655ZM42.619,27.31h7.1V35.3h-7.1Zm7.1-19.534v7.991h-7.1V7.776Zm-47.947,0h7.1v7.991h-7.1Zm0,37.292V37.077h7.1v7.991Zm47.947,0h-7.1V37.077h7.1Z" transform="translate(0 -6)" fill="#b8b8b8"/>
</svg>
