<svg xmlns="http://www.w3.org/2000/svg" width="45.261" height="38.847" viewBox="0 0 45.261 38.847">
  <g id="wallet" transform="translate(0 -34.55)">
    <path id="Path_2615" data-name="Path 2615" d="M42.727,51.444H41.65v-6.47a4.8,4.8,0,0,0-4.79-4.79h-.993l.009-2.4a3.233,3.233,0,0,0-3.23-3.23H3.926A3.928,3.928,0,0,0,0,38.421V70.167A3.233,3.233,0,0,0,3.23,73.4H36.87a4.8,4.8,0,0,0,4.79-4.79V62.128h1.077A2.527,2.527,0,0,0,45.261,59.6V53.969A2.541,2.541,0,0,0,42.727,51.444ZM3.926,36.778h28.72a1,1,0,0,1,1,.993l-.009,2.413H3.926a1.7,1.7,0,0,1,0-3.407Zm35.5,31.82a2.567,2.567,0,0,1-2.562,2.562H3.221a1,1,0,0,1-1-1V42.022a3.909,3.909,0,0,0,1.708.39H36.861a2.567,2.567,0,0,1,2.562,2.562v6.47h-7.6A2.527,2.527,0,0,0,29.3,53.969V59.6a2.527,2.527,0,0,0,2.525,2.525h7.6Zm3.6-8.995a.293.293,0,0,1-.3.3H31.83a.293.293,0,0,1-.3-.3V53.969a.3.3,0,0,1,.3-.3h10.9a.3.3,0,0,1,.3.3V59.6Z" transform="translate(0 0)" fill="#444"/>
  </g>
</svg>
