<svg id="Group_1725" data-name="Group 1725" xmlns="http://www.w3.org/2000/svg" xmlns:xlink="http://www.w3.org/1999/xlink" width="51.316" height="40.323" viewBox="0 0 51.316 40.323">
  <defs>
    <style>
      .cls-1 {
        fill: url(#linear-gradient);
      }
    </style>
    <linearGradient id="linear-gradient" x1="0.5" x2="0.5" y2="1" gradientUnits="objectBoundingBox">
      <stop offset="0" stop-color="#ff0093"/>
      <stop offset="0.423" stop-color="#fd657c"/>
      <stop offset="1" stop-color="#fad163"/>
    </linearGradient>
  </defs>
  <path id="Path_1721" data-name="Path 1721" class="cls-1" d="M30.283,82.166a18.184,18.184,0,0,0,7.345-5.341,11.407,11.407,0,0,0,0-14.719,18.186,18.186,0,0,0-7.345-5.341A25.793,25.793,0,0,0,20.16,54.8a25.8,25.8,0,0,0-10.123,1.961,18.186,18.186,0,0,0-7.345,5.341A11.566,11.566,0,0,0,0,69.466a11.253,11.253,0,0,0,2.034,6.415A16.733,16.733,0,0,0,7.618,80.95q-.286.688-.587,1.26a7.259,7.259,0,0,1-.716,1.1q-.415.53-.644.83t-.745.845q-.516.544-.659.716c0-.019-.038.024-.115.129s-.119.152-.129.144-.048.037-.115.142l-.1.158-.072.143a.614.614,0,0,0-.057.172,1.121,1.121,0,0,0-.014.186.576.576,0,0,0,.029.186.949.949,0,0,0,.329.6.894.894,0,0,0,.587.229H4.7a24.022,24.022,0,0,0,2.463-.458,24.08,24.08,0,0,0,7.961-3.666,28.757,28.757,0,0,0,5.04.458A25.768,25.768,0,0,0,30.283,82.166Z" transform="translate(0 -54.804)"/>
  <path id="Path_1722" data-name="Path 1722" class="cls-1" d="M207.51,175.69a11.177,11.177,0,0,0-.115-13.016,16.974,16.974,0,0,0-5.842-5.1,14.738,14.738,0,0,1-1.26,11.627,19.168,19.168,0,0,1-5.5,6.071,25.358,25.358,0,0,1-7.56,3.694,30.255,30.255,0,0,1-8.848,1.289q-.859,0-2.52-.114a24.063,24.063,0,0,0,13.516,3.78,28.773,28.773,0,0,0,5.04-.458,22.869,22.869,0,0,0,10.424,4.124.864.864,0,0,0,.63-.2,1.058,1.058,0,0,0,.372-.629c-.009-.115,0-.178.029-.187s.023-.071-.014-.186-.057-.172-.057-.172l-.071-.143a1.376,1.376,0,0,0-.1-.157,1.236,1.236,0,0,0-.115-.143c-.028-.028-.071-.076-.128-.143s-.1-.11-.115-.129q-.143-.172-.658-.716t-.744-.844q-.229-.3-.644-.831a7.241,7.241,0,0,1-.716-1.1q-.3-.573-.587-1.26A16.8,16.8,0,0,0,207.51,175.69Z" transform="translate(-158.227 -147.269)"/>
</svg>
