<svg xmlns="http://www.w3.org/2000/svg" width="40.953" height="41.184" viewBox="0 0 40.953 41.184">
  <defs>
    <style>
      .cls-1 {
        fill: #ff4680;
      }
    </style>
  </defs>
  <g id="Group_2885" data-name="Group 2885" transform="translate(-794.089 -2232.741)">
    <g id="headphones" transform="translate(794.089 2232.741)">
      <path id="Path_2627" data-name="Path 2627" class="cls-1" d="M40.953,22.577A20.479,20.479,0,0,0,6,8.1,20.349,20.349,0,0,0,0,22.577v9.695C0,37.75,4.462,42.685,9.94,42.685c.657,0,1.183-.324,1.183-.981V23.524A1.178,1.178,0,0,0,9.94,22.34a9.907,9.907,0,0,0-7.574,3.506v-3.27a18.11,18.11,0,1,1,36.22,0,1.088,1.088,0,0,0,.026.237,1.088,1.088,0,0,0-.026.237v3.27a9.907,9.907,0,0,0-7.574-3.506A1.178,1.178,0,0,0,29.83,24V41.5a1.178,1.178,0,0,0,1.183,1.183,9.955,9.955,0,0,0,9.94-9.94V23.05a1.088,1.088,0,0,0-.026-.237A1.088,1.088,0,0,0,40.953,22.577ZM8.748,24.795V39.749a7.57,7.57,0,0,1,0-14.954ZM32.205,40.222V25.268a7.57,7.57,0,0,1,0,14.954Z" transform="translate(0 -2.1)"/>
    </g>
    <g id="Group_2884" data-name="Group 2884" transform="translate(808.485 2253.92)">
      <path id="Path_2668" data-name="Path 2668" class="cls-1" d="M61.008,51.724a1.429,1.429,0,0,0,1.43-1.43c0-2.13-2.982-1.235-4.289-1.43-.075-.337.414-2.864-1.43-2.864-1.89,0-1.349,2.5-1.43,2.864h-.873A3.314,3.314,0,0,0,51,52.059v2.188a3.315,3.315,0,0,0,3.416,3.2h4.607c.933,0,.413.856.556,2.523,0,.57-1.659.254-2.839.337-.007,0-.013,0-.021,0s-.013,0-.021,0c-2.392.268-5.7-.822-5.7,1.43,0,2.13,2.982,1.235,4.289,1.43v1.426a1.43,1.43,0,0,0,2.859,0V63.162h.874a3.315,3.315,0,0,0,3.415-3.2V57.778c0-5.17-8.578-2.275-8.578-3.531V52.059C53.859,51.415,55.83,51.868,61.008,51.724Z" transform="translate(-51 -46.001)"/>
    </g>
  </g>
</svg>
