<svg width="286" height="77" viewBox="0 0 286 77" fill="none" xmlns="http://www.w3.org/2000/svg">
<g clip-path="url(#clip0_193_25786)">
<g clip-path="url(#clip1_193_25786)">
<g clip-path="url(#clip2_193_25786)">
<g clip-path="url(#clip3_193_25786)">
<g clip-path="url(#clip4_193_25786)">
<path fill-rule="evenodd" clip-rule="evenodd" d="M198.677 54.075C190.685 54.075 184.246 47.5921 184.246 39.5549C184.246 31.4734 190.64 24.9905 198.633 24.9905C206.67 24.946 213.242 31.5623 213.197 39.5549C213.153 47.5477 206.67 54.0308 198.677 54.075ZM190.818 39.4218C190.773 43.8623 194.237 47.3702 198.633 47.4145C203.029 47.4145 206.537 43.9509 206.581 39.5549C206.626 35.2034 203.073 31.5623 198.722 31.5623C194.37 31.5623 190.862 35.0258 190.818 39.4218H190.818Z" fill="white"/>
<path fill-rule="evenodd" clip-rule="evenodd" d="M143.618 48.7908C143.174 48.7463 142.774 48.7463 142.419 48.7463C139.799 48.7463 137.179 48.7463 134.471 48.7463C133.938 49.9009 133.449 51.0554 132.872 52.121C132.162 53.4087 131.007 53.986 129.498 53.7641C128.121 53.5864 127.144 52.8317 126.878 51.4994C126.7 50.789 126.789 49.9453 127.055 49.2792C129.942 41.9525 132.917 34.6704 135.803 27.3881C136.38 25.9227 137.401 25.2124 138.955 25.168C140.51 25.168 141.62 25.8782 142.197 27.2992C145.172 34.6259 148.103 41.9525 151.033 49.3236C151.744 51.1442 151.033 52.8317 149.435 53.4975C147.703 54.2524 146.06 53.6751 145.083 51.8545C144.551 50.8778 144.106 49.8119 143.618 48.7908ZM141.131 42.3966C140.465 40.6647 139.799 39.1107 139.044 37.157C138.245 39.1107 137.623 40.6647 136.913 42.3966C138.378 42.3966 139.621 42.3966 141.131 42.3966Z" fill="white"/>
<path d="M215.507 37.2024C215.507 34.405 215.507 31.5631 215.507 28.7657C215.507 26.5455 216.75 25.2135 218.704 25.169C220.746 25.1245 222.034 26.5011 222.034 28.7657C222.079 33.9609 222.034 39.2006 222.034 44.396C222.034 46.5273 224.121 47.9484 226.119 47.2378C227.496 46.7493 228.118 45.728 228.073 44.2626C228.073 39.1562 228.073 34.0498 228.073 28.9432C228.073 26.5898 229.316 25.169 231.403 25.169C233.402 25.2134 234.645 26.6342 234.645 28.899C234.645 34.0054 234.467 39.1562 234.689 44.2182C235.045 51.8557 227.452 55.3192 221.945 53.4543C217.638 52.0334 215.418 49.1028 215.418 44.6179C215.507 42.1758 215.507 39.6891 215.507 37.2024H215.507Z" fill="white"/>
<path d="M254.85 39.4665C252.985 36.4471 251.164 33.4276 249.299 30.4081C248.145 28.4988 248.411 26.6781 250.01 25.6569C251.697 24.591 253.695 25.124 254.894 27.0778C256.138 29.0316 257.381 31.0297 258.758 33.2054C260.134 30.9853 261.377 28.8983 262.754 26.9445C263.242 26.2341 264.13 25.568 264.93 25.3015C266.262 24.9019 267.505 25.3905 268.349 26.5449C269.192 27.6993 269.148 28.9427 268.393 30.186C266.484 33.2943 264.574 36.358 262.62 39.5552C264.263 42.1749 265.907 44.795 267.549 47.4146C267.86 47.9476 268.26 48.4359 268.527 49.0132C269.37 50.6562 268.882 52.4769 267.372 53.4092C265.862 54.3417 263.864 53.8977 262.843 52.3437C261.644 50.5229 260.534 48.6137 259.335 46.7487C259.201 46.5266 259.024 46.3045 258.713 45.905C257.336 48.1251 256.049 50.1678 254.717 52.2549C253.917 53.5425 252.763 53.9865 251.298 53.7646C249.921 53.5425 248.944 52.6988 248.722 51.4111C248.589 50.5229 248.811 49.4128 249.255 48.6137C250.765 45.9494 252.452 43.4183 254.051 40.7986C254.361 40.3545 254.583 39.9548 254.85 39.4665Z" fill="white"/>
<path d="M119.151 41.8183C120.527 37.6888 121.726 34.0032 122.97 30.2732C123.325 29.2519 123.636 28.1862 124.035 27.165C124.746 25.4332 126.522 24.6783 128.298 25.3444C129.897 25.9217 130.74 27.6091 130.119 29.2963C127.543 36.7118 124.968 44.1717 122.348 51.5871C121.815 53.0525 120.661 53.7629 119.151 53.7629C117.597 53.7629 116.442 53.0968 115.954 51.6316C113.334 44.2605 110.714 36.8894 108.183 29.5183C107.561 27.6535 108.449 25.8772 110.137 25.3001C112.002 24.6783 113.733 25.522 114.444 27.5646C115.909 31.7387 117.241 35.957 118.662 40.1753C118.707 40.5751 118.84 40.9747 119.151 41.8183H119.151Z" fill="white"/>
<path d="M175.543 35.2036C176.609 32.5393 177.586 30.0971 178.519 27.6549C178.963 26.456 179.717 25.5678 180.961 25.3014C182.204 25.035 183.359 25.2126 184.202 26.2783C185.09 27.3441 185.268 28.5873 184.735 29.9195C183.092 33.7382 181.449 37.5568 179.762 41.3312C179.096 42.7967 178.741 44.2619 178.829 45.9049C178.918 47.4146 178.874 48.9688 178.829 50.4786C178.785 52.4767 177.497 53.8088 175.677 53.8531C173.812 53.8976 172.346 52.5212 172.258 50.523C172.213 48.569 172.302 46.6154 172.213 44.6617C172.169 43.9066 172.035 43.1519 171.769 42.4414C169.993 38.3118 168.217 34.2267 166.396 30.0971C165.819 28.7651 165.908 27.4773 166.796 26.3228C167.551 25.3014 168.661 25.035 169.86 25.3014C171.147 25.5235 171.947 26.3671 172.435 27.5661C173.457 29.9639 174.478 32.4506 175.543 35.2037L175.543 35.2036Z" fill="white"/>
<path d="M160.179 47.1046C162.088 47.1046 163.775 47.1046 165.507 47.1046C167.861 47.1488 169.148 48.3033 169.104 50.3904C169.104 52.4773 167.772 53.6318 165.418 53.6762C162.71 53.6762 159.957 53.6762 157.248 53.6762C154.806 53.6318 153.562 52.3885 153.562 49.9463C153.562 42.9304 153.562 35.9146 153.562 28.8988C153.562 26.4567 154.761 25.1246 156.893 25.169C158.935 25.2134 160.134 26.5455 160.134 28.8545C160.134 34.3605 160.134 39.8223 160.134 45.3282C160.179 45.8611 160.179 46.3496 160.179 47.1046L160.179 47.1046Z" fill="white"/>
</g>
<g clip-path="url(#clip5_193_25786)">
<rect x="92.0195" y="0.523438" width="0.577252" height="75.9523" fill="white"/>
</g>
</g>
<g clip-path="url(#clip6_193_25786)">
<g clip-path="url(#clip7_193_25786)">
<g clip-path="url(#clip8_193_25786)">
<path d="M52.0232 32.6788V31.8234C52.0232 31.5266 51.942 31.25 51.8038 31.0122C51.4535 29.5391 50.6903 28.1565 49.5638 26.9875C47.5414 24.8914 44.5289 23.6414 41.5072 23.6414H38.917C37.0438 23.6414 35.3035 22.3657 34.9993 20.5183C34.6121 18.1659 36.4244 16.125 38.7049 16.125C38.834 16.125 38.9612 16.1305 39.0866 16.1435C40.9689 16.3352 42.442 17.93 42.442 19.862C42.442 20.3156 42.6281 20.7267 42.9287 21.0217C43.2236 21.3222 43.6348 21.5102 44.0901 21.5102C44.988 21.5102 45.7162 20.782 45.7162 19.8823C45.7162 16.1361 42.7646 13.0664 39.0644 12.8803C38.7049 12.8619 38.3381 12.8711 37.9657 12.9079C34.9974 13.2103 32.4348 15.4964 31.8412 18.4203C30.9249 22.9241 34.3596 26.8954 38.705 26.8954H41.5072C43.6329 26.8954 45.8213 27.7969 47.2224 29.2479C47.9101 29.9613 48.7102 31.1228 48.7692 32.6935V47.0202H46.45C45.5521 47.0202 44.8221 47.7485 44.8221 48.6481V60.2425C44.8221 62.3923 43.0798 64.1363 40.9302 64.1363H36.9185C34.7688 64.1363 33.0266 62.3923 33.0266 60.2425V48.6481C33.0266 47.7485 32.2984 47.0202 31.3987 47.0202H28.6407V31.6169C28.6407 30.59 29.4648 29.9963 30.4898 29.9872C31.3821 29.9798 32.103 29.2552 32.103 28.361C32.103 27.4614 31.3748 26.7331 30.4769 26.7331C27.6691 26.7331 25.3867 29.0155 25.3867 31.8233V48.6481C25.3867 49.546 26.1149 50.2742 27.0128 50.2742H29.7727V61.8705C29.7727 64.9181 32.2431 67.3903 35.2924 67.3903H42.5581C45.6056 67.3903 48.0779 64.9181 48.0779 61.8705V50.2742H50.3953C51.295 50.2742 52.0232 49.546 52.0232 48.6481V33.0494C52.025 32.9258 52.025 32.8023 52.0232 32.6788L52.0232 32.6788Z" fill="url(#paint0_linear_193_25786)"/>
<path d="M49.0515 17.1607C48.2827 12.2493 44.0332 8.49219 38.9061 8.49219L38.8471 8.49396L38.7863 8.49219C33.6592 8.49219 29.4097 12.2493 28.6409 17.1607C27.2821 17.6623 26.3438 18.7259 26.3438 19.9594C26.3438 21.6758 28.1542 23.0677 30.3886 23.0677V16.8529H30.3868C31.257 13.0164 34.6861 10.1495 38.7863 10.1495L38.8471 10.1514L38.9061 10.1495C43.0063 10.1495 46.4354 13.0164 47.3056 16.8529H47.3037V23.0677C49.5382 23.0677 51.3486 21.6758 51.3486 19.9594C51.3486 18.7259 50.4102 17.6623 49.0515 17.1607H49.0515Z" fill="url(#paint1_linear_193_25786)"/>
</g>
<path d="M42.9843 39.9336C43.0691 40.1401 43.1318 40.3593 43.1761 40.5917C43.2185 40.8222 43.2387 41.0784 43.2387 41.3588C43.2387 41.4564 43.2369 41.5577 43.2295 41.6611C43.224 41.7643 43.2148 41.8657 43.2037 41.9616C43.0802 42.8759 42.6543 43.6374 41.9224 44.2476C41.4117 44.6736 40.7591 44.9667 39.9682 45.1252C39.9055 45.186 39.852 45.2505 39.8023 45.3169C39.7543 45.3832 39.7304 45.4477 39.7304 45.5086V46.1484C39.7304 46.4286 39.6326 46.6702 39.4372 46.8711C39.2418 47.0721 39.004 47.1716 38.7238 47.1716C38.4435 47.1716 38.2002 47.0721 37.9937 46.8711C37.7853 46.6702 37.6821 46.4286 37.6821 46.1484V45.4902C37.6821 45.3317 37.6268 45.2045 37.518 45.1067C37.1401 45.0091 36.775 44.8745 36.4211 44.7048C36.0671 44.5333 35.7389 44.3139 35.4347 44.0467C35.031 43.6927 34.7213 43.2852 34.5019 42.8225C34.2825 42.3579 34.1719 41.9025 34.1719 41.451V41.1393C34.1719 40.8112 34.2917 40.5272 34.5295 40.2893C34.7674 40.0516 35.0439 39.9336 35.361 39.9336C35.7021 39.9336 35.986 40.0516 36.2109 40.2893C36.4358 40.5272 36.5483 40.8112 36.5483 41.1393V41.3053C36.5483 41.4029 36.6091 41.5725 36.7327 41.8159V41.7975C36.7935 41.9081 36.8543 42.0076 36.9152 42.0997C36.976 42.1902 37.0479 42.2675 37.1346 42.3285C37.3042 42.4631 37.5088 42.5866 37.7466 42.7027C37.9845 42.8189 38.2979 42.8759 38.6869 42.8759C39.1386 42.8759 39.5073 42.8281 39.793 42.7303C40.0806 42.6326 40.3 42.5146 40.4512 42.3746C40.6042 42.2344 40.7111 42.0942 40.772 41.9542C40.8328 41.8141 40.8697 41.7072 40.8808 41.6334C40.9047 41.3901 40.8808 41.1707 40.8089 40.9752C40.7351 40.7798 40.6005 40.5955 40.407 40.4184C40.2115 40.2414 39.9461 40.0774 39.6105 39.9244C39.275 39.7713 38.8528 39.6165 38.3403 39.458C37.4867 39.1906 36.7566 38.8367 36.1464 38.3978C35.6597 38.0199 35.2946 37.5996 35.0494 37.1368C34.7581 36.5875 34.6475 35.9606 34.7213 35.2545C34.795 34.8396 34.9241 34.4562 35.1139 34.1022C35.302 33.7482 35.5675 33.4385 35.9085 33.1694H35.9454C36.4082 32.8412 36.9207 32.6089 37.4811 32.4743C37.6157 32.3656 37.6821 32.2383 37.6821 32.0909V31.3424C37.6821 31.0621 37.7853 30.8187 37.9937 30.6104C38.2002 30.404 38.4435 30.3008 38.7237 30.3008C39.004 30.3008 39.2418 30.404 39.4372 30.6104C39.6326 30.8187 39.7304 31.0621 39.7304 31.3424V32.1277C39.7304 32.1886 39.758 32.2568 39.8115 32.3287C39.8668 32.4025 39.9239 32.4689 39.9848 32.5296C40.265 32.6274 40.5286 32.7379 40.772 32.8597C41.0153 32.9813 41.2532 33.1454 41.4836 33.3519H41.4486L41.5389 33.4072C41.88 33.7243 42.151 34.0838 42.352 34.4858C42.5548 34.8876 42.6543 35.2895 42.6543 35.6933C42.6543 36.0214 42.5363 36.3017 42.2985 36.534C42.0607 36.7644 41.7823 36.8805 41.467 36.8805C41.137 36.8805 40.8568 36.7644 40.6245 36.534C40.394 36.3017 40.2779 36.0214 40.2779 35.6933C40.2779 35.6195 40.2484 35.5274 40.1876 35.4186C40.1249 35.308 40.029 35.1992 39.8944 35.0886C39.7598 34.9798 39.5921 34.8858 39.3911 34.8065C39.1902 34.7272 38.956 34.6866 38.6869 34.6866C38.1633 34.6866 37.7245 34.8158 37.3724 35.0701C37.2618 35.1678 37.1862 35.2601 37.1438 35.3449C37.0995 35.4296 37.0737 35.5034 37.0608 35.5642C37.0239 35.7597 37.0645 35.9422 37.1788 36.1136C37.2949 36.2832 37.4516 36.4362 37.6452 36.5709C37.8407 36.7036 38.0637 36.8234 38.3126 36.9266C38.5633 37.0299 38.803 37.1184 39.0353 37.1921C39.511 37.3378 40.0069 37.511 40.5249 37.7121C41.043 37.913 41.5021 38.1785 41.9058 38.5084C42.1492 38.7021 42.3612 38.9214 42.5456 39.1648C42.7281 39.41 42.8737 39.6663 42.9843 39.9336V39.9336Z" fill="url(#paint2_linear_193_25786)"/>
</g>
<path fill-rule="evenodd" clip-rule="evenodd" d="M38.324 0C17.1917 0 0 17.1916 0 38.3238C0 59.4561 17.1917 76.6494 38.324 76.6494C59.4562 76.6494 76.6479 59.4561 76.6479 38.3238C76.6479 17.1916 59.4562 0 38.324 0ZM38.3239 74.0991C18.5991 74.0991 2.55029 58.0502 2.55029 38.3238C2.55029 18.599 18.5991 2.55023 38.3239 2.55023C58.0503 2.55023 74.0975 18.599 74.0975 38.3238C74.0975 58.0502 58.0503 74.0991 38.3239 74.0991Z" fill="url(#paint3_linear_193_25786)"/>
<path fill-rule="evenodd" clip-rule="evenodd" d="M38.324 0C17.1917 0 0 17.1916 0 38.3238C0 59.4561 17.1917 76.6494 38.324 76.6494C59.4562 76.6494 76.6479 59.4561 76.6479 38.3238C76.6479 17.1916 59.4562 0 38.324 0ZM38.3239 74.0991C18.5991 74.0991 2.55029 58.0502 2.55029 38.3238C2.55029 18.599 18.5991 2.55023 38.3239 2.55023C58.0503 2.55023 74.0975 18.599 74.0975 38.3238C74.0975 58.0502 58.0503 74.0991 38.3239 74.0991Z" fill="url(#paint4_linear_193_25786)"/>
</g>
</g>
<path d="M273.657 65.9451V65.2704C273.235 65.7763 272.687 66.0717 271.97 66.0717C271.675 66.0717 271.379 66.0295 271.084 65.903C270.831 65.8186 270.62 65.65 270.493 65.5233C270.367 65.3546 270.283 65.1859 270.198 64.9328C270.156 64.7642 270.156 64.5532 270.156 64.2159V61.3477H271.042V63.9207C271.042 64.3424 271.042 64.5954 271.084 64.7642C271.127 64.9751 271.253 65.1438 271.464 65.2704C271.632 65.3967 271.886 65.439 272.139 65.439C272.392 65.439 272.645 65.3967 272.898 65.2704C273.151 65.1438 273.32 64.9751 273.404 64.7642C273.488 64.5532 273.573 64.258 273.573 63.8362V61.3477H274.458V65.9874H273.657L273.657 65.9451Z" fill="url(#paint5_linear_193_25786)"/>
<path fill-rule="evenodd" clip-rule="evenodd" d="M279.098 60.5027V59.6172H279.983V60.5027H279.098ZM279.098 65.9437V61.3462H279.983V65.9437H279.098Z" fill="url(#paint6_linear_193_25786)"/>
<path d="M262.691 65.9451V58.7324H264.083L265.728 63.836C265.897 64.3 265.981 64.6795 266.066 64.8904C266.15 64.6373 266.276 64.2578 266.445 63.7516L268.132 58.7324H269.398V65.9451H268.512V59.9135L266.487 65.9451H265.644L263.619 59.787V65.9451H262.691Z" fill="url(#paint7_linear_193_25786)"/>
<path d="M284.455 64.3007H285.296C285.26 64.5179 285.172 64.7364 285.05 65.0177C284.848 65.3695 284.655 65.4945 284.474 65.6351C284.416 65.6761 284.477 65.6366 284.334 65.7157C284.013 65.899 283.468 66.0073 282.959 66.0073C282.2 66.0073 281.713 65.819 281.249 65.4395C280.785 65.0177 280.574 64.4695 280.574 63.7103C280.574 63.2041 280.659 62.7823 280.869 62.4026C281.08 62.0232 281.434 61.7072 281.856 61.496C282.277 61.3275 282.453 61.2773 282.959 61.2773C283.549 61.2773 284.075 61.3949 284.455 61.6479C284.834 61.9009 285.17 62.3605 285.296 62.8245H284.455C284.37 62.5291 284.153 62.3172 283.942 62.1908C283.731 62.0642 283.4 61.9552 283.105 61.9552C282.641 61.9552 282.231 62.1073 281.936 62.4026C281.64 62.6978 281.453 63.1198 281.453 63.7103C281.453 64.3007 281.641 64.6768 281.936 64.972C282.042 65.0785 282.238 65.1314 282.417 65.1939C282.489 65.2193 282.584 65.2495 282.745 65.2571L282.89 65.2759H283.039H283.166L283.439 65.2571L283.676 65.1897L283.778 65.1496L284.041 64.972L284.135 64.8884C284.143 64.8776 284.192 64.8245 284.261 64.747C284.334 64.655 284.338 64.6488 284.455 64.3007H284.455Z" fill="url(#paint8_linear_193_25786)"/>
<path d="M277.746 63.5317C277.578 63.4475 277.241 63.3714 276.862 63.2448C276.819 63.2448 276.904 63.2448 276.862 63.2448C276.524 63.1605 276.145 63.0339 276.102 62.9917C275.976 62.9495 275.892 62.8652 275.849 62.7808C275.807 62.6964 275.765 62.6121 275.765 62.5279C275.765 62.359 275.849 62.2326 275.976 62.1059C276.102 61.9794 276.355 61.9372 276.651 61.9372C276.904 61.9372 277.367 62.1604 277.494 62.3291L277.537 62.3768L277.559 62.4075L278.253 62.179L278.007 61.8638L277.767 61.6404C277.761 61.6324 277.594 61.5011 277.297 61.4116C277.296 61.4116 276.963 61.3184 276.651 61.3184C276.44 61.3184 276.145 61.3468 275.976 61.3889C275.807 61.4311 275.638 61.5153 275.554 61.5997C275.427 61.7263 275.301 61.8529 275.216 62.0216C275.132 62.1904 275.09 62.4013 275.09 62.5699C275.09 62.7808 275.132 62.9917 275.259 63.1604C275.343 63.3292 275.512 63.4978 275.723 63.5822C275.849 63.6665 276.06 63.7509 276.355 63.8353C276.482 63.8773 276.608 63.9197 276.777 63.9618C277.157 64.0462 277.41 64.1727 277.494 64.2149C277.621 64.2991 277.705 64.468 277.705 64.6366C277.705 64.8475 277.621 65.0161 277.494 65.1427C277.325 65.2693 277.115 65.3535 276.777 65.3535C276.482 65.3535 276.229 65.2693 276.06 65.1005C275.892 64.974 275.892 64.8897 275.849 64.8055L275.09 65.1005C275.174 65.3114 275.385 65.4958 275.554 65.6645C275.849 65.9175 276.271 66.0285 276.819 66.0285C277.157 66.0285 277.41 65.9863 277.663 65.8599C277.785 65.7985 277.887 65.7561 278.034 65.6451L278.152 65.546L278.21 65.4863L278.253 65.4341L278.357 65.3197L278.414 65.2051L278.46 65.1005L278.505 64.9881L278.532 64.8055V64.6709V64.5426L278.505 64.3335L278.48 64.2149L278.46 64.1214L278.414 63.9986L278.326 63.861C278.326 63.861 278.242 63.7814 278.185 63.7341C278.127 63.6868 278.042 63.6462 278.042 63.6462L277.746 63.5317Z" fill="url(#paint9_linear_193_25786)"/>
</g>
</g>
<defs>
<linearGradient id="paint0_linear_193_25786" x1="20.7803" y1="2.5127" x2="20.7803" y2="75.8875" gradientUnits="userSpaceOnUse">
<stop stop-color="#FA9C74"/>
<stop offset="1" stop-color="#FF0093"/>
</linearGradient>
<linearGradient id="paint1_linear_193_25786" x1="-24.0925" y1="2.51237" x2="-24.0925" y2="75.8871" gradientUnits="userSpaceOnUse">
<stop stop-color="#FFA85B"/>
<stop offset="0.334975" stop-color="#FF706E"/>
<stop offset="1" stop-color="#FF0093"/>
</linearGradient>
<linearGradient id="paint2_linear_193_25786" x1="18.9892" y1="2.5131" x2="18.9892" y2="75.8876" gradientUnits="userSpaceOnUse">
<stop stop-color="#FA9C74"/>
<stop offset="1" stop-color="#FF0093"/>
</linearGradient>
<linearGradient id="paint3_linear_193_25786" x1="7.17002" y1="7.44663" x2="7.17002" y2="69.7562" gradientUnits="userSpaceOnUse">
<stop stop-color="#FA9C74"/>
<stop offset="1" stop-color="#F85A89"/>
</linearGradient>
<linearGradient id="paint4_linear_193_25786" x1="0" y1="0" x2="0" y2="76.6494" gradientUnits="userSpaceOnUse">
<stop stop-color="#FFA85B"/>
<stop offset="1" stop-color="#FF0093"/>
</linearGradient>
<linearGradient id="paint5_linear_193_25786" x1="290.686" y1="48.7264" x2="263.43" y2="48.7264" gradientUnits="userSpaceOnUse">
<stop stop-color="#FCD85E"/>
<stop offset="1" stop-color="#EF548C"/>
</linearGradient>
<linearGradient id="paint6_linear_193_25786" x1="290.683" y1="-34.5608" x2="263.432" y2="-34.5608" gradientUnits="userSpaceOnUse">
<stop stop-color="#FCD85E"/>
<stop offset="1" stop-color="#EF548C"/>
</linearGradient>
<linearGradient id="paint7_linear_193_25786" x1="290.685" y1="47.6828" x2="263.431" y2="47.6828" gradientUnits="userSpaceOnUse">
<stop stop-color="#FCD85E"/>
<stop offset="1" stop-color="#EF548C"/>
</linearGradient>
<linearGradient id="paint8_linear_193_25786" x1="290.503" y1="50.2804" x2="263.738" y2="50.2804" gradientUnits="userSpaceOnUse">
<stop stop-color="#FCD85E"/>
<stop offset="1" stop-color="#EF548C"/>
</linearGradient>
<linearGradient id="paint9_linear_193_25786" x1="290.996" y1="44.6805" x2="263.195" y2="44.6805" gradientUnits="userSpaceOnUse">
<stop stop-color="#FCD85E"/>
<stop offset="1" stop-color="#EF548C"/>
</linearGradient>
<clipPath id="clip0_193_25786">
<rect width="285.296" height="76.6494" fill="white"/>
</clipPath>
<clipPath id="clip1_193_25786">
<rect width="285.296" height="76.6494" fill="white"/>
</clipPath>
<clipPath id="clip2_193_25786">
<rect width="268.97" height="76.6494" fill="white"/>
</clipPath>
<clipPath id="clip3_193_25786">
<rect width="176.95" height="75.9523" fill="white" transform="translate(92.0195 0.523438)"/>
</clipPath>
<clipPath id="clip4_193_25786">
<rect width="160.986" height="29.0848" fill="white" transform="translate(107.984 24.9902)"/>
</clipPath>
<clipPath id="clip5_193_25786">
<rect width="0.577252" height="75.9523" fill="white" transform="translate(92.0195 0.523438)"/>
</clipPath>
<clipPath id="clip6_193_25786">
<rect width="76.6479" height="76.6494" fill="white"/>
</clipPath>
<clipPath id="clip7_193_25786">
<rect width="26.6379" height="58.8977" fill="white" transform="translate(25.3867 8.49219)"/>
</clipPath>
<clipPath id="clip8_193_25786">
<rect width="26.6379" height="58.8977" fill="white" transform="translate(25.3867 8.49219)"/>
</clipPath>
</defs>
</svg>
