<svg xmlns="http://www.w3.org/2000/svg" xmlns:xlink="http://www.w3.org/1999/xlink" width="118" height="118" viewBox="0 0 118 118">
  <defs>
    <style>
      .cls-1 {
        fill: #444;
      }

      .cls-2, .cls-5 {
        fill: none;
      }

      .cls-2 {
        stroke: #444;
        stroke-width: 3px;
      }

      .cls-3 {
        fill: url(#linear-gradient);
      }

      .cls-4 {
        stroke: none;
      }
    </style>
    <linearGradient id="linear-gradient" x1="0.5" y1="-1.647" x2="0.5" y2="2.702" gradientUnits="objectBoundingBox">
      <stop offset="0" stop-color="#fa9c74"/>
      <stop offset="1" stop-color="#ff0093"/>
    </linearGradient>
  </defs>
  <g id="Group_2887" data-name="Group 2887" transform="translate(-511 -2522)">
    <g id="medal" transform="translate(509.072 2546)">
      <g id="Group_2336" data-name="Group 2336" transform="translate(29.928 0)">
        <g id="Group_2335" data-name="Group 2335" transform="translate(0)">
          <path id="Path_2778" data-name="Path 2778" class="cls-1" d="M91.6,60.112,80.3,40.442a24.9,24.9,0,1,0-38.878,0L30.11,60.112a1.368,1.368,0,0,0,1.368,2.038L40.3,60.965,43.691,69.2a1.368,1.368,0,0,0,1.174.845q.046,0,.092,0a1.368,1.368,0,0,0,1.185-.684L57.557,49.591l0-.009a24.964,24.964,0,0,0,6.591,0l0,.009L75.574,69.365a1.368,1.368,0,0,0,1.185.684q.046,0,.092,0a1.368,1.368,0,0,0,1.174-.845l3.387-8.236,8.826,1.185A1.368,1.368,0,0,0,91.6,60.112ZM45.163,65.586l-2.465-6,2.212-3.61a1.368,1.368,0,1,0-2.333-1.43L40.341,58.2l-6.475.869,9.478-16.486a24.9,24.9,0,0,0,11.375,6.452ZM60.857,47.064A22.164,22.164,0,1,1,83.021,24.9,22.189,22.189,0,0,1,60.857,47.064ZM81.373,58.2,79.138,54.55A1.368,1.368,0,0,0,76.8,55.98l2.212,3.61-2.465,6L67,49.034a24.9,24.9,0,0,0,11.375-6.452l9.478,16.486Z" transform="translate(-29.928 0)"/>
        </g>
      </g>
      <g id="Group_2338" data-name="Group 2338" transform="translate(51.448 7.114)">
        <g id="Group_2337" data-name="Group 2337">
          <path id="Path_2779" data-name="Path 2779" class="cls-1" d="M196.636,52a17.794,17.794,0,0,0-8.711,2.276,1.368,1.368,0,1,0,1.342,2.385,15.056,15.056,0,0,1,20.959,19.6,1.368,1.368,0,1,0,2.469,1.179,17.628,17.628,0,0,0,1.727-7.655A17.806,17.806,0,0,0,196.636,52Z" transform="translate(-187.227 -52)"/>
        </g>
      </g>
      <g id="Group_2340" data-name="Group 2340" transform="translate(71.234 34.97)">
        <g id="Group_2339" data-name="Group 2339" transform="translate(0)">
          <path id="Path_2780" data-name="Path 2780" class="cls-1" d="M334.2,255.985a1.368,1.368,0,0,0-1.935.029l-.03.031a1.368,1.368,0,1,0,1.958,1.912l.036-.037A1.368,1.368,0,0,0,334.2,255.985Z" transform="translate(-331.843 -255.598)"/>
        </g>
      </g>
      <g id="Group_2342" data-name="Group 2342" transform="translate(43.071 16.733)">
        <g id="Group_2341" data-name="Group 2341" transform="translate(0)">
          <path id="Path_2781" data-name="Path 2781" class="cls-1" d="M152.892,144.2a1.368,1.368,0,0,0-1.858-.538,15.057,15.057,0,0,1-20.955-19.422,1.368,1.368,0,1,0-2.49-1.134,17.792,17.792,0,0,0,24.766,22.953A1.368,1.368,0,0,0,152.892,144.2Z" transform="translate(-125.996 -122.306)"/>
        </g>
      </g>
      <g id="Group_2344" data-name="Group 2344" transform="translate(47.448 12.343)">
        <g id="Group_2343" data-name="Group 2343">
          <path id="Path_2782" data-name="Path 2782" class="cls-1" d="M160.312,90.583a1.368,1.368,0,0,0-1.934.069l-.03.033a1.368,1.368,0,1,0,2.008,1.858l.024-.026A1.368,1.368,0,0,0,160.312,90.583Z" transform="translate(-157.984 -90.216)"/>
        </g>
      </g>
    </g>
    <g id="Ellipse_160" data-name="Ellipse 160" class="cls-2" transform="translate(511 2522)">
      <circle class="cls-4" cx="59" cy="59" r="59"/>
      <circle class="cls-5" cx="59" cy="59" r="57.5"/>
    </g>
    <g id="Group_2886" data-name="Group 2886" transform="translate(617.013 2685.286)">
      <path id="Path_86" data-name="Path 86" class="cls-3" d="M34.646,359.222a4.121,4.121,0,0,1,.232.8,5.167,5.167,0,0,1,.076.93c0,.118,0,.241-.011.367s-.018.248-.031.364a4.239,4.239,0,0,1-1.554,2.772,5.239,5.239,0,0,1-2.369,1.064,1.945,1.945,0,0,0-.2.232.4.4,0,0,0-.087.232v.776a1.213,1.213,0,0,1-.355.876,1.159,1.159,0,0,1-.865.364,1.226,1.226,0,0,1-.885-.364,1.174,1.174,0,0,1-.378-.876v-.8a.6.6,0,0,0-.2-.465,7.29,7.29,0,0,1-1.33-.487,5.321,5.321,0,0,1-1.2-.8,4.552,4.552,0,0,1-1.131-1.484,3.869,3.869,0,0,1-.4-1.663v-.378a1.41,1.41,0,0,1,.434-1.03,1.38,1.38,0,0,1,1.008-.431,1.359,1.359,0,0,1,1.03.431,1.45,1.45,0,0,1,.409,1.03v.2a1.7,1.7,0,0,0,.224.619v-.022c.074.134.148.255.221.367a1.047,1.047,0,0,0,.266.277,4.049,4.049,0,0,0,.742.454,2.616,2.616,0,0,0,1.14.21,4.226,4.226,0,0,0,1.341-.177,2.217,2.217,0,0,0,.8-.431,1.55,1.55,0,0,0,.389-.51,1.75,1.75,0,0,0,.132-.389,1.6,1.6,0,0,0-.574-1.473,3.764,3.764,0,0,0-.966-.6,13.1,13.1,0,0,0-1.54-.565,9.256,9.256,0,0,1-2.66-1.285,4.79,4.79,0,0,1-1.33-1.529,3.9,3.9,0,0,1-.4-2.282,4.649,4.649,0,0,1,.476-1.4,3.577,3.577,0,0,1,.963-1.131h.045a5.349,5.349,0,0,1,1.862-.843.582.582,0,0,0,.244-.465v-.907a1.287,1.287,0,0,1,1.263-1.263,1.146,1.146,0,0,1,.865.376,1.254,1.254,0,0,1,.355.887v.952a.424.424,0,0,0,.1.244,2.247,2.247,0,0,0,.21.244,8.106,8.106,0,0,1,.954.4,3.932,3.932,0,0,1,.863.6h-.042l.11.067a4.562,4.562,0,0,1,.986,1.308,3.218,3.218,0,0,1,.367,1.464,1.372,1.372,0,0,1-.431,1.019,1.435,1.435,0,0,1-2.45-1.019.719.719,0,0,0-.11-.333,1.468,1.468,0,0,0-.355-.4,2.3,2.3,0,0,0-1.464-.487,2.652,2.652,0,0,0-1.594.465,1.164,1.164,0,0,0-.277.333,1.061,1.061,0,0,0-.1.266.869.869,0,0,0,.143.666,2.191,2.191,0,0,0,.566.554,4.516,4.516,0,0,0,.809.431c.3.125.595.233.876.322q.865.265,1.806.63a6.118,6.118,0,0,1,1.674.966,4.422,4.422,0,0,1,.776.8A4.329,4.329,0,0,1,34.646,359.222Z" transform="translate(-76.961 -472.542)"/>
    </g>
  </g>
</svg>
