<svg id="earnings" xmlns="http://www.w3.org/2000/svg" xmlns:xlink="http://www.w3.org/1999/xlink" width="40.698" height="40.699" viewBox="0 0 40.698 40.699">
  <defs>
    <style>
      .cls-1 {
        fill: url(#linear-gradient);
      }
    </style>
    <linearGradient id="linear-gradient" x1="0.5" x2="0.5" y2="1" gradientUnits="objectBoundingBox">
      <stop offset="0" stop-color="#dba650"/>
      <stop offset="1" stop-color="#fd4882"/>
    </linearGradient>
  </defs>
  <path id="Path_1537" data-name="Path 1537" class="cls-1" d="M10.731,362H1.192A1.192,1.192,0,0,0,0,363.192v9.539a1.192,1.192,0,0,0,1.192,1.192h9.539a1.192,1.192,0,0,0,1.192-1.192v-9.539A1.192,1.192,0,0,0,10.731,362Zm-1.192,2.385v2.385H2.385v-2.385Zm0,7.154H2.385v-2.385H9.539Zm0,0" transform="translate(0 -333.225)"/>
  <path id="Path_1538" data-name="Path 1538" class="cls-1" d="M191.731,302h-9.539A1.192,1.192,0,0,0,181,303.192V317.5a1.192,1.192,0,0,0,1.192,1.192h9.539a1.192,1.192,0,0,0,1.192-1.192V303.192A1.192,1.192,0,0,0,191.731,302Zm-8.346,7.154h7.154v2.385h-7.154Zm7.154-4.769v2.385h-7.154v-2.385Zm0,11.923h-7.154v-2.385h7.154Zm0,0" transform="translate(-166.612 -277.994)"/>
  <path id="Path_1539" data-name="Path 1539" class="cls-1" d="M372.731,182h-9.539A1.192,1.192,0,0,0,362,183.192v23.847a1.192,1.192,0,0,0,1.192,1.192h9.539a1.192,1.192,0,0,0,1.192-1.192V183.192A1.192,1.192,0,0,0,372.731,182Zm-8.346,14.308v-2.385h7.154v2.385Zm7.154-4.769h-7.154v-2.385h7.154Zm-7.154,7.154h7.154v2.385h-7.154Zm7.154-14.308v2.385h-7.154v-2.385Zm0,21.462h-7.154v-2.385h7.154Zm0,0" transform="translate(-333.225 -167.533)"/>
  <path id="Path_1540" data-name="Path 1540" class="cls-1" d="M62.193,21.541a1.188,1.188,0,0,0,.843-.349l8.7-8.7,3.926,3.926a1.192,1.192,0,0,0,1.689,0L89.616,4.081V5.961a1.192,1.192,0,1,0,2.385,0V1.19A1.192,1.192,0,0,0,90.843,0l-.034,0H86.039a1.192,1.192,0,0,0,0,2.385h1.9L76.5,13.891,72.574,9.967a1.192,1.192,0,0,0-1.686,0L61.35,19.505a1.192,1.192,0,0,0,.843,2.035Zm0,0" transform="translate(-56.151 0.001)"/>
</svg>
