<svg xmlns="http://www.w3.org/2000/svg" width="118" height="118" viewBox="0 0 118 118">
  <defs>
    <style>
      .cls-1 {
        fill: #444;
        stroke: #f1f1f1;
      }

      .cls-2, .cls-4 {
        fill: none;
      }

      .cls-2 {
        stroke: #444;
        stroke-width: 3px;
      }

      .cls-3 {
        stroke: none;
      }
    </style>
  </defs>
  <g id="Group_2890" data-name="Group 2890" transform="translate(-868 -3245)">
    <path id="refer" class="cls-1" d="M30.87,33.455c.208.008.417.013.627.013.2,0,.389,0,.583-.012A27.1,27.1,0,0,1,44.65,36.849a2.461,2.461,0,1,0,2.394-4.3,31.773,31.773,0,0,0-5.529-2.418,16.733,16.733,0,1,0-20.027.006A32,32,0,0,0,.158,53.982,7.476,7.476,0,0,0,7.466,63H26.7a2.461,2.461,0,0,0,0-4.922H7.466A2.5,2.5,0,0,1,5.5,57.141a2.571,2.571,0,0,1-.521-2.156A27.188,27.188,0,0,1,30.87,33.455ZM19.686,16.734a11.812,11.812,0,1,1,12.4,11.8q-.293-.006-.586-.006c-.192,0-.384,0-.576.006a11.826,11.826,0,0,1-11.236-11.8ZM63,45.751A6.082,6.082,0,0,1,61.188,50.1l-4.577,4.552a2.461,2.461,0,1,1-3.471-3.489l3.068-3.051H42.262a4.982,4.982,0,0,0-.06,9.964A2.461,2.461,0,1,1,42.2,63a9.747,9.747,0,0,1-6.983-2.91,9.925,9.925,0,0,1,7.043-16.9h13.72l-2.837-2.805a2.461,2.461,0,1,1,3.461-3.5l4.57,4.519A6.083,6.083,0,0,1,63,45.751Zm0,0" transform="translate(895.5 3270.5)"/>
    <g id="Ellipse_159" data-name="Ellipse 159" class="cls-2" transform="translate(868 3245)">
      <circle class="cls-3" cx="59" cy="59" r="59"/>
      <circle class="cls-4" cx="59" cy="59" r="57.5"/>
    </g>
  </g>
</svg>
