<svg id="Group_93" data-name="Group 93" xmlns="http://www.w3.org/2000/svg" xmlns:xlink="http://www.w3.org/1999/xlink" width="139.853" height="139.855" viewBox="0 0 139.853 139.855">
  <defs>
    <style>
      .cls-1 {
        fill: #fff;
      }

      .cls-2 {
        fill: url(#linear-gradient);
      }

      .cls-3 {
        fill: url(#linear-gradient-2);
      }

      .cls-4 {
        fill: url(#linear-gradient-3);
      }

      .cls-5 {
        fill: url(#linear-gradient-4);
      }

      .cls-6 {
        fill: url(#linear-gradient-5);
      }
    </style>
    <linearGradient id="linear-gradient" x1="0.5" y1="-0.19" x2="0.5" y2="1.156" gradientUnits="objectBoundingBox">
      <stop offset="0" stop-color="#fa9c74"/>
      <stop offset="1" stop-color="#ff0093"/>
    </linearGradient>
    <linearGradient id="linear-gradient-2" x1="0.5" y1="-0.41" x2="0.5" y2="4.624" gradientUnits="objectBoundingBox">
      <stop offset="0" stop-color="#ffa85b"/>
      <stop offset="1" stop-color="#ff0093"/>
    </linearGradient>
    <linearGradient id="linear-gradient-3" x1="0.5" y1="-1.647" x2="0.5" y2="2.702" xlink:href="#linear-gradient"/>
    <linearGradient id="linear-gradient-4" x1="0.5" y1="0.097" x2="0.5" y2="0.91" gradientUnits="objectBoundingBox">
      <stop offset="0" stop-color="#fa9c74"/>
      <stop offset="1" stop-color="#f85a89"/>
    </linearGradient>
    <linearGradient id="linear-gradient-5" y1="0" y2="1" xlink:href="#linear-gradient-2"/>
  </defs>
  <g id="Group_92" data-name="Group 92" transform="translate(46.323 15.495)">
    <g id="Group_90" data-name="Group 90">
      <g id="Group_89" data-name="Group 89" transform="translate(25.273 97.414)">
        <path id="Path_83" data-name="Path 83" class="cls-1" d="M26.709,364.672" transform="translate(-26.709 -364.672)"/>
      </g>
      <path id="Path_84" data-name="Path 84" class="cls-2" d="M67.8,374.229v-1.561a2.934,2.934,0,0,0-.4-1.48,15.9,15.9,0,0,0-4.087-7.344,20.75,20.75,0,0,0-14.7-6.105H43.883a7.13,7.13,0,0,1-7.148-5.7,6.866,6.866,0,0,1,6.761-8.016,6.8,6.8,0,0,1,6.819,6.819,2.987,2.987,0,1,0,5.974.037A12.805,12.805,0,0,0,44.153,338.1a13.438,13.438,0,0,0-2,.05A12.8,12.8,0,0,0,43.5,363.677H48.61a14.914,14.914,0,0,1,10.428,4.292,9.605,9.605,0,0,1,2.822,6.287V400.4H57.628a2.971,2.971,0,0,0-2.97,2.97v21.155a7.1,7.1,0,0,1-7.1,7.1h-7.32a7.1,7.1,0,0,1-7.1-7.1V403.367a2.969,2.969,0,0,0-2.97-2.97H25.133v-28.1c0-1.874,1.5-2.957,3.374-2.974a2.969,2.969,0,0,0-.024-5.937,9.3,9.3,0,0,0-9.288,9.288v30.7a2.968,2.968,0,0,0,2.967,2.967H27.2v21.159A10.071,10.071,0,0,0,37.27,437.564H50.527A10.074,10.074,0,0,0,60.6,427.493V406.334h4.228a2.968,2.968,0,0,0,2.97-2.967V374.905Q67.8,374.567,67.8,374.229Z" transform="translate(-19.196 -330.099)"/>
      <path id="Path_85" data-name="Path 85" class="cls-3" d="M61.148,351.53a18.742,18.742,0,0,0-18.511-15.817l-.108,0-.111,0A18.742,18.742,0,0,0,23.906,351.53c-2.479.915-4.191,2.856-4.191,5.106,0,3.132,3.3,5.672,7.38,5.672v-11.34h0a15.725,15.725,0,0,1,15.326-12.231l.111,0,.108,0a15.725,15.725,0,0,1,15.326,12.231h0v11.34c4.077,0,7.38-2.54,7.38-5.672C65.339,354.386,63.627,352.445,61.148,351.53Z" transform="translate(-17.969 -335.713)"/>
    </g>
    <g id="Group_91" data-name="Group 91" transform="translate(16.029 39.791)">
      <path id="Path_86" data-name="Path 86" class="cls-4" d="M40.04,365.118a6.2,6.2,0,0,1,.35,1.2,7.776,7.776,0,0,1,.114,1.4c0,.178,0,.363-.017.552s-.027.373-.047.548A6.38,6.38,0,0,1,38.1,372.99a7.885,7.885,0,0,1-3.566,1.6,2.924,2.924,0,0,0-.3.35.6.6,0,0,0-.131.35v1.167a1.826,1.826,0,0,1-.535,1.319,1.745,1.745,0,0,1-1.3.548,1.845,1.845,0,0,1-1.332-.548,1.767,1.767,0,0,1-.569-1.319v-1.2a.9.9,0,0,0-.3-.7,10.967,10.967,0,0,1-2-.733,8.008,8.008,0,0,1-1.8-1.2,6.85,6.85,0,0,1-1.7-2.234,5.823,5.823,0,0,1-.6-2.5v-.569a2.121,2.121,0,0,1,.653-1.551,2.076,2.076,0,0,1,1.517-.649,2.044,2.044,0,0,1,1.551.649,2.182,2.182,0,0,1,.616,1.551v.3a2.55,2.55,0,0,0,.336.932v-.034c.111.2.222.383.333.552a1.574,1.574,0,0,0,.4.417,6.093,6.093,0,0,0,1.117.683,3.938,3.938,0,0,0,1.716.316,6.358,6.358,0,0,0,2.018-.266,3.335,3.335,0,0,0,1.2-.649,2.334,2.334,0,0,0,.585-.767,2.629,2.629,0,0,0,.2-.585A2.41,2.41,0,0,0,35.338,366a5.656,5.656,0,0,0-1.453-.9,19.707,19.707,0,0,0-2.318-.851,13.93,13.93,0,0,1-4-1.934,7.207,7.207,0,0,1-2-2.3,5.868,5.868,0,0,1-.6-3.434,7,7,0,0,1,.717-2.1,5.383,5.383,0,0,1,1.45-1.7H27.2a8.053,8.053,0,0,1,2.8-1.268.876.876,0,0,0,.367-.7v-1.366a1.937,1.937,0,0,1,1.9-1.9,1.725,1.725,0,0,1,1.3.565,1.887,1.887,0,0,1,.535,1.335v1.433a.638.638,0,0,0,.148.367,3.376,3.376,0,0,0,.316.367,12.191,12.191,0,0,1,1.436.6,5.922,5.922,0,0,1,1.3.9h-.064l.165.1a6.863,6.863,0,0,1,1.483,1.968,4.843,4.843,0,0,1,.552,2.2,2.064,2.064,0,0,1-.649,1.534,2.16,2.16,0,0,1-3.687-1.534,1.082,1.082,0,0,0-.165-.5,2.21,2.21,0,0,0-.535-.6,3.461,3.461,0,0,0-2.2-.733,3.992,3.992,0,0,0-2.4.7,1.753,1.753,0,0,0-.417.5,1.6,1.6,0,0,0-.151.4,1.308,1.308,0,0,0,.215,1,3.3,3.3,0,0,0,.851.834,6.787,6.787,0,0,0,1.218.649c.458.189.895.35,1.319.485q1.3.4,2.718.948a9.21,9.21,0,0,1,2.52,1.453,6.652,6.652,0,0,1,1.167,1.2A6.513,6.513,0,0,1,40.04,365.118Z" transform="translate(-23.961 -347.542)"/>
    </g>
  </g>
  <path id="Path_87" data-name="Path 87" class="cls-5" d="M72.206,327.713a69.928,69.928,0,1,0,69.926,69.927A70,70,0,0,0,72.206,327.713Zm0,135.2A65.275,65.275,0,1,1,137.48,397.64,65.349,65.349,0,0,1,72.206,462.915Z" transform="translate(-2.28 -327.713)"/>
  <path id="Path_88" data-name="Path 88" class="cls-6" d="M72.206,327.713a69.928,69.928,0,1,0,69.926,69.927A70,70,0,0,0,72.206,327.713Zm0,135.2A65.275,65.275,0,1,1,137.48,397.64,65.349,65.349,0,0,1,72.206,462.915Z" transform="translate(-2.28 -327.713)"/>
</svg>
