<svg xmlns="http://www.w3.org/2000/svg" xmlns:xlink="http://www.w3.org/1999/xlink" width="80.733" height="80.734" viewBox="0 0 80.733 80.734">
  <defs>
    <style>
      .cls-1 {
        fill: #fff;
      }

      .cls-2 {
        fill: url(#linear-gradient);
      }

      .cls-3 {
        fill: url(#linear-gradient-2);
      }

      .cls-4 {
        fill: url(#linear-gradient-3);
      }

      .cls-5 {
        fill: url(#linear-gradient-4);
      }

      .cls-6 {
        fill: url(#linear-gradient-5);
      }
    </style>
    <linearGradient id="linear-gradient" x1="0.5" y1="-0.19" x2="0.5" y2="1.156" gradientUnits="objectBoundingBox">
      <stop offset="0" stop-color="#fa9c74"/>
      <stop offset="1" stop-color="#ff0093"/>
    </linearGradient>
    <linearGradient id="linear-gradient-2" x1="0.5" y1="-0.41" x2="0.5" y2="4.624" gradientUnits="objectBoundingBox">
      <stop offset="0" stop-color="#ffa85b"/>
      <stop offset="1" stop-color="#ff0093"/>
    </linearGradient>
    <linearGradient id="linear-gradient-3" x1="0.5" y1="-1.647" x2="0.5" y2="2.702" xlink:href="#linear-gradient"/>
    <linearGradient id="linear-gradient-4" x1="0.5" y1="0.097" x2="0.5" y2="0.91" gradientUnits="objectBoundingBox">
      <stop offset="0" stop-color="#fa9c74"/>
      <stop offset="1" stop-color="#f85a89"/>
    </linearGradient>
    <linearGradient id="linear-gradient-5" y1="0" y2="1" xlink:href="#linear-gradient-2"/>
  </defs>
  <g id="Group_93" data-name="Group 93" transform="translate(-2.28 -327.713)">
    <g id="Group_92" data-name="Group 92" transform="translate(29.021 336.658)">
      <g id="Group_90" data-name="Group 90">
        <g id="Group_89" data-name="Group 89" transform="translate(14.589 56.234)">
          <path id="Path_83" data-name="Path 83" class="cls-1" d="M26.709,364.672" transform="translate(-26.709 -364.672)"/>
        </g>
        <path id="Path_84" data-name="Path 84" class="cls-2" d="M47.252,358.951v-.9a1.694,1.694,0,0,0-.231-.854,9.177,9.177,0,0,0-2.359-4.239,11.979,11.979,0,0,0-8.486-3.524H33.447a4.116,4.116,0,0,1-4.126-3.29,3.964,3.964,0,0,1,3.9-4.627,3.925,3.925,0,0,1,3.936,3.936,1.724,1.724,0,1,0,3.449.021A7.392,7.392,0,0,0,33.6,338.1a7.743,7.743,0,0,0-1.157.029,7.387,7.387,0,0,0,.779,14.733h2.952a8.609,8.609,0,0,1,6.02,2.478,5.545,5.545,0,0,1,1.629,3.629v15.09H41.382a1.715,1.715,0,0,0-1.715,1.715v12.212a4.1,4.1,0,0,1-4.1,4.1H31.342a4.1,4.1,0,0,1-4.1-4.1V375.772a1.714,1.714,0,0,0-1.715-1.715H22.623V357.833a1.764,1.764,0,0,1,1.948-1.717,1.714,1.714,0,0,0-.014-3.427A5.366,5.366,0,0,0,19.2,358.05v17.721a1.713,1.713,0,0,0,1.713,1.713h2.907V389.7a5.814,5.814,0,0,0,5.814,5.814h7.653A5.815,5.815,0,0,0,43.1,389.7V377.484h2.441a1.713,1.713,0,0,0,1.715-1.713v-16.43Q47.255,359.146,47.252,358.951Z" transform="translate(-19.196 -333.476)"/>
        <path id="Path_85" data-name="Path 85" class="cls-3" d="M43.633,344.844a10.819,10.819,0,0,0-10.686-9.131l-.062,0-.064,0a10.819,10.819,0,0,0-10.686,9.131,3.329,3.329,0,0,0-2.42,2.948c0,1.808,1.907,3.274,4.26,3.274v-6.546h0a9.077,9.077,0,0,1,8.847-7.061l.064,0,.062,0a9.077,9.077,0,0,1,8.847,7.061h0v6.546c2.354,0,4.26-1.466,4.26-3.274A3.329,3.329,0,0,0,43.633,344.844Z" transform="translate(-18.707 -335.713)"/>
      </g>
      <g id="Group_91" data-name="Group 91" transform="translate(9.253 22.97)">
        <path id="Path_86" data-name="Path 86" class="cls-4" d="M33.243,357.688a3.583,3.583,0,0,1,.2.693,4.489,4.489,0,0,1,.066.808c0,.1,0,.21-.01.318s-.016.216-.027.316a3.683,3.683,0,0,1-1.35,2.408,4.551,4.551,0,0,1-2.058.924,1.692,1.692,0,0,0-.175.2.349.349,0,0,0-.076.2v.674a1.054,1.054,0,0,1-.309.761,1.007,1.007,0,0,1-.751.316,1.065,1.065,0,0,1-.769-.316,1.02,1.02,0,0,1-.328-.761v-.693a.517.517,0,0,0-.173-.4,6.332,6.332,0,0,1-1.155-.423,4.623,4.623,0,0,1-1.039-.693,3.954,3.954,0,0,1-.983-1.289,3.361,3.361,0,0,1-.348-1.445v-.328a1.225,1.225,0,0,1,.377-.9,1.2,1.2,0,0,1,.876-.375,1.18,1.18,0,0,1,.9.375,1.259,1.259,0,0,1,.355.9v.175a1.472,1.472,0,0,0,.194.538v-.019c.064.117.128.221.192.318a.91.91,0,0,0,.231.241,3.522,3.522,0,0,0,.645.394,2.273,2.273,0,0,0,.99.182,3.67,3.67,0,0,0,1.165-.153,1.925,1.925,0,0,0,.693-.375,1.348,1.348,0,0,0,.338-.443,1.519,1.519,0,0,0,.115-.338,1.391,1.391,0,0,0-.5-1.28,3.268,3.268,0,0,0-.839-.52,11.419,11.419,0,0,0-1.338-.491,8.041,8.041,0,0,1-2.311-1.117,4.161,4.161,0,0,1-1.155-1.328,3.388,3.388,0,0,1-.346-1.983,4.04,4.04,0,0,1,.414-1.214,3.106,3.106,0,0,1,.837-.983h.039a4.647,4.647,0,0,1,1.618-.732.506.506,0,0,0,.212-.4v-.788a1.118,1.118,0,0,1,1.1-1.1,1,1,0,0,1,.751.326,1.09,1.09,0,0,1,.309.771v.827a.368.368,0,0,0,.085.212,1.953,1.953,0,0,0,.183.212,7.036,7.036,0,0,1,.829.348,3.419,3.419,0,0,1,.75.518h-.037l.1.058a3.963,3.963,0,0,1,.856,1.136,2.8,2.8,0,0,1,.318,1.272,1.192,1.192,0,0,1-.375.885,1.247,1.247,0,0,1-2.128-.885.625.625,0,0,0-.1-.289,1.274,1.274,0,0,0-.309-.348,2,2,0,0,0-1.272-.423,2.3,2.3,0,0,0-1.385.4,1.011,1.011,0,0,0-.241.289.921.921,0,0,0-.087.231.755.755,0,0,0,.124.579,1.9,1.9,0,0,0,.491.482,3.928,3.928,0,0,0,.7.375c.264.109.517.2.761.28q.751.23,1.569.548a5.313,5.313,0,0,1,1.454.839,3.842,3.842,0,0,1,.674.691A3.762,3.762,0,0,1,33.243,357.688Z" transform="translate(-23.961 -347.542)"/>
      </g>
    </g>
    <path id="Path_87" data-name="Path 87" class="cls-5" d="M42.646,327.713a40.367,40.367,0,1,0,40.366,40.366A40.411,40.411,0,0,0,42.646,327.713Zm0,78.048a37.681,37.681,0,1,1,37.68-37.682A37.724,37.724,0,0,1,42.646,405.761Z" transform="translate(0 0)"/>
    <path id="Path_88" data-name="Path 88" class="cls-6" d="M42.646,327.713a40.367,40.367,0,1,0,40.366,40.366A40.411,40.411,0,0,0,42.646,327.713Zm0,78.048a37.681,37.681,0,1,1,37.68-37.682A37.724,37.724,0,0,1,42.646,405.761Z" transform="translate(0 0)"/>
  </g>
</svg>
