<?xml version="1.0" encoding="utf-8"?>
<!-- Generator: Adobe Illustrator 19.0.0, SVG Export Plug-In . SVG Version: 6.00 Build 0)  -->
<svg version="1.1" id="Layer_1" xmlns="http://www.w3.org/2000/svg" xmlns:xlink="http://www.w3.org/1999/xlink" x="0px" y="0px"
	 viewBox="-154 356.3 80.7 80.7" style="enable-background:new -154 356.3 80.7 80.7;" xml:space="preserve">
<style type="text/css">
	.st0{fill:#FFFFFF;}
	.st1{fill:url(#Path_84_1_);}
	.st2{fill:url(#Path_85_1_);}
	.st3{fill:url(#Path_86_1_);}
	.st4{fill:url(#Path_87_1_);}
	.st5{fill:url(#Path_88_1_);}
</style>
<g id="Group_2874" transform="translate(-54.267 -79.449)">
	<g id="Group_93" transform="translate(51.987 -248.264)">
		<g id="Group_92" transform="translate(29.021 336.658)">
			<g id="Group_90">
				<g id="Group_89" transform="translate(14.589 56.234)">
					<path id="Path_83" class="st0" d="M-154,356.3"/>
				</g>
				
					<linearGradient id="Path_84_1_" gradientUnits="userSpaceOnUse" x1="-328.752" y1="778.3289" x2="-328.752" y2="776.9828" gradientTransform="matrix(28.056 0 0 -57.4236 9083.4971 45044.4023)">
					<stop  offset="0" style="stop-color:#FA9C74"/>
					<stop  offset="1" style="stop-color:#FF0093"/>
				</linearGradient>
				<path id="Path_84" class="st1" d="M-125.9,381.7v-0.9c0-0.3-0.1-0.6-0.2-0.9c-0.4-1.6-1.2-3.1-2.4-4.2c-2.2-2.3-5.3-3.5-8.5-3.5
					h-2.7c-2,0-3.7-1.3-4.1-3.3c-0.4-2.2,1.1-4.2,3.2-4.6c0.2,0,0.4-0.1,0.7-0.1c2.2,0,3.9,1.7,3.9,3.9c0,0,0,0,0,0
					c0,1,0.8,1.7,1.7,1.7s1.7-0.8,1.7-1.7c0-3.9-3.1-7.2-7-7.4c-0.4,0-0.8,0-1.2,0c-4.1,0.4-7,4.1-6.6,8.1c0.4,3.8,3.6,6.6,7.3,6.6
					h3c2.3,0,4.4,0.9,6,2.5c1,1,1.6,2.3,1.6,3.6v15.1h-2.4c-0.9,0-1.7,0.8-1.7,1.7v12.2c0,2.3-1.8,4.1-4.1,4.1l0,0h-4.2
					c-2.3,0-4.1-1.8-4.1-4.1l0,0v-12.2c0-0.9-0.8-1.7-1.7-1.7c0,0,0,0,0,0h-2.9v-16.2c0-1,0.8-1.7,1.8-1.7c0,0,0.1,0,0.1,0
					c0.9,0,1.7-0.8,1.7-1.8c0-0.9-0.8-1.6-1.7-1.7c-3,0-5.4,2.4-5.4,5.4v17.7c0,0.9,0.8,1.7,1.7,1.7c0,0,0,0,0,0h2.9v12.2
					c0,3.2,2.6,5.8,5.8,5.8h7.7c3.2,0,5.8-2.6,5.8-5.8v-12.2h2.4c0.9,0,1.7-0.8,1.7-1.7c0,0,0,0,0,0v-16.4
					C-125.9,382-125.9,381.9-125.9,381.7z"/>
				
					<linearGradient id="Path_85_1_" gradientUnits="userSpaceOnUse" x1="-328.3944" y1="761.6085" x2="-328.3944" y2="756.5745" gradientTransform="matrix(26.34 0 0 -15.353 8510.0869 12042.9443)">
					<stop  offset="0" style="stop-color:#FFA85B"/>
					<stop  offset="1" style="stop-color:#FF0093"/>
				</linearGradient>
				<path id="Path_85" class="st2" d="M-129.1,365.4c-0.8-5.3-5.4-9.1-10.7-9.1h-0.1h-0.1c-5.3,0-9.9,3.9-10.7,9.1
					c-1.3,0.4-2.3,1.6-2.4,2.9c0,1.8,1.9,3.3,4.3,3.3v-6.5l0,0c0.9-4.1,4.6-7.1,8.8-7.1h0.1h0.1c4.2,0,7.9,2.9,8.8,7.1l0,0v6.5
					c2.4,0,4.3-1.5,4.3-3.3C-126.8,367-127.7,365.8-129.1,365.4z"/>
			</g>
			<g id="Group_91" transform="translate(9.253 22.97)">
				
					<linearGradient id="Path_86_1_" gradientUnits="userSpaceOnUse" x1="-327.3705" y1="743.014" x2="-327.3705" y2="738.665" gradientTransform="matrix(9.5513 0 0 -17.7642 2977.5789 13526.0732)">
					<stop  offset="0" style="stop-color:#FA9C74"/>
					<stop  offset="1" style="stop-color:#FF0093"/>
				</linearGradient>
				<path id="Path_86" class="st3" d="M-144.7,366.4c0.1,0.2,0.2,0.5,0.2,0.7c0,0.3,0.1,0.5,0.1,0.8c0,0.1,0,0.2,0,0.3
					c0,0.1,0,0.2,0,0.3c-0.1,0.9-0.6,1.8-1.3,2.4c-0.6,0.5-1.3,0.8-2.1,0.9c-0.1,0.1-0.1,0.1-0.2,0.2c0,0.1-0.1,0.1-0.1,0.2v0.7
					c0,0.3-0.1,0.6-0.3,0.8c-0.2,0.2-0.5,0.3-0.8,0.3c-0.3,0-0.6-0.1-0.8-0.3c-0.2-0.2-0.3-0.5-0.3-0.8v-0.7c0-0.2-0.1-0.3-0.2-0.4
					c-0.4-0.1-0.8-0.2-1.2-0.4c-0.4-0.2-0.7-0.4-1-0.7c-0.4-0.4-0.7-0.8-1-1.3c-0.2-0.4-0.3-0.9-0.3-1.4v-0.3c0-0.3,0.1-0.7,0.4-0.9
					c0.2-0.2,0.5-0.4,0.9-0.4c0.3,0,0.7,0.1,0.9,0.4c0.2,0.2,0.4,0.6,0.4,0.9v0.2c0,0.2,0.1,0.4,0.2,0.5v0c0.1,0.1,0.1,0.2,0.2,0.3
					c0.1,0.1,0.1,0.2,0.2,0.2c0.2,0.2,0.4,0.3,0.6,0.4c0.3,0.1,0.7,0.2,1,0.2c0.4,0,0.8,0,1.2-0.2c0.3-0.1,0.5-0.2,0.7-0.4
					c0.1-0.1,0.3-0.3,0.3-0.4c0.1-0.1,0.1-0.2,0.1-0.3c0.1-0.5-0.1-1-0.5-1.3c-0.3-0.2-0.5-0.4-0.8-0.5c-0.4-0.2-0.9-0.4-1.3-0.5
					c-0.8-0.2-1.6-0.6-2.3-1.1c-0.5-0.4-0.9-0.8-1.2-1.3c-0.3-0.6-0.4-1.3-0.3-2c0.1-0.4,0.2-0.8,0.4-1.2c0.2-0.4,0.5-0.7,0.8-1h0
					c0.5-0.3,1-0.6,1.6-0.7c0.1-0.1,0.2-0.2,0.2-0.4v-0.8c0-0.6,0.5-1.1,1.1-1.1c0.3,0,0.6,0.1,0.8,0.3c0.2,0.2,0.3,0.5,0.3,0.8v0.8
					c0,0.1,0,0.2,0.1,0.2c0.1,0.1,0.1,0.1,0.2,0.2c0.3,0.1,0.6,0.2,0.8,0.3c0.3,0.1,0.5,0.3,0.8,0.5h0l0.1,0.1
					c0.4,0.3,0.6,0.7,0.9,1.1c0.2,0.4,0.3,0.8,0.3,1.3c0,0.3-0.1,0.7-0.4,0.9c-0.5,0.5-1.3,0.5-1.8,0c-0.2-0.2-0.4-0.6-0.4-0.9
					c0-0.1,0-0.2-0.1-0.3c-0.1-0.1-0.2-0.3-0.3-0.3c-0.4-0.3-0.8-0.4-1.3-0.4c-0.5,0-1,0.1-1.4,0.4c-0.1,0.1-0.2,0.2-0.2,0.3
					c0,0.1-0.1,0.2-0.1,0.2c0,0.2,0,0.4,0.1,0.6c0.1,0.2,0.3,0.4,0.5,0.5c0.2,0.1,0.5,0.3,0.7,0.4c0.3,0.1,0.5,0.2,0.8,0.3
					c0.5,0.2,1,0.3,1.6,0.5c0.5,0.2,1,0.5,1.5,0.8c0.3,0.2,0.5,0.4,0.7,0.7C-145,365.9-144.8,366.1-144.7,366.4z"/>
			</g>
		</g>
		
			<linearGradient id="Path_87_1_" gradientUnits="userSpaceOnUse" x1="-303.3125" y1="1116.4849" x2="-303.3125" y2="1115.6719" gradientTransform="matrix(80.734 0 0 -80.734 24376.2773 90830.1094)">
			<stop  offset="0" style="stop-color:#FA9C74"/>
			<stop  offset="1" style="stop-color:#F85A89"/>
		</linearGradient>
		<path id="Path_87" class="st4" d="M-111.4,684c-22.3,0-40.4,18.1-40.4,40.4s18.1,40.4,40.4,40.4S-71,746.6-71,724.3c0,0,0,0,0,0
			C-71,702.1-89.1,684-111.4,684z M-111.4,762c-20.8,0-37.7-16.9-37.7-37.7c0-20.8,16.9-37.7,37.7-37.7s37.7,16.9,37.7,37.7
			C-73.7,745.1-90.6,762-111.4,762L-111.4,762z"/>
		
			<linearGradient id="Path_88_1_" gradientUnits="userSpaceOnUse" x1="-303.3125" y1="1116.5818" x2="-303.3125" y2="1115.5818" gradientTransform="matrix(80.734 0 0 -80.734 24376.2773 90830.1094)">
			<stop  offset="0" style="stop-color:#FFA85B"/>
			<stop  offset="1" style="stop-color:#FF0093"/>
		</linearGradient>
		<path id="Path_88" class="st5" d="M-111.4,684c-22.3,0-40.4,18.1-40.4,40.4s18.1,40.4,40.4,40.4S-71,746.6-71,724.3c0,0,0,0,0,0
			C-71,702.1-89.1,684-111.4,684z M-111.4,762c-20.8,0-37.7-16.9-37.7-37.7c0-20.8,16.9-37.7,37.7-37.7s37.7,16.9,37.7,37.7
			C-73.7,745.1-90.6,762-111.4,762L-111.4,762z"/>
	</g>
</g>
</svg>
