<svg xmlns="http://www.w3.org/2000/svg" xmlns:xlink="http://www.w3.org/1999/xlink" width="301.732" height="80.734" viewBox="0 0 301.732 80.734">
  <defs>
    <linearGradient id="linear-gradient" x1="4.174" y1="0.5" x2="0.11" y2="0.5" gradientUnits="objectBoundingBox">
      <stop offset="0" stop-color="#fcd85e"/>
      <stop offset="1" stop-color="#ef548c"/>
    </linearGradient>
    <linearGradient id="linear-gradient-2" x1="4.772" y1="0.496" x2="-1.563" y2="0.496" xlink:href="#linear-gradient"/>
    <linearGradient id="linear-gradient-3" x1="13.083" y1="0.5" x2="-17.689" y2="0.5" xlink:href="#linear-gradient"/>
    <linearGradient id="linear-gradient-4" x1="2.103" y1="0.509" x2="-3.566" y2="0.509" xlink:href="#linear-gradient"/>
    <linearGradient id="linear-gradient-5" x1="4.621" y1="0.506" x2="-3.456" y2="0.506" xlink:href="#linear-gradient"/>
    <linearGradient id="linear-gradient-6" x1="0.5" y1="-0.19" x2="0.5" y2="1.156" gradientUnits="objectBoundingBox">
      <stop offset="0" stop-color="#fa9c74"/>
      <stop offset="1" stop-color="#ff0093"/>
    </linearGradient>
    <linearGradient id="linear-gradient-7" x1="0.5" y1="-0.41" x2="0.5" y2="4.624" gradientUnits="objectBoundingBox">
      <stop offset="0" stop-color="#ffa85b"/>
      <stop offset="1" stop-color="#ff0093"/>
    </linearGradient>
    <linearGradient id="linear-gradient-8" x1="0.5" y1="-1.647" x2="0.5" y2="2.702" xlink:href="#linear-gradient-6"/>
    <linearGradient id="linear-gradient-9" x1="0.5" y1="0.097" x2="0.5" y2="0.91" gradientUnits="objectBoundingBox">
      <stop offset="0" stop-color="#fa9c74"/>
      <stop offset="1" stop-color="#f85a89"/>
    </linearGradient>
    <linearGradient id="linear-gradient-10" y1="0" y2="1" xlink:href="#linear-gradient-7"/>
  </defs>
  <g id="Group_2874" data-name="Group 2874" transform="translate(-54.267 -79.449)">
    <g id="log" transform="translate(168.191 77.118)">
      <g id="Group_13" data-name="Group 13" transform="translate(-0.185 28.652)">
        <path id="Path_19" data-name="Path 19" d="M470.3,351.534a15.317,15.317,0,1,1,15.294-15.294A15.39,15.39,0,0,1,470.3,351.534ZM462.022,336.1a8.3,8.3,0,1,0,16.6.14,8.3,8.3,0,1,0-16.6-.14Z" transform="translate(-374.773 -320.9)"/>
        <path id="Path_20" data-name="Path 20" d="M343.422,346.182a12.273,12.273,0,0,0-1.263-.047h-8.372c-.561,1.216-1.076,2.432-1.684,3.555a3.234,3.234,0,0,1-3.554,1.731,2.948,2.948,0,0,1-2.76-2.385,3.993,3.993,0,0,1,.187-2.339c3.04-7.717,6.174-15.387,9.214-23.058a3.368,3.368,0,0,1,3.321-2.338,3.405,3.405,0,0,1,3.414,2.245q4.7,11.576,9.307,23.2a3.234,3.234,0,0,1-1.684,4.4,3.365,3.365,0,0,1-4.583-1.73C344.4,348.38,343.936,347.257,343.422,346.182Zm-2.619-6.735c-.7-1.824-1.4-3.461-2.2-5.519-.842,2.058-1.5,3.695-2.245,5.519Z" transform="translate(-305.89 -321.113)"/>
        <path id="Path_21" data-name="Path 21" d="M525.393,333.973v-8.886c0-2.339,1.31-3.742,3.368-3.788,2.151-.047,3.508,1.4,3.508,3.788.047,5.472,0,10.991,0,16.463a3.189,3.189,0,0,0,4.3,2.993,2.92,2.92,0,0,0,2.058-3.134V325.274c0-2.479,1.309-3.975,3.508-3.975,2.1.047,3.414,1.543,3.414,3.929,0,5.379-.187,10.8.047,16.136.374,8.044-7.624,11.693-13.423,9.728-4.537-1.5-6.875-4.583-6.875-9.307C525.393,339.212,525.393,336.593,525.393,333.973Z" transform="translate(-412.14 -321.112)"/>
        <path id="Path_22" data-name="Path 22" d="M606.6,336.3c-1.964-3.18-3.882-6.361-5.846-9.541-1.216-2.011-.935-3.929.748-5,1.777-1.123,3.882-.561,5.145,1.5,1.31,2.058,2.619,4.163,4.069,6.454,1.45-2.338,2.759-4.537,4.209-6.595a4.925,4.925,0,0,1,2.292-1.731,3.177,3.177,0,0,1,3.6,1.31,3.226,3.226,0,0,1,.047,3.835c-2.011,3.274-4.022,6.5-6.08,9.868l5.191,8.278c.327.561.748,1.076,1.029,1.684a3.437,3.437,0,0,1-1.216,4.63,3.5,3.5,0,0,1-4.771-1.122c-1.263-1.918-2.432-3.929-3.695-5.893a9.868,9.868,0,0,0-.655-.889c-1.45,2.339-2.806,4.49-4.209,6.688a3.3,3.3,0,0,1-3.6,1.59,3.038,3.038,0,0,1-2.713-2.479,5,5,0,0,1,.561-2.946c1.59-2.806,3.368-5.472,5.051-8.232A13.914,13.914,0,0,0,606.6,336.3Z" transform="translate(-451.904 -321.051)"/>
        <path id="Path_23" data-name="Path 23" d="M295.114,338.758c1.45-4.35,2.712-8.231,4.022-12.16.374-1.076.7-2.2,1.123-3.274a3.393,3.393,0,0,1,4.49-1.918,3.169,3.169,0,0,1,1.918,4.163c-2.713,7.811-5.425,15.668-8.185,23.479a3.329,3.329,0,0,1-3.367,2.292,3.221,3.221,0,0,1-3.368-2.245c-2.76-7.764-5.519-15.528-8.185-23.292a3.4,3.4,0,0,1,2.058-4.443,3.441,3.441,0,0,1,4.537,2.385c1.543,4.4,2.946,8.84,4.443,13.283A7.646,7.646,0,0,0,295.114,338.758Z" transform="translate(-283.353 -321.032)"/>
        <path id="Path_24" data-name="Path 24" d="M424.1,331.9c1.123-2.806,2.152-5.379,3.134-7.951a3.535,3.535,0,0,1,2.572-2.479,3.168,3.168,0,0,1,3.414,1.029,3.576,3.576,0,0,1,.561,3.835c-1.731,4.022-3.461,8.044-5.238,12.02a10.022,10.022,0,0,0-.982,4.817c.094,1.59.047,3.227,0,4.817a3.363,3.363,0,0,1-3.321,3.554,3.492,3.492,0,0,1-3.6-3.508c-.047-2.058.047-4.116-.047-6.174a7.992,7.992,0,0,0-.468-2.339c-1.871-4.35-3.742-8.652-5.659-13a3.718,3.718,0,0,1,.421-3.975,2.957,2.957,0,0,1,3.227-1.076,3.523,3.523,0,0,1,2.713,2.385C421.9,326.379,422.975,329,424.1,331.9Z" transform="translate(-352.937 -321.141)"/>
        <path id="Path_25" data-name="Path 25" d="M392.969,344.4h5.612c2.479.047,3.835,1.263,3.788,3.461,0,2.2-1.4,3.414-3.882,3.461h-8.606c-2.572-.047-3.882-1.356-3.882-3.929V325.227c0-2.572,1.263-3.975,3.508-3.929,2.151.047,3.414,1.45,3.414,3.882v17.352C392.969,343.094,392.969,343.608,392.969,344.4Z" transform="translate(-337.992 -321.112)"/>
      </g>
      <g id="Group_15" data-name="Group 15" transform="translate(-17 2.882)">
        <rect id="Rectangle_42" data-name="Rectangle 42" width="0.608" height="80" transform="translate(0)"/>
      </g>
      <g id="Group_16" data-name="Group 16" transform="translate(162.645 62.888)">
        <path id="Path_29" data-name="Path 29" d="M631.5,402.1v-8h1.544l1.824,5.659c.187.514.28.935.374,1.169q.14-.421.421-1.263l1.871-5.566h1.4v8h-.982V395.41l-2.245,6.688h-.935l-2.245-6.829V402.1Z" transform="translate(-631.5 -394.1)" fill="url(#linear-gradient)"/>
        <path id="Path_30" data-name="Path 30" d="M653.082,405.4v-.748a2.33,2.33,0,0,1-1.871.889,2.442,2.442,0,0,1-.982-.187,1.764,1.764,0,0,1-.655-.421,2.155,2.155,0,0,1-.327-.655,3.558,3.558,0,0,1-.047-.795V400.3h.983v2.853a4.621,4.621,0,0,0,.046.935.835.835,0,0,0,.421.561,1.275,1.275,0,0,0,.748.187,1.836,1.836,0,0,0,.842-.187,1.093,1.093,0,0,0,.562-.561,2.694,2.694,0,0,0,.187-1.029V400.3h.982v5.145h-.889Z" transform="translate(-640.921 -397.4)" fill="url(#linear-gradient-2)"/>
        <path id="Path_31" data-name="Path 31" d="M670.4,397.182V396.2h.982v.982Zm0,6.033v-5.1h.982v5.1Z" transform="translate(-652.206 -395.218)" fill="url(#linear-gradient-3)"/>
        <path id="Path_32" data-name="Path 32" d="M678.2,403.468l1.029.093a2.191,2.191,0,0,1-.842,1.356,2.848,2.848,0,0,1-1.684.468,3.189,3.189,0,0,1-2.058-.655,2.4,2.4,0,0,1-.748-1.917,2.888,2.888,0,0,1,.327-1.45,2.238,2.238,0,0,1,1.029-.935,3.9,3.9,0,0,1,1.5-.327,2.935,2.935,0,0,1,1.637.421,1.967,1.967,0,0,1,.842,1.169l-1.029.14a1.278,1.278,0,0,0-.515-.748,1.792,1.792,0,0,0-.889-.234,1.693,1.693,0,0,0-1.263.468,1.949,1.949,0,0,0-.514,1.45,2.056,2.056,0,0,0,.468,1.5,1.692,1.692,0,0,0,1.263.468,1.512,1.512,0,0,0,1.029-.327A2.508,2.508,0,0,0,678.2,403.468Z" transform="translate(-654.069 -397.294)" fill="url(#linear-gradient-4)"/>
        <path id="Path_33" data-name="Path 33" d="M664.314,403.147a1.666,1.666,0,0,0-.514-.468,9.644,9.644,0,0,0-.935-.327c-.047,0-.14-.047-.187-.047a2.161,2.161,0,0,1-.655-.234.48.48,0,0,1-.281-.234.663.663,0,0,1-.093-.281.649.649,0,0,1,.234-.468,1.105,1.105,0,0,1,.748-.187.86.86,0,0,1,.7.234.981.981,0,0,1,.187.281l.655-.374c-.047-.047-.047-.14-.094-.187a1.61,1.61,0,0,0-.608-.468,2.393,2.393,0,0,0-1.59-.094,1.1,1.1,0,0,0-.468.234,1.835,1.835,0,0,0-.374.468,1.442,1.442,0,0,0-.14.608,1.075,1.075,0,0,0,.187.655,1.014,1.014,0,0,0,.515.468,2.671,2.671,0,0,0,.7.281c.14.047.281.094.468.14a3.366,3.366,0,0,1,.795.281.575.575,0,0,1,.234.468.774.774,0,0,1-.234.561,1.237,1.237,0,0,1-.795.234,1.1,1.1,0,0,1-.8-.281.609.609,0,0,1-.234-.327l-.7.327a1.78,1.78,0,0,0,.421.608,2.41,2.41,0,0,0,2.292.234,1.558,1.558,0,0,0,.655-.561,1.577,1.577,0,0,0,.234-.8C664.5,403.614,664.408,403.334,664.314,403.147Z" transform="translate(-647.15 -397.347)" fill="url(#linear-gradient-5)"/>
      </g>
    </g>
    <g id="Group_93" data-name="Group 93" transform="translate(51.987 -248.264)">
      <g id="Group_92" data-name="Group 92" transform="translate(29.021 336.658)">
        <g id="Group_90" data-name="Group 90">
          <g id="Group_89" data-name="Group 89" transform="translate(14.589 56.234)">
            <path id="Path_83" data-name="Path 83" d="M26.709,364.672" transform="translate(-26.709 -364.672)" fill="#fff"/>
          </g>
          <path id="Path_84" data-name="Path 84" d="M47.252,358.951v-.9a1.694,1.694,0,0,0-.231-.854,9.177,9.177,0,0,0-2.359-4.239,11.979,11.979,0,0,0-8.486-3.524H33.447a4.116,4.116,0,0,1-4.126-3.29,3.964,3.964,0,0,1,3.9-4.627,3.925,3.925,0,0,1,3.936,3.936,1.724,1.724,0,1,0,3.449.021A7.392,7.392,0,0,0,33.6,338.1a7.743,7.743,0,0,0-1.157.029,7.387,7.387,0,0,0,.779,14.733h2.952a8.609,8.609,0,0,1,6.02,2.478,5.545,5.545,0,0,1,1.629,3.629v15.09H41.382a1.715,1.715,0,0,0-1.715,1.715v12.212a4.1,4.1,0,0,1-4.1,4.1H31.342a4.1,4.1,0,0,1-4.1-4.1V375.772a1.714,1.714,0,0,0-1.715-1.715H22.623V357.833a1.764,1.764,0,0,1,1.948-1.717,1.714,1.714,0,0,0-.014-3.427A5.366,5.366,0,0,0,19.2,358.05v17.721a1.713,1.713,0,0,0,1.713,1.713h2.907V389.7a5.814,5.814,0,0,0,5.814,5.814h7.653A5.815,5.815,0,0,0,43.1,389.7V377.484h2.441a1.713,1.713,0,0,0,1.715-1.713v-16.43Q47.255,359.146,47.252,358.951Z" transform="translate(-19.196 -333.476)" fill="url(#linear-gradient-6)"/>
          <path id="Path_85" data-name="Path 85" d="M43.633,344.844a10.819,10.819,0,0,0-10.686-9.131l-.062,0-.064,0a10.819,10.819,0,0,0-10.686,9.131,3.329,3.329,0,0,0-2.42,2.948c0,1.808,1.907,3.274,4.26,3.274v-6.546h0a9.077,9.077,0,0,1,8.847-7.061l.064,0,.062,0a9.077,9.077,0,0,1,8.847,7.061h0v6.546c2.354,0,4.26-1.466,4.26-3.274A3.329,3.329,0,0,0,43.633,344.844Z" transform="translate(-18.707 -335.713)" fill="url(#linear-gradient-7)"/>
        </g>
        <g id="Group_91" data-name="Group 91" transform="translate(9.253 22.97)">
          <path id="Path_86" data-name="Path 86" d="M33.243,357.688a3.583,3.583,0,0,1,.2.693,4.489,4.489,0,0,1,.066.808c0,.1,0,.21-.01.318s-.016.216-.027.316a3.683,3.683,0,0,1-1.35,2.408,4.551,4.551,0,0,1-2.058.924,1.692,1.692,0,0,0-.175.2.349.349,0,0,0-.076.2v.674a1.054,1.054,0,0,1-.309.761,1.007,1.007,0,0,1-.751.316,1.065,1.065,0,0,1-.769-.316,1.02,1.02,0,0,1-.328-.761v-.693a.517.517,0,0,0-.173-.4,6.332,6.332,0,0,1-1.155-.423,4.623,4.623,0,0,1-1.039-.693,3.954,3.954,0,0,1-.983-1.289,3.361,3.361,0,0,1-.348-1.445v-.328a1.225,1.225,0,0,1,.377-.9,1.2,1.2,0,0,1,.876-.375,1.18,1.18,0,0,1,.9.375,1.259,1.259,0,0,1,.355.9v.175a1.472,1.472,0,0,0,.194.538v-.019c.064.117.128.221.192.318a.91.91,0,0,0,.231.241,3.522,3.522,0,0,0,.645.394,2.273,2.273,0,0,0,.99.182,3.67,3.67,0,0,0,1.165-.153,1.925,1.925,0,0,0,.693-.375,1.348,1.348,0,0,0,.338-.443,1.519,1.519,0,0,0,.115-.338,1.391,1.391,0,0,0-.5-1.28,3.268,3.268,0,0,0-.839-.52,11.419,11.419,0,0,0-1.338-.491,8.041,8.041,0,0,1-2.311-1.117,4.161,4.161,0,0,1-1.155-1.328,3.388,3.388,0,0,1-.346-1.983,4.04,4.04,0,0,1,.414-1.214,3.106,3.106,0,0,1,.837-.983h.039a4.647,4.647,0,0,1,1.618-.732.506.506,0,0,0,.212-.4v-.788a1.118,1.118,0,0,1,1.1-1.1,1,1,0,0,1,.751.326,1.09,1.09,0,0,1,.309.771v.827a.368.368,0,0,0,.085.212,1.953,1.953,0,0,0,.183.212,7.036,7.036,0,0,1,.829.348,3.419,3.419,0,0,1,.75.518h-.037l.1.058a3.963,3.963,0,0,1,.856,1.136,2.8,2.8,0,0,1,.318,1.272,1.192,1.192,0,0,1-.375.885,1.247,1.247,0,0,1-2.128-.885.625.625,0,0,0-.1-.289,1.274,1.274,0,0,0-.309-.348,2,2,0,0,0-1.272-.423,2.3,2.3,0,0,0-1.385.4,1.011,1.011,0,0,0-.241.289.921.921,0,0,0-.087.231.755.755,0,0,0,.124.579,1.9,1.9,0,0,0,.491.482,3.928,3.928,0,0,0,.7.375c.264.109.517.2.761.28q.751.23,1.569.548a5.313,5.313,0,0,1,1.454.839,3.842,3.842,0,0,1,.674.691A3.762,3.762,0,0,1,33.243,357.688Z" transform="translate(-23.961 -347.542)" fill="url(#linear-gradient-8)"/>
        </g>
      </g>
      <path id="Path_87" data-name="Path 87" d="M42.646,327.713a40.367,40.367,0,1,0,40.366,40.366A40.411,40.411,0,0,0,42.646,327.713Zm0,78.048a37.681,37.681,0,1,1,37.68-37.682A37.724,37.724,0,0,1,42.646,405.761Z" transform="translate(0 0)" fill="url(#linear-gradient-9)"/>
      <path id="Path_88" data-name="Path 88" d="M42.646,327.713a40.367,40.367,0,1,0,40.366,40.366A40.411,40.411,0,0,0,42.646,327.713Zm0,78.048a37.681,37.681,0,1,1,37.68-37.682A37.724,37.724,0,0,1,42.646,405.761Z" transform="translate(0 0)" fill="url(#linear-gradient-10)"/>
    </g>
  </g>
</svg>
