<svg xmlns="http://www.w3.org/2000/svg" xmlns:xlink="http://www.w3.org/1999/xlink" width="145.075" height="38.977" viewBox="0 0 145.075 38.977">
  <defs>
    <linearGradient id="linear-gradient" x1="0.5" y1="0.097" x2="0.5" y2="0.91" gradientUnits="objectBoundingBox">
      <stop offset="0" stop-color="#fa9c74"/>
      <stop offset="1" stop-color="#f85a89"/>
    </linearGradient>
    <linearGradient id="linear-gradient-2" x1="0.5" x2="0.5" y2="1" gradientUnits="objectBoundingBox">
      <stop offset="0" stop-color="#ffa85b"/>
      <stop offset="1" stop-color="#ff0093"/>
    </linearGradient>
    <linearGradient id="linear-gradient-3" x1="4.772" y1="0.496" x2="-1.563" y2="0.496" gradientUnits="objectBoundingBox">
      <stop offset="0" stop-color="#fcd85e"/>
      <stop offset="1" stop-color="#ef548c"/>
    </linearGradient>
    <linearGradient id="linear-gradient-4" x1="13.083" y1="0.5" x2="-17.689" y2="0.5" xlink:href="#linear-gradient-3"/>
    <linearGradient id="linear-gradient-5" x1="4.174" y1="0.5" x2="0.11" y2="0.5" xlink:href="#linear-gradient-3"/>
    <linearGradient id="linear-gradient-6" x1="2.103" y1="0.509" x2="-3.566" y2="0.509" xlink:href="#linear-gradient-3"/>
    <linearGradient id="linear-gradient-7" x1="4.621" y1="0.506" x2="-3.456" y2="0.506" xlink:href="#linear-gradient-3"/>
    <linearGradient id="linear-gradient-8" y1="-0.145" xlink:href="#linear-gradient-2"/>
    <linearGradient id="linear-gradient-9" x1="0.527" y1="-0.068" x2="0.525" y2="1.02" xlink:href="#linear-gradient-2"/>
  </defs>
  <g id="Group_3788" data-name="Group 3788" transform="translate(-19.817 -51.546)">
    <g id="Group_2898" data-name="Group 2898" transform="translate(-25.684 -26.763)">
      <g id="Group_2891" data-name="Group 2891" transform="translate(45.5 78.309)">
        <g id="log" transform="translate(46.793 0.266)">
          <g id="Group_13" data-name="Group 13" transform="translate(8.118 12.441)">
            <path id="Path_19" data-name="Path 19" d="M462.439,335.689a7.395,7.395,0,1,1,7.384-7.384A7.43,7.43,0,0,1,462.439,335.689Zm-4-7.451a4.008,4.008,0,1,0,8.016.068,4.008,4.008,0,1,0-8.016-.068Z" transform="translate(-416.32 -320.9)"/>
            <path id="Path_20" data-name="Path 20" d="M334.252,333.313a5.922,5.922,0,0,0-.61-.023H329.6c-.271.587-.519,1.174-.813,1.716a1.561,1.561,0,0,1-1.716.836,1.423,1.423,0,0,1-1.332-1.152,1.928,1.928,0,0,1,.09-1.129c1.468-3.726,2.981-7.429,4.448-11.132a1.626,1.626,0,0,1,1.6-1.129,1.644,1.644,0,0,1,1.648,1.084q2.269,5.589,4.493,11.2a1.561,1.561,0,0,1-.813,2.122A1.625,1.625,0,0,1,335,334.87C334.726,334.374,334.5,333.832,334.252,333.313Zm-1.264-3.251c-.339-.881-.677-1.671-1.061-2.664-.406.993-.723,1.784-1.084,2.664Z" transform="translate(-316.132 -321.21)"/>
            <path id="Path_21" data-name="Path 21" d="M525.345,327.417v-4.29a1.668,1.668,0,1,1,3.319,0c.023,2.642,0,5.306,0,7.948a1.54,1.54,0,0,0,2.077,1.445,1.41,1.41,0,0,0,.993-1.513v-7.79c0-1.2.632-1.919,1.693-1.919a1.676,1.676,0,0,1,1.648,1.9c0,2.6-.09,5.216.023,7.79.181,3.884-3.681,5.645-6.48,4.7a4.375,4.375,0,0,1-3.319-4.493C525.345,329.946,525.345,328.682,525.345,327.417Z" transform="translate(-470.669 -321.208)"/>
            <path id="Path_22" data-name="Path 22" d="M603.185,328.482c-.948-1.535-1.874-3.071-2.822-4.606a1.638,1.638,0,0,1,.361-2.416,1.731,1.731,0,0,1,2.484.723c.632.994,1.264,2.01,1.965,3.116.7-1.129,1.332-2.19,2.032-3.184a2.378,2.378,0,0,1,1.106-.835,1.534,1.534,0,0,1,1.739.632,1.558,1.558,0,0,1,.023,1.852c-.971,1.581-1.942,3.138-2.935,4.764l2.506,4c.158.271.361.519.5.813a1.659,1.659,0,0,1-.587,2.235,1.69,1.69,0,0,1-2.3-.542c-.61-.926-1.174-1.9-1.784-2.845a4.763,4.763,0,0,0-.316-.429c-.7,1.129-1.355,2.168-2.032,3.229a1.593,1.593,0,0,1-1.739.768,1.466,1.466,0,0,1-1.31-1.2,2.411,2.411,0,0,1,.271-1.422c.768-1.355,1.626-2.642,2.439-3.974A6.734,6.734,0,0,0,603.185,328.482Z" transform="translate(-528.503 -321.12)"/>
            <path id="Path_23" data-name="Path 23" d="M289.031,329.65c.7-2.1,1.31-3.974,1.942-5.871.181-.519.339-1.061.542-1.581a1.638,1.638,0,0,1,2.168-.926,1.53,1.53,0,0,1,.926,2.01c-1.31,3.771-2.619,7.564-3.951,11.335a1.607,1.607,0,0,1-1.626,1.106,1.555,1.555,0,0,1-1.626-1.084c-1.332-3.748-2.664-7.5-3.951-11.245a1.64,1.64,0,0,1,.993-2.145,1.661,1.661,0,0,1,2.19,1.152c.745,2.123,1.422,4.268,2.145,6.413A3.692,3.692,0,0,0,289.031,329.65Z" transform="translate(-283.353 -321.092)"/>
            <path id="Path_24" data-name="Path 24" d="M418.915,326.444c.542-1.355,1.039-2.6,1.513-3.839a1.707,1.707,0,0,1,1.242-1.2,1.53,1.53,0,0,1,1.648.5,1.727,1.727,0,0,1,.271,1.852c-.835,1.942-1.671,3.884-2.529,5.8a4.839,4.839,0,0,0-.474,2.326c.045.768.022,1.558,0,2.326a1.624,1.624,0,0,1-1.6,1.716,1.686,1.686,0,0,1-1.739-1.693c-.023-.994.023-1.987-.023-2.981a3.858,3.858,0,0,0-.226-1.129c-.9-2.1-1.806-4.177-2.732-6.277a1.8,1.8,0,0,1,.2-1.919,1.428,1.428,0,0,1,1.558-.519,1.7,1.7,0,0,1,1.31,1.152C417.854,323.779,418.373,325.044,418.915,326.444Z" transform="translate(-384.56 -321.25)"/>
            <path id="Path_25" data-name="Path 25" d="M389.365,332.453h2.71c1.2.022,1.852.61,1.829,1.671,0,1.061-.677,1.648-1.874,1.671h-4.155A1.688,1.688,0,0,1,386,333.9v-10.7c0-1.242.61-1.919,1.693-1.9,1.039.023,1.648.7,1.648,1.874v8.377C389.365,331.82,389.365,332.069,389.365,332.453Z" transform="translate(-362.823 -321.208)"/>
          </g>
          <g id="Group_15" data-name="Group 15" transform="translate(0 0)">
            <rect id="Rectangle_42" data-name="Rectangle 42" width="0.294" height="38.622" transform="translate(0)"/>
          </g>
        </g>
        <g id="Group_2804" data-name="Group 2804" transform="translate(0)">
          <path id="Path_87" data-name="Path 87" d="M21.768,327.713A19.488,19.488,0,1,0,41.256,347.2,19.51,19.51,0,0,0,21.768,327.713Zm0,37.68A18.192,18.192,0,1,1,39.959,347.2,18.213,18.213,0,0,1,21.768,365.393Z" transform="translate(-2.28 -327.713)" fill="url(#linear-gradient)"/>
          <path id="Path_88" data-name="Path 88" d="M21.768,327.713A19.488,19.488,0,1,0,41.256,347.2,19.51,19.51,0,0,0,21.768,327.713Zm0,37.68A18.192,18.192,0,1,1,39.959,347.2,18.213,18.213,0,0,1,21.768,365.393Z" transform="translate(-2.28 -327.713)" fill="url(#linear-gradient-2)"/>
        </g>
      </g>
      <g id="Group_2897" data-name="Group 2897" transform="translate(179.081 108.175)">
        <path id="Path_30" data-name="Path 30" d="M650.98,402.638v-.343a1.068,1.068,0,0,1-.858.408,1.12,1.12,0,0,1-.45-.086.809.809,0,0,1-.3-.193.989.989,0,0,1-.15-.3,1.632,1.632,0,0,1-.021-.365V400.3h.451v1.308a2.113,2.113,0,0,0,.021.429.383.383,0,0,0,.193.257.585.585,0,0,0,.343.086.842.842,0,0,0,.386-.086.5.5,0,0,0,.258-.257,1.236,1.236,0,0,0,.086-.472V400.3h.45v2.359h-.408Z" transform="translate(-645.404 -398.97)" fill="url(#linear-gradient-3)"/>
        <path id="Path_31" data-name="Path 31" d="M670.4,396.65v-.45h.45v.45Zm0,2.767v-2.338h.45v2.338Z" transform="translate(-662.057 -395.75)" fill="url(#linear-gradient-4)"/>
        <path id="Path_29" data-name="Path 29" d="M631.5,397.768V394.1h.708l.836,2.6c.086.236.129.429.172.536l.193-.579.858-2.552h.643v3.668h-.45V394.7l-1.03,3.067H633l-1.029-3.131v3.131Z" transform="translate(-631.5 -394.1)" fill="url(#linear-gradient-5)"/>
        <path id="Path_32" data-name="Path 32" d="M675.873,401.685h.428a1.6,1.6,0,0,1-.125.365.931.931,0,0,1-.293.314.4.4,0,0,1-.071.041,1.546,1.546,0,0,1-.7.148,1.253,1.253,0,0,1-.87-.289,1.1,1.1,0,0,1-.343-.879,1.325,1.325,0,0,1,.15-.665,1.167,1.167,0,0,1,.5-.461,1.2,1.2,0,0,1,.561-.111,1.38,1.38,0,0,1,.76.188,1.111,1.111,0,0,1,.428.6h-.428a.569.569,0,0,0-.261-.322.9.9,0,0,0-.426-.12.821.821,0,0,0-.594.228.9.9,0,0,0-.246.665.841.841,0,0,0,.246.642.679.679,0,0,0,.245.113.542.542,0,0,0,.167.032l.074.01h.14l.139-.01.12-.034.052-.02.134-.09.048-.042.064-.072C675.812,401.865,675.814,401.862,675.873,401.685Z" transform="translate(-664.806 -398.854)" fill="url(#linear-gradient-6)"/>
        <path id="Path_33" data-name="Path 33" d="M662.251,401.374c-.086-.043-.257-.082-.45-.146h0a1.891,1.891,0,0,1-.386-.129.22.22,0,0,1-.129-.107.3.3,0,0,1-.043-.129.3.3,0,0,1,.107-.215.507.507,0,0,1,.343-.086.73.73,0,0,1,.429.2l.022.024.011.016.353-.116-.125-.16-.122-.114a.712.712,0,0,0-.239-.116,1.422,1.422,0,0,0-.328-.047,1.691,1.691,0,0,0-.343.036.5.5,0,0,0-.214.107.84.84,0,0,0-.172.214.662.662,0,0,0-.064.279.493.493,0,0,0,.086.3.465.465,0,0,0,.236.214,1.225,1.225,0,0,0,.322.129c.064.021.129.043.215.064a1.54,1.54,0,0,1,.365.129.264.264,0,0,1,.107.214.355.355,0,0,1-.107.257.567.567,0,0,1-.365.107.5.5,0,0,1-.365-.129.279.279,0,0,1-.107-.15l-.386.15a.989.989,0,0,0,.236.287.96.96,0,0,0,.643.185.9.9,0,0,0,.429-.086,1.02,1.02,0,0,0,.189-.109l.06-.05.029-.03.022-.027.053-.058.029-.058.023-.053.023-.057.014-.093v-.134l-.014-.106-.013-.06-.01-.048-.023-.062-.045-.07s-.042-.041-.072-.065a.421.421,0,0,0-.073-.045Z" transform="translate(-654.595 -398.933)" fill="url(#linear-gradient-7)"/>
      </g>
    </g>
    <path id="Path_2668" data-name="Path 2668" d="M57.178,49.534a.882.882,0,0,0,.883-.883c0-1.315-1.841-.762-2.648-.883-.046-.208.256-1.768-.883-1.768-1.167,0-.833,1.544-.883,1.768h-.539A2.046,2.046,0,0,0,51,49.741v1.351a2.047,2.047,0,0,0,2.109,1.973h2.844c.576,0,.255.529.343,1.558,0,.352-1.024.157-1.752.208l-.013,0-.013,0C53.041,55,51,54.323,51,55.712c0,1.315,1.841.762,2.648.883v.88a.883.883,0,0,0,1.765,0V56.6h.54a2.047,2.047,0,0,0,2.108-1.973V53.272c0-3.192-5.3-1.4-5.3-2.18V49.741C52.765,49.343,53.982,49.623,57.178,49.534Z" transform="translate(-15.503 23.576)" fill="url(#linear-gradient-8)"/>
    <g id="headphones" transform="translate(26.693 57.476)">
      <path id="Path_2627" data-name="Path 2627" d="M24.714,14.457a12.358,12.358,0,0,0-21.1-8.739A12.28,12.28,0,0,0,0,14.457v5.851a6.007,6.007,0,0,0,6,6,.711.711,0,0,0,.714-.714V15.028A.711.711,0,0,0,6,14.314a5.979,5.979,0,0,0-4.57,2.116V14.457a10.929,10.929,0,1,1,21.857,0,.657.657,0,0,0,.016.143.656.656,0,0,0-.016.143v1.973a5.979,5.979,0,0,0-4.57-2.116.711.711,0,0,0-.714.714V25.878a.711.711,0,0,0,.714.714,6.007,6.007,0,0,0,6-6V14.743A.657.657,0,0,0,24.7,14.6.657.657,0,0,0,24.714,14.457ZM5.279,15.8V24.82a4.568,4.568,0,0,1,0-9.025Zm14.155,9.31V16.081a4.568,4.568,0,0,1,0,9.025Z" transform="translate(0 -2.1)" fill="url(#linear-gradient-9)"/>
    </g>
  </g>
</svg>
