<svg xmlns="http://www.w3.org/2000/svg" width="70" height="70" viewBox="0 0 70 70">
  <g id="Group_2830" data-name="Group 2830" transform="translate(-182 -619)">
    <g id="Path_2670" data-name="Path 2670" transform="translate(182 619)" fill="#fff">
      <path d="M 35 69.5 C 30.34230995178223 69.5 25.82420921325684 68.58789825439453 21.57119941711426 66.78901672363281 C 17.46302032470703 65.05140686035156 13.77340030670166 62.56375885009766 10.60482025146484 59.39517974853516 C 7.436240196228027 56.22660064697266 4.94858980178833 52.53697967529297 3.21097993850708 48.42879867553711 C 1.412099957466125 44.17578887939453 0.5 39.65768814086914 0.5 35 C 0.5 30.34230995178223 1.412099957466125 25.82420921325684 3.21097993850708 21.57119941711426 C 4.94858980178833 17.46302032470703 7.436240196228027 13.77340030670166 10.60482025146484 10.60482025146484 C 13.77340030670166 7.436240196228027 17.46302032470703 4.94858980178833 21.57119941711426 3.21097993850708 C 25.82420921325684 1.412099957466125 30.34230995178223 0.5 35 0.5 C 39.65768814086914 0.5 44.17578887939453 1.412099957466125 48.42879867553711 3.21097993850708 C 52.53697967529297 4.94858980178833 56.22660064697266 7.436240196228027 59.39517974853516 10.60482025146484 C 62.56375885009766 13.77340030670166 65.05140686035156 17.46302032470703 66.78901672363281 21.57119941711426 C 68.58789825439453 25.82420921325684 69.5 30.34230995178223 69.5 35 C 69.5 39.65768814086914 68.58789825439453 44.17578887939453 66.78901672363281 48.42879867553711 C 65.05140686035156 52.53697967529297 62.56375885009766 56.22660064697266 59.39517974853516 59.39517974853516 C 56.22660064697266 62.56375885009766 52.53697967529297 65.05140686035156 48.42879867553711 66.78901672363281 C 44.17578887939453 68.58789825439453 39.65768814086914 69.5 35 69.5 Z" stroke="none"/>
      <path d="M 35 1 C 30.40959167480469 1 25.9570198059082 1.898818969726562 21.7659797668457 3.671478271484375 C 17.71739959716797 5.383880615234375 14.08119964599609 7.835548400878906 10.95837020874023 10.95837020874023 C 7.835548400878906 14.08119964599609 5.383880615234375 17.71739959716797 3.671478271484375 21.7659797668457 C 1.898818969726562 25.9570198059082 1 30.40959167480469 1 35 C 1 39.59040832519531 1.898818969726562 44.0429801940918 3.671478271484375 48.2340202331543 C 5.383880615234375 52.28260040283203 7.835548400878906 55.91880035400391 10.95837020874023 59.04162979125977 C 14.08119964599609 62.16445159912109 17.71739959716797 64.61611938476562 21.7659797668457 66.32852172851562 C 25.9570198059082 68.10118103027344 30.40959167480469 69 35 69 C 39.59040832519531 69 44.0429801940918 68.10118103027344 48.2340202331543 66.32852172851562 C 52.28260040283203 64.61611938476562 55.91880035400391 62.16445159912109 59.04162979125977 59.04162979125977 C 62.16445159912109 55.91880035400391 64.61611938476562 52.28260040283203 66.32852172851562 48.2340202331543 C 68.10118103027344 44.0429801940918 69 39.59040832519531 69 35 C 69 30.40959167480469 68.10118103027344 25.9570198059082 66.32852172851562 21.7659797668457 C 64.61611938476562 17.71739959716797 62.16445159912109 14.08119964599609 59.04162979125977 10.95837020874023 C 55.91880035400391 7.835548400878906 52.28260040283203 5.383880615234375 48.2340202331543 3.671478271484375 C 44.0429801940918 1.898818969726562 39.59040832519531 1 35 1 M 35 0 C 54.32995986938477 0 70 15.67004013061523 70 35 C 70 54.32995986938477 54.32995986938477 70 35 70 C 15.67004013061523 70 0 54.32995986938477 0 35 C 0 15.67004013061523 15.67004013061523 0 35 0 Z" stroke="none" fill="#444"/>
    </g>
    <g id="karaoke_1_" data-name="karaoke (1)" transform="translate(194.461 638.308)">
      <g id="Group_2059" data-name="Group 2059" transform="translate(0 0)">
        <g id="Group_2058" data-name="Group 2058">
          <path id="Path_2650" data-name="Path 2650" d="M40.411,113.165H38.357v-4.108a.685.685,0,0,0-.685-.685H34.933v-7.531a2.739,2.739,0,1,0-5.477,0v1.836a3.372,3.372,0,0,0-4.365.212,4.715,4.715,0,0,0-6.5.15l-.058.058c-.012.012-.023.025-.034.038V98.788a2.739,2.739,0,1,0-5.477,0v9.585H11.285a6.162,6.162,0,1,0,0,6.847h1.76a.655.655,0,0,0-.021.1,11.071,11.071,0,0,0,2.663,7.2l.679.791a11.04,11.04,0,0,0,2.259,2l2.615,1.742v1.169a.685.685,0,0,0,1.369,0v-1.536a.685.685,0,0,0-.3-.57l-2.918-1.945a9.653,9.653,0,0,1-1.981-1.755l-.679-.792a9.7,9.7,0,0,1-2.333-6.308.656.656,0,0,0-.021-.1h2.075v1.1a13.992,13.992,0,0,0,.72,4.435.685.685,0,0,0,1.3-.433,12.647,12.647,0,0,1-.652-4v-1.1a1.379,1.379,0,0,1,.4-.968,1.4,1.4,0,0,1,1.936,0,1.379,1.379,0,0,1,.4.968v2.572a.685.685,0,0,0,.342.594l3.3,1.886a5,5,0,0,1,2.521,4.339v1.4a.685.685,0,1,0,1.369,0v-1.4a6.36,6.36,0,0,0-3.208-5.528l-2.954-1.688v-2.175H33.564v4.343a8.606,8.606,0,0,1-2.538,6.128.685.685,0,0,0-.2.484v2.054a.685.685,0,0,0,1.369,0v-1.776a9.962,9.962,0,0,0,2.739-6.89v-4.343h2.739a.685.685,0,0,0,.685-.685h2.054a.685.685,0,0,0,0-1.369ZM5.493,116.534a4.786,4.786,0,0,1,0-9.476Zm4.745-2.19a4.81,4.81,0,0,1-3.375,2.191v-9.478a4.81,4.81,0,0,1,3.375,2.191Zm20.588-13.5a1.379,1.379,0,0,1,.4-.968,1.4,1.4,0,0,1,1.936,0,1.379,1.379,0,0,1,.4.968v7.531H30.825v-7.531Zm-1.971,3.106a2.065,2.065,0,0,1,.6,1.452v4.343a1.38,1.38,0,0,1-.4.968,1.4,1.4,0,0,1-1.936,0,1.38,1.38,0,0,1-.4-.968v-3.257a4.755,4.755,0,0,0-.743-2.559A2.1,2.1,0,0,1,28.854,103.947ZM18.5,106.485a3.4,3.4,0,0,1,1-2.42l.058-.058a3.347,3.347,0,0,1,4.724,0l.058.06a3.4,3.4,0,0,1,1.006,2.418v3.257a1.38,1.38,0,0,1-.4.968,1.4,1.4,0,0,1-1.936,0,1.38,1.38,0,0,1-.4-.968v-3.59a.685.685,0,1,0-1.369,0v2.22H18.5v-1.888Zm-4.108-7.7a1.379,1.379,0,0,1,.4-.968,1.4,1.4,0,0,1,1.936,0,1.379,1.379,0,0,1,.4.968v9.585H14.394V98.788ZM36.987,113.85H21.546a2.705,2.705,0,0,0-4.72,0H11.655v-4.108H21.24a2.739,2.739,0,0,0,4.675,1.936c.045-.045.077-.1.118-.143.041.047.073.1.118.143a2.739,2.739,0,0,0,4.675-1.936h6.162v4.108Z" transform="translate(0.001 -96.049)" fill="#444"/>
        </g>
      </g>
    </g>
  </g>
</svg>
