<svg xmlns="http://www.w3.org/2000/svg" width="70" height="70" viewBox="0 0 70 70">
  <g id="Group_2835" data-name="Group 2835" transform="translate(-182 -900)">
    <g id="Group_2834" data-name="Group 2834">
      <g id="Group_2832" data-name="Group 2832">
        <g id="Path_2672" data-name="Path 2672" transform="translate(182 900)" fill="#fff">
          <path d="M 35 69.5 C 30.34230995178223 69.5 25.82420921325684 68.58789825439453 21.57119941711426 66.78901672363281 C 17.46302032470703 65.05140686035156 13.77340030670166 62.56375885009766 10.60482025146484 59.39517974853516 C 7.436240196228027 56.22660064697266 4.94858980178833 52.53697967529297 3.21097993850708 48.42879867553711 C 1.412099957466125 44.17578887939453 0.5 39.65768814086914 0.5 35 C 0.5 30.34230995178223 1.412099957466125 25.82420921325684 3.21097993850708 21.57119941711426 C 4.94858980178833 17.46302032470703 7.436240196228027 13.77340030670166 10.60482025146484 10.60482025146484 C 13.77340030670166 7.436240196228027 17.46302032470703 4.94858980178833 21.57119941711426 3.21097993850708 C 25.82420921325684 1.412099957466125 30.34230995178223 0.5 35 0.5 C 39.65768814086914 0.5 44.17578887939453 1.412099957466125 48.42879867553711 3.21097993850708 C 52.53697967529297 4.94858980178833 56.22660064697266 7.436240196228027 59.39517974853516 10.60482025146484 C 62.56375885009766 13.77340030670166 65.05140686035156 17.46302032470703 66.78901672363281 21.57119941711426 C 68.58789825439453 25.82420921325684 69.5 30.34230995178223 69.5 35 C 69.5 39.52114105224609 68.63527679443359 43.91379165649414 66.92984771728516 48.055908203125 C 65.27330780029297 52.07931137084961 62.87041854858398 55.7601203918457 59.78792953491211 58.99608993530273 C 56.73336029052734 62.20441818237305 52.93389129638672 64.84913635253906 48.80017852783203 66.6444091796875 C 44.43724822998047 68.53923797607422 39.7942008972168 69.5 35 69.5 Z" stroke="none"/>
          <path d="M 35 1 C 30.40959167480469 1 25.9570198059082 1.898818969726562 21.7659797668457 3.671478271484375 C 17.71739959716797 5.383880615234375 14.08119964599609 7.835548400878906 10.95837020874023 10.95837020874023 C 7.835548400878906 14.08119964599609 5.383880615234375 17.71739959716797 3.671478271484375 21.7659797668457 C 1.898818969726562 25.9570198059082 1 30.40959167480469 1 35 C 1 39.59040832519531 1.898818969726562 44.0429801940918 3.671478271484375 48.2340202331543 C 5.383880615234375 52.28260040283203 7.835548400878906 55.91880035400391 10.95837020874023 59.04162979125977 C 14.08119964599609 62.16445159912109 17.71739959716797 64.61611938476562 21.7659797668457 66.32852172851562 C 25.9570198059082 68.10118103027344 30.40959167480469 69 35 69 C 39.72525787353516 69 44.30130004882812 68.05316925048828 48.60099792480469 66.18579864501953 C 52.67385101318359 64.41694641113281 56.41696929931641 61.81159973144531 59.42588043212891 58.65121078491211 C 62.46548843383789 55.46026992797852 64.83463287353516 51.83145141601562 66.46749877929688 47.86554718017578 C 68.14794921875 43.78411102294922 69 39.45552062988281 69 35 C 69 30.40959167480469 68.10118103027344 25.9570198059082 66.32852172851562 21.7659797668457 C 64.61611938476562 17.71739959716797 62.16445159912109 14.08119964599609 59.04162979125977 10.95837020874023 C 55.91880035400391 7.835548400878906 52.28260040283203 5.383880615234375 48.2340202331543 3.671478271484375 C 44.0429801940918 1.898818969726562 39.59040832519531 1 35 1 M 35 0 C 54.32995986938477 0 70 15.67004013061523 70 35 C 70 44.35569763183594 66.32920074462891 52.85404205322266 60.14994812011719 59.3409423828125 C 53.97403717041016 65.8277587890625 44.97425842285156 70 35 70 C 15.67004013061523 70 0 54.32995986938477 0 35 C 0 15.67004013061523 15.67004013061523 0 35 0 Z" stroke="none" fill="#444"/>
        </g>
        <g id="Group_2829" data-name="Group 2829" transform="translate(195.243 916.41)">
          <g id="Group_2804" data-name="Group 2804">
            <g id="Group_2344" data-name="Group 2344" transform="translate(32.553 24.906)">
              <g id="Group_2070" data-name="Group 2070" transform="translate(0 0)">
                <path id="Path_2669" data-name="Path 2669" d="M362.579,324.205a1.073,1.073,0,1,1,1.289-1.051h1.29a2.232,2.232,0,0,0-1.934-2.028V320h-1.29v1.126A2.232,2.232,0,0,0,360,323.154a2.38,2.38,0,0,0,2.579,2.1,1.073,1.073,0,1,1-1.29,1.051H360a2.232,2.232,0,0,0,1.934,2.028v1.126h1.29v-1.126a2.232,2.232,0,0,0,1.934-2.028A2.38,2.38,0,0,0,362.579,324.205Z" transform="translate(-360 -320)" fill="#444"/>
              </g>
            </g>
            <g id="noun_portfolio_2565963" transform="translate(0 0)">
              <g id="Group_2062" data-name="Group 2062" transform="translate(0 0)">
                <g id="Group_2059" data-name="Group 2059">
                  <path id="Path_2666" data-name="Path 2666" d="M46.515,11.759a1.951,1.951,0,0,0-2.04-1.843H33.556A5.936,5.936,0,0,0,27.477,5H22.038a5.936,5.936,0,0,0-6.079,4.917H5.04A1.951,1.951,0,0,0,3,11.759V33.878a1.951,1.951,0,0,0,2.04,1.843h25.28a7.969,7.969,0,0,0,8.036,6.144c4.5,0,8.159-3.307,8.159-7.373,0-.136-.017-.269-.025-.4a1.3,1.3,0,0,0,.025-.211ZM22.038,6.228h5.439a4.638,4.638,0,0,1,4.711,3.687H17.327A4.638,4.638,0,0,1,22.038,6.228Zm23.117,8.5-3.967-3.585h3.287C45.629,11.144,44.985,12.74,45.155,14.73Zm-37-3.585-3.8,3.432V11.759C4.36,10.722,6.108,11.293,8.158,11.144ZM5.04,34.492c-1.12,0-.526-1.527-.68-3.073h7.778a.618.618,0,1,0,0-1.229H4.36V28.347h7.778a.618.618,0,1,0,0-1.229H4.36V16.271c.241-.128-.358.34,5.721-5.127H39.265c5.88,5.258,5.514,5.1,5.89,5.192V30.411c-4.385-6-14.958-3.28-14.958,4.081H5.04Zm33.316,6.144c-4.079,0-7.238-3.256-6.753-6.828.819-6.8,11.555-7.416,13.353-.79l.019.079a5.4,5.4,0,0,1,.18,1.4C45.155,37.88,42.1,40.637,38.356,40.637Z" transform="translate(-3 -4.999)" fill="#444"/>
                </g>
              </g>
            </g>
          </g>
          <path id="Path_2599" data-name="Path 2599" d="M1.745,246.8H.193A.2.2,0,0,0,0,247v5.882a.2.2,0,0,0,.193.2H1.745a.2.2,0,0,0,.193-.2v-1.856a.193.193,0,1,0-.385,0v1.653H.385v-5.475H1.553v3.145a.193.193,0,1,0,.385,0V247A.2.2,0,0,0,1.745,246.8Zm0,0" transform="translate(14.097 -229.035)" fill="#444"/>
          <path id="Path_2600" data-name="Path 2600" d="M110.612,317.563H109.06a.2.2,0,0,0-.193.2v3.992a.2.2,0,0,0,.193.2h1.553a.2.2,0,0,0,.193-.2v-3.992A.2.2,0,0,0,110.612,317.563Zm-.192,3.992h-1.168v-3.585h1.168Zm0,0" transform="translate(-91.918 -297.907)" fill="#444"/>
          <path id="Path_2601" data-name="Path 2601" d="M219.48,199.625h-1.553a.2.2,0,0,0-.193.2v7.141a.2.2,0,0,0,.193.2h1.553a.2.2,0,0,0,.192-.2v-7.141A.2.2,0,0,0,219.48,199.625Zm-.193,7.142h-1.168v-6.735h1.168Zm0,0" transform="translate(-197.931 -183.119)" fill="#444"/>
          <path id="Path_2602" data-name="Path 2602" d="M328.347,235.008h-1.553a.2.2,0,0,0-.193.2v6.2a.2.2,0,0,0,.193.2h1.553a.2.2,0,0,0,.192-.2v-6.2A.2.2,0,0,0,328.347,235.008Zm-.193,6.2h-1.168v-5.79h1.168Zm0,0" transform="translate(-303.945 -217.557)" fill="#444"/>
          <path id="Path_2603" data-name="Path 2603" d="M437.214,128.862h-1.553a.2.2,0,0,0-.192.2v2.68a.193.193,0,1,0,.385,0v-2.477h1.168v8.625h-1.168v-5.471a.193.193,0,1,0-.385,0V138.1a.2.2,0,0,0,.192.2h1.553a.2.2,0,0,0,.192-.2v-9.031a.2.2,0,0,0-.192-.2Zm0,0" transform="translate(-409.961 -114.246)" fill="#444"/>
          <path id="Path_2604" data-name="Path 2604" d="M11.79,1.866a.976.976,0,0,0,.562.178,1.011,1.011,0,0,0,1-1.022,1,1,0,1,0-2,0,1.034,1.034,0,0,0,.159.553L10.075,3.013a.975.975,0,0,0-.562-.178,1,1,0,0,0-.868.519l-.979-.326a1.048,1.048,0,0,0,.007-.117,1,1,0,1,0-2,0,1.033,1.033,0,0,0,.189.6L4.354,5.188a.978.978,0,0,0-1.229.158l-1.2-.8A1.039,1.039,0,0,0,2,4.172,1.011,1.011,0,0,0,1,3.15,1.022,1.022,0,0,0,1,5.194a.983.983,0,0,0,.711-.306l1.2.8a1.039,1.039,0,0,0-.07.376,1,1,0,1,0,2,0,1.033,1.033,0,0,0-.189-.6L6.157,3.786a.974.974,0,0,0,.517.148,1,1,0,0,0,.868-.519l.979.326a1.048,1.048,0,0,0-.007.117,1,1,0,1,0,2,0,1.033,1.033,0,0,0-.16-.553ZM1,4.788A.616.616,0,0,1,1,3.556.616.616,0,0,1,1,4.788Zm2.839,1.89a.616.616,0,1,1,.6-.616A.609.609,0,0,1,3.836,6.678Zm2.839-3.15a.616.616,0,1,1,.6-.616A.609.609,0,0,1,6.675,3.528ZM12.352.406a.609.609,0,0,1,.6.616.6.6,0,1,1-1.2,0,.609.609,0,0,1,.6-.616ZM9.513,4.473a.616.616,0,1,1,.6-.616A.609.609,0,0,1,9.513,4.473Zm0,0" transform="translate(14.097 10.704)" fill="#444"/>
        </g>
      </g>
    </g>
  </g>
</svg>
