<svg xmlns="http://www.w3.org/2000/svg" width="70" height="69" viewBox="0 0 70 69">
  <g id="Group_2833" data-name="Group 2833" transform="translate(-182 -763)">
    <g id="Group_2831" data-name="Group 2831">
      <g id="Path_2671" data-name="Path 2671" transform="translate(182 763)" fill="#fff">
        <path d="M 35 68.5 C 30.3414192199707 68.5 25.82253074645996 67.60077667236328 21.5688304901123 65.82731628417969 C 17.4604606628418 64.11444854736328 13.77077007293701 61.66233825683594 10.60227012634277 58.53910064697266 C 7.43425989151001 55.41635131835938 4.94713020324707 51.78025054931641 3.209959983825684 47.7318000793457 C 1.411759972572327 43.54111862182617 0.5 39.08929824829102 0.5 34.5 C 0.5 29.91070938110352 1.411759972572327 25.45889091491699 3.209959983825684 21.26820945739746 C 4.94713020324707 17.21976089477539 7.43425989151001 13.58366012573242 10.60227012634277 10.46090984344482 C 13.77077007293701 7.33765983581543 17.4604606628418 4.885550022125244 21.5688304901123 3.172679901123047 C 25.82253074645996 1.399219989776611 30.3414192199707 0.5 35 0.5 C 39.6585807800293 0.5 44.17747116088867 1.399219989776611 48.43117141723633 3.172679901123047 C 52.5395393371582 4.885550022125244 56.22922897338867 7.33765983581543 59.39773178100586 10.46090984344482 C 62.56573867797852 13.58366012573242 65.05287170410156 17.21976089477539 66.7900390625 21.26820945739746 C 68.58824157714844 25.45889091491699 69.5 29.91070938110352 69.5 34.5 C 69.5 39.08929824829102 68.58824157714844 43.54111862182617 66.7900390625 47.7318000793457 C 65.05287170410156 51.78025054931641 62.56573867797852 55.41635131835938 59.39773178100586 58.53910064697266 C 56.22922897338867 61.66233825683594 52.5395393371582 64.11444854736328 48.43117141723633 65.82731628417969 C 44.17747116088867 67.60077667236328 39.6585807800293 68.5 35 68.5 Z" stroke="none"/>
        <path d="M 35 1 C 30.40782165527344 1 25.95365142822266 1.886260986328125 21.76123809814453 3.634170532226562 C 17.7122688293457 5.322280883789062 14.0759391784668 7.738929748535156 10.95326995849609 10.81698989868164 C 7.831588745117188 13.89406967163086 5.380958557128906 17.47669982910156 3.669448852539062 21.46537017822266 C 1.89813232421875 25.59339904785156 1 29.9788818359375 1 34.5 C 1 39.0211181640625 1.89813232421875 43.40660095214844 3.669448852539062 47.53462982177734 C 5.380958557128906 51.52330017089844 7.831588745117188 55.10593032836914 10.95326995849609 58.18301010131836 C 14.0759391784668 61.26107025146484 17.7122688293457 63.67771911621094 21.76123809814453 65.36582946777344 C 25.95365142822266 67.11373901367188 30.40782165527344 68 35 68 C 39.59217834472656 68 44.04634857177734 67.11373901367188 48.23876190185547 65.36582946777344 C 52.28772735595703 63.67771911621094 55.9240608215332 61.26107025146484 59.04673004150391 58.18301010131836 C 62.16841125488281 55.10593032836914 64.61904144287109 51.52330017089844 66.33055114746094 47.53462982177734 C 68.10186767578125 43.40660095214844 69 39.0211181640625 69 34.5 C 69 29.9788818359375 68.10186767578125 25.59339904785156 66.33055114746094 21.46537017822266 C 64.61904144287109 17.47669982910156 62.16841125488281 13.89406967163086 59.04673004150391 10.81698989868164 C 55.9240608215332 7.738929748535156 52.28772735595703 5.322280883789062 48.23876190185547 3.634170532226562 C 44.04634857177734 1.886260986328125 39.59217834472656 1 35 1 M 35 0 C 54.32995986938477 0 70 15.44617080688477 70 34.5 C 70 53.55381774902344 54.32995986938477 69 35 69 C 15.67004013061523 69 0 53.55381774902344 0 34.5 C 0 15.44617080688477 15.67004013061523 0 35 0 Z" stroke="none" fill="#444"/>
      </g>
      <path id="Path_2668" data-name="Path 2668" d="M60.373,51.361a1.339,1.339,0,0,0,1.339-1.339c0-1.995-2.793-1.156-4.017-1.339-.07-.315.388-2.682-1.339-2.682-1.77,0-1.263,2.342-1.339,2.682H54.2A3.1,3.1,0,0,0,51,51.675v2.049a3.1,3.1,0,0,0,3.2,2.993h4.314c.874,0,.387.8.52,2.363,0,.534-1.554.237-2.659.315-.007,0-.013,0-.019,0s-.013,0-.019,0C54.1,59.646,51,58.626,51,60.734c0,1.995,2.793,1.156,4.017,1.339v1.335a1.339,1.339,0,0,0,2.678,0V62.073h.819a3.1,3.1,0,0,0,3.2-2.993V57.031c0-4.842-8.034-2.131-8.034-3.307V51.675C53.678,51.071,55.524,51.5,60.373,51.361Z" transform="translate(160.916 748.932)" fill="#444"/>
      <g id="headphones" transform="translate(198.561 776.572)">
        <path id="Path_2627" data-name="Path 2627" d="M37.493,20.847a18.749,18.749,0,0,0-32-13.257A18.63,18.63,0,0,0,0,20.847v8.876a9.114,9.114,0,0,0,9.1,9.1,1.079,1.079,0,0,0,1.083-1.083V21.713A1.079,1.079,0,0,0,9.1,20.63a9.07,9.07,0,0,0-6.934,3.21V20.847a16.58,16.58,0,1,1,33.159,0,1,1,0,0,0,.024.217,1,1,0,0,0-.024.217v2.993a9.07,9.07,0,0,0-6.934-3.21,1.079,1.079,0,0,0-1.083,1.083V38.173a1.079,1.079,0,0,0,1.083,1.083,9.114,9.114,0,0,0,9.1-9.1V21.28a1,1,0,0,0-.024-.217A1,1,0,0,0,37.493,20.847ZM8.009,22.877V36.568a6.93,6.93,0,0,1,0-13.691ZM29.484,37V23.31a6.93,6.93,0,0,1,0,13.691Z" transform="translate(0 -2.1)" fill="#444"/>
      </g>
    </g>
  </g>
</svg>
